<svg id="圖層_3" data-name="圖層 3" xmlns="http://www.w3.org/2000/svg" xmlns:xlink="http://www.w3.org/1999/xlink" viewBox="0 0 1923.04 1238.41"><defs><style>.cls-1{fill:url(#未命名漸層_53);}.cls-2{fill:url(#未命名漸層_60);}.cls-3{fill:#ffe89f;}.cls-4{fill:url(#未命名漸層_26);}.cls-5{fill:url(#未命名漸層_22);}.cls-6{fill:url(#未命名漸層_22-2);}.cls-7{fill:url(#未命名漸層_22-3);}</style><linearGradient id="未命名漸層_53" x1="738.74" y1="964.9" x2="868.21" y2="740.66" gradientUnits="userSpaceOnUse"><stop offset="0" stop-color="#df76e2"/><stop offset="0.02" stop-color="#e079e0"/><stop offset="0.38" stop-color="#f1b5bd"/><stop offset="0.65" stop-color="#fbdaa7"/><stop offset="0.79" stop-color="#ffe89f"/></linearGradient><linearGradient id="未命名漸層_60" x1="944.93" y1="952.85" x2="1105.89" y2="674.04" gradientUnits="userSpaceOnUse"><stop offset="0" stop-color="#df76e2"/><stop offset="0.04" stop-color="#e792d2"/><stop offset="0.1" stop-color="#eeadc2"/><stop offset="0.16" stop-color="#f5c3b5"/><stop offset="0.23" stop-color="#f9d4ab"/><stop offset="0.32" stop-color="#fddfa4"/><stop offset="0.44" stop-color="#fee6a0"/><stop offset="0.79" stop-color="#ffe89f"/></linearGradient><linearGradient id="未命名漸層_26" x1="1063.66" y1="1066.52" x2="658.56" y2="364.87" gradientUnits="userSpaceOnUse"><stop offset="0"/><stop offset="0.05" stop-color="#1a0d1d"/><stop offset="0.15" stop-color="#5e3068"/><stop offset="0.3" stop-color="#c866dd"/><stop offset="0.33" stop-color="#d380d0"/><stop offset="0.38" stop-color="#e1a0c1"/><stop offset="0.44" stop-color="#ecbab5"/><stop offset="0.5" stop-color="#f4cfab"/><stop offset="0.57" stop-color="#fadda4"/><stop offset="0.65" stop-color="#fee5a0"/><stop offset="0.79" stop-color="#ffe89f"/></linearGradient><linearGradient id="未命名漸層_22" x1="640.68" y1="1082.55" x2="1029.33" y2="1082.55" gradientUnits="userSpaceOnUse"><stop offset="0.2"/><stop offset="0.24" stop-color="#1a0d1d"/><stop offset="0.32" stop-color="#5e3068"/><stop offset="0.44" stop-color="#c866dd"/><stop offset="0.48" stop-color="#d079d4"/><stop offset="0.63" stop-color="#e9b5b7"/><stop offset="0.73" stop-color="#f9daa6"/><stop offset="0.79" stop-color="#ffe89f"/></linearGradient><linearGradient id="未命名漸層_22-2" x1="1539.84" y1="1325.16" x2="1539.84" y2="923.53" xlink:href="#未命名漸層_22"/><linearGradient id="未命名漸層_22-3" x1="230.67" y1="1145.7" x2="579.31" y2="541.84" xlink:href="#未命名漸層_22"/></defs><title>LogoSVG01</title><path class="cls-1" d="M814.1,710.71c-.25-7.92.38,22.1.38,31.69V896.08q0,17.31,1.52,27.32t4.94,16.06a31.81,31.81,0,0,0,12.73,12.4q7.79,4.07,20.71,4.9v4.8H733v-4.8q11-.62,17.77-3.44a32.2,32.2,0,0,0,11.87-8.65,34.79,34.79,0,0,0,8.17-16.89q2.1-10.21,2.09-31.7V742.4c0-14.31-.22-39.62-.21-31.69C772.69,735.78,814.91,737.13,814.1,710.71Z" transform="translate(-67.65 -351.62)"/><path class="cls-2" d="M1110.89,676.93l2.28,90.71-4.37.41q-13.11-46.29-33.63-68.91t-49.6-22.63q-22.6,0-38.85,10.11t-30.31,32.85q-28.5,46.5-28.5,106.34a206.12,206.12,0,0,0,6.84,53.91,148.07,148.07,0,0,0,20,44.72Q980.16,962,1016.83,962a58.74,58.74,0,0,0,48.08-25q11.21-16.26,11.21-38.57,0-20.64-10.17-29.82t-33.53-9.18v-4.79h121.22v4.79q-16.73,1.68-23.47,5.11t-10,11.78q-3.62,9.18-3.61,36.5,0,7.5.76,23.35l.38,4.8q-7.23-2.92-10.64-2.92-4.18,0-10.64,4.79A122.11,122.11,0,0,1,1058.07,962a157.56,157.56,0,0,1-46.18,6.67q-33.43,0-60.32-12.51A109.24,109.24,0,0,1,908,920.27q-12.54-17.5-19.29-41.7a190.44,190.44,0,0,1-6.74-51.3q0-37.32,12.16-69.44t34.2-53A128.55,128.55,0,0,1,969.9,678.8a136.1,136.1,0,0,1,49.78-9.17,120.36,120.36,0,0,1,28.22,3.13A137.27,137.27,0,0,1,1075.55,683l11.21,5.63a18.76,18.76,0,0,0,7.6,1.87q7.59,0,11.59-13.55Z" transform="translate(-67.65 -351.62)"/><path class="cls-3" d="M1584.58,683.39q-12,0-25.65.84c-19.51,1.11-47.84,4.48-70,10.46-10.89,2.94-35.26-70.91-29.12-68.44,65,26.17,168.19,47.13,234.06-9.8,4.72-4.08,6,76.88-8,72.57q-17.67-5.62-59.85-5.63V896.08q0,21.27,2.19,31.6a36.47,36.47,0,0,0,8.07,17,31.91,31.91,0,0,0,12.07,8.76q6.74,2.72,17.57,3.33v4.8H1544.49v-4.8q11-.62,17.76-3.33a31.91,31.91,0,0,0,12.07-8.76,36.53,36.53,0,0,0,8.07-16.89q2.19-10.21,2.19-31.7Z" transform="translate(-67.65 -351.62)"/><path d="M1131.88,1560.26l.79-86.11,6,.2q11,32.88,26.16,51.8,28.5,34.95,71.66,34.95,30.06,0,49.69-16.06t19.61-40.66a63.16,63.16,0,0,0-16-40.66q-7.59-8.13-21.32-15.64t-42-19q-24.86-10-38-16.9a108.25,108.25,0,0,1-21.32-14q-22.5-19.59-22.49-47.75a68.79,68.79,0,0,1,8.76-33.36,83.35,83.35,0,0,1,24.45-27.52q27.72-20.44,65.65-20.44c8.19,0,29.39-3.86,36.37-2.54s-19.94,9.21-33.34,9.21q-29.25,0-46.21,15.87a47.43,47.43,0,0,0-11.1,15.24,41.59,41.59,0,0,0-4,17.53q0,34.86,56.14,56.15l36.82,14.19q42.57,16.08,61.37,35.48Q1361,1452,1361,1480.82a74.63,74.63,0,0,1-9.67,36.61q-13.61,24.35-40.8,37.55t-64.08,13.21a199.21,199.21,0,0,1-64.86-10.64q-16.21-5.62-19.35-6.46a27.75,27.75,0,0,0-7.06-.83q-12.56,0-17.26,10Z" transform="translate(-67.65 -351.62)"/><path d="M1493.88,1282.93q-12,0-25.65.84c-19.51,1.11-81.32-7.3-81.32-7.3H1644l3.42,76.94-4.37.42q-5.13-29-16.06-43.89t-31.82-21.38q-17.67-5.62-59.86-5.63v212.69q0,21.27,2.19,31.59a36.6,36.6,0,0,0,8.07,17,31.91,31.91,0,0,0,12.07,8.76q6.73,2.7,17.58,3.33v4.8H1453.79v-4.8q11-.63,17.77-3.33a32,32,0,0,0,12.06-8.76,36.54,36.54,0,0,0,8.08-16.89q2.17-10.21,2.18-31.7Z" transform="translate(-67.65 -351.62)"/><path d="M483.62,1499.59s1.89,1.57-16.16,20.6c-16.1,17-53.69,12.07-69.89,5.38-16.67-6.89-33-21.22,5.84-71.92s47.32-43.94,47.32-43.94-4.64-3.73-7.38-3.66-3.74-.91-11.74,2.9-32.84,24.21-49.17,40.8-47.17,47.94-48.72,55.72-3.63,7.77-3.11,19.7,10.11,31.1,22.29,33.43,76.71,2.5,76.71,2.5,40.95-7.17,53.39-28.94S483.62,1499.59,483.62,1499.59Z" transform="translate(-67.65 -351.62)"/><path d="M1138.68,1474.47c-6.81-16.46-20.32-31.26-44.08-48.06s-55.84-32.3-82-17.46c-25.33,14.36-31.17,63.32-17.32,86.39,17.93,29.9,91.44,22.58,108.24,47.32s-43.31,45.08-43.31,45.08l37.12,2.21s22.5,2.3,27.36-18.47-46.84-56.81-71.22-61.41c-39.62-7.47-32.3-60-19.16-68.13,65.54-40.74,94.84,91.36,96.7,112C1134,1587.51,1146.32,1492.92,1138.68,1474.47Z" transform="translate(-67.65 -351.62)"/><path class="cls-3" d="M1595.71,679.85c-8.86-1,59.74-34.11,98.11-63.4,35.78-27.32,64.43-64.85,69.12-87.05,13.34-63.12-57.94-89.27-57.94-89.27s35.59-18.08,86.63,18.75,35.91,103.7,25.41,125.17c-9.74,19.91-25.41,28.77-42.91,38.27-21,11.4,29.72-7.11,29.72-7.11l48.45-32.3s14.86,27.13,0,51-33.59,34.89-74.29,39.41S1713.25,679,1718.07,685s18.78,20.07,22.61,27.94c2.22,4.57-23.63-2.45-45.37-11.62C1664.48,688.32,1643.28,685.12,1595.71,679.85Z" transform="translate(-67.65 -351.62)"/><path class="cls-4" d="M802,512.65c-33.62-15.69-120.45-161-120.45-161s64.08,157,57.28,193.51c-5.88,31.57-143.87,113.14-143.87,113.14s144.53-72,172.82-56.84c43.12,23.14,286.62,470.46,286.62,470.46S820,618,830.91,568.94c7-31.34,122.18-97.56,122.18-97.56S831.06,526.22,802,512.65Z" transform="translate(-67.65 -351.62)"/><path d="M1310.59,1574" transform="translate(-67.65 -351.62)"/><polygon points="986.71 720.27 1165.31 1054.37 1073.49 871.26 986.71 720.27"/><path class="cls-5" d="M640.68,1089.43s59.17,5.26,175.48-4.87c107.24-9.34,213.17-38.5,213.17-38.5l-21.07,17s-222.09,37.69-284.8,54.83C694.4,1125.85,640.68,1089.43,640.68,1089.43Z" transform="translate(-67.65 -351.62)"/><path class="cls-3" d="M772.63,674.48S746,694.92,706.69,687.2c-45.34-8.92-61.1-30.45-73.49-50.15s-24.8-66-6.59-117.95c15.91-45.38,35.8-43.26,40-48.69,1.05-1.35,5.54-5.89,5.54-5.89s-20.38,5.28-40.06,28.62c-6.37,7.55-20.14,20.79-28.38,61.27-6.14,30.15,4.7,70.65,17.15,89.89,13.6,21,43.26,49.08,91.75,50.65,18.83.62,27.84-1.57,39.93-4.43a120,120,0,0,0,35.37-15Z" transform="translate(-67.65 -351.62)"/><path class="cls-6" d="M1990.7,1066.21s-1-84.86-68.11-115c-45.9-20.62-104.5-25.68-147.39-25.76-13.89-1.15-28.82-1.81-44.92-1.89-184.2-.91-641.29,108.28-641.29,108.28l46.15-6.24s72.71-25.29,246.57-37.5c-81,20.33-212.61,53.21-216.29,53.21h40.14l308.9-64.35h0c157.87-16.78,302.47-38.29,369,31.23,68.2,71.24-214.42,213.76-267.77,224.52-226.71,45.72-271.4,20-359.78,28.8-48.75,4.86-69.18,24.21-69.18,24.21s-15.36,61.85-1.71,30.68c6.8-15.5,18.71-28.19,52.68-35.87,10.94-2.47,39.2-5.86,52-5.38,36.13,1.36,43.84,7.31,89.31,10.81,28.45,2.19,125.61-3.4,138.07-4,117.88-5.38,128.79,38.56,127.58,11.47-2.52-56.87,271.48-160.46,293.22-247.38,6.22-24.86-1.2-58.45-38.54-84.18a110.1,110.1,0,0,1,15.17,5.26C1964.13,989.39,1990.7,1066.21,1990.7,1066.21Z" transform="translate(-67.65 -351.62)"/><polygon points="643.54 787.57 778.22 769.91 815.21 771.63 668.03 806.73 643.54 787.57"/><path class="cls-7" d="M347.7,905.24q-3.63,17.14-13.42,28.24Q316.9,953.25,285,953.24v8.32h377.1l4.11-142.11-7.58-.69q-6,32.24-13.11,52a146.63,146.63,0,0,1-18.16,35.35,98.23,98.23,0,0,1-42.16,33.8q-25.76,10.92-63.33,10.92-36,0-57.8-11.62t-32.84-36.56q-6.33-14.22-8.53-36.74-1.93-19.71-2.18-57.43l91.53-69.27h-8.88s-58.36,40.5-82.68,56.52c-.05,0-20.85,11.33-26.57,10.53s-1.79-8.54.24-10.89c5.38-6.24,26.32-19.88,26.33-21,117.13-84.16,244.4-155.63,244.4-155.63s-115.19,63.7-244.4,142.53v-164q0-36.39,3.79-53.72t14.53-28.77a51.9,51.9,0,0,1,19.58-13.17q11.06-4.16,28.42-5.2v-8H285v8q17.06.7,27.95,4.85a55.19,55.19,0,0,1,19.74,13.18q10.73,11.09,14.68,28.59t3.95,54.24V804.15C205.93,895.9,65.27,995.75,67.68,1037.33c5,85.66,419.67,13.16,418.51,185.59-.72,106.24,50.81-134.83,50.81-134.83s-95.56,9.92-271.86-62.51C182.66,991.7,250,909,351.33,826.88v25.84Q351.33,888.08,347.7,905.24ZM174,1020.86c10.28,37.3,120.44,54.34,120.44,54.34s-186.34-10.25-187-49.62,139-133.52,139-133.52S162.94,980.77,174,1020.86Z" transform="translate(-67.65 -351.62)"/><path class="cls-3" d="M1425.45,710.81a36.47,36.47,0,0,1,8.07-17,31.91,31.91,0,0,1,12.07-8.76,53.37,53.37,0,0,1,15.3-3.18,2.47,2.47,0,0,0,2.27-2.47h0a2.48,2.48,0,0,0-2.48-2.48H1344.23a2.48,2.48,0,0,0-.2,5,53.65,53.65,0,0,1,15.48,3.18,31.91,31.91,0,0,1,12.07,8.76,36.54,36.54,0,0,1,8.08,16.89q2.17,10.21,2.18,31.69l.09,23.21a12.82,12.82,0,0,1-8.34,12.06l-123.31,45.91a2.48,2.48,0,0,1-3.35-2.32V742.4q0-21.27,2.19-31.59a36.57,36.57,0,0,1,8.07-17,31.91,31.91,0,0,1,12.07-8.76,53.45,53.45,0,0,1,15.3-3.18,2.48,2.48,0,0,0,2.28-2.47h0a2.48,2.48,0,0,0-2.49-2.48H1167.9a2.48,2.48,0,0,0-2.48,2.48h0a2.48,2.48,0,0,0,2.28,2.47,54.51,54.51,0,0,1,15.39,3.18,30.21,30.21,0,0,1,12,8.76,34.88,34.88,0,0,1,8.17,16.89q2.1,10.21,2.09,31.69V896.08q0,21.48-2.09,31.7a34.88,34.88,0,0,1-8.17,16.89,32.2,32.2,0,0,1-11.87,8.65,51.58,51.58,0,0,1-15.49,3.29,2.48,2.48,0,0,0-2.28,2.47h0a2.48,2.48,0,0,0,2.48,2.48h116.45a2.48,2.48,0,0,0,2.49-2.48h0a2.48,2.48,0,0,0-2.28-2.47,51.51,51.51,0,0,1-15.49-3.29,32.23,32.23,0,0,1-11.88-8.65,36.57,36.57,0,0,1-8.07-17q-2.19-10.33-2.19-31.6V876.34c11.14-4.49,24-9.63,32.75-13.07,14.21-5.56,30.57-12,30.57-12l1.74-3.74s-33.59,9.57-35.25,3.83c-.41-1.42,5.22-3.9,5.22-3.9h0l96.62-37.88a2.47,2.47,0,0,1,3.38,2.31l-.12,84.18q0,21.48-2.18,31.7a36.54,36.54,0,0,1-8.08,16.89,33.88,33.88,0,0,1-12.07,8.65,51.44,51.44,0,0,1-15.49,3.29,2.47,2.47,0,0,0-2.27,2.47h0a2.48,2.48,0,0,0,2.48,2.48h116.45a2.48,2.48,0,0,0,2.48-2.48h0a2.49,2.49,0,0,0-2.27-2.47,50.87,50.87,0,0,1-15.3-3.28,33.88,33.88,0,0,1-12.07-8.65,37.9,37.9,0,0,1-8.07-17.1q-2.19-10.22-2.19-31.49V742.4Q1423.26,721.13,1425.45,710.81Z" transform="translate(-67.65 -351.62)"/><path d="M827.36,1269.47l219.29-54.3a1.15,1.15,0,0,1,1,2l-20.52,15.28a1.17,1.17,0,0,1-.27.15c-65.38,27.9-99.8,40.64-106.27,44.51-8.17,4.87-18.78,13.55-72.86,4.27-4.81-.82-15.77-7-20.64-9.84A1.15,1.15,0,0,1,827.36,1269.47Z" transform="translate(-67.65 -351.62)"/><path d="M1038.42,1276.47v4.79q10.83.63,17.57,3.34a31.91,31.91,0,0,1,12.07,8.76,36.53,36.53,0,0,1,8.07,16.89q2.19,10.21,2.19,31.69v116.57q0,31.89-.76,40.45-1.14,13.14-4.66,21.68a47.52,47.52,0,0,1-10.92,15.85q-12,11.68-29.93,18.25a108.87,108.87,0,0,1-37.71,6.57q-20.34,0-33.73-7.41T938.09,1530a70,70,0,0,1-8.07-23.67q-2-12.83-2-41.6v-118q0-25.44,2-35.87c1-5-1.9-10.51,7.23-25.63-12.29,6.31-26.38,11.77-33.25,8.13-7.39-3.92,19-17.52,19-17.52l31.43-13.28.49-.57c3.49-4-108.38,14.47-108.38,14.47v4.79q11,.63,17.77,3.34a30.4,30.4,0,0,1,11.87,8.76,34.88,34.88,0,0,1,8.17,16.89q2.08,10.21,2.09,31.69v126.57q0,24,1.14,33.16,3.23,25.86,19.76,41.7,25.47,24.83,79.24,24.82,51.48,0,79.23-26.28,12.15-11.46,16.24-25.33t4.09-43.06V1341.94q0-21.27,2.18-31.59a36.58,36.58,0,0,1,8.08-17c3.54-4,4.13-5.73,9.24-12.68C1108.49,1276.78,1038.42,1276.47,1038.42,1276.47Z" transform="translate(-67.65 -351.62)"/><path d="M1239.52,1218.5c1.22-.3-13.75,6.59-14.76,7.33l-8.94,6.66a1.17,1.17,0,0,1-.27.15c-65.38,27.9-99.8,40.64-106.27,44.51-8.17,4.87-.57,16.22-54.65,6.94-4.8-.82-32.31-1.88-37.18-4.73C1016.56,1278.84,1239.52,1218.5,1239.52,1218.5Z" transform="translate(-67.65 -351.62)"/><path d="M545.56,1098.72h33q35.4,0,58.27,8,40.71,14.47,70.38,58.34l52.21-12.24,1,.21a197.28,197.28,0,0,0-21-22q-40-36-97.48-41.6-13.61-1.38-63.44-1.38H428.75v8q25.88,1.74,39.21,15.94,10.62,11.44,14.3,29.12t3.67,55.8V1327l59.63-16.21Z" transform="translate(-67.65 -351.62)"/><path d="M798.79,1220.9a254.31,254.31,0,0,0-28.5-54.76l-50.95,19.15a278.85,278.85,0,0,1,23.09,60,365.6,365.6,0,0,1,11.71,93.58,350.1,350.1,0,0,1-9.67,83.71q-9.66,39.34-28.18,69.84-18.79,31.54-42.61,45.58t-57.32,14q-39.21,0-56.64-27-8.16-12.48-11.16-30.15t-3-51.65V1333l-59.63,20.64v98.61q0,35.35-3.13,52.51T471.23,1533q-7.62,10.07-17.15,14.56t-25.33,5.55v8H630a299,299,0,0,0,68.89-8q45.2-10.74,75.43-50.26,21.5-28.08,33.62-70.54T820,1342Q820,1276.53,798.79,1220.9Z" transform="translate(-67.65 -351.62)"/><polygon points="510.53 931.25 418.32 954.99 418.32 980.13 591.33 922.5 510.53 931.25"/><path d="M1753.57,1432.06c-4.42-4.16-7.19-18-8.55-26.69-.16-1-2.22-1.07-2.43,0-1.85,8.72-5.37,22.51-9.84,26.62-3.44,3.17-15.51,5.07-24.76,6.1-1.3.14-1.25,1.51.06,1.61,9.32.74,21.47,2.34,24.62,5.68,4.76,5,7.66,17.48,9.24,26.88.18,1,2.31,1,2.43,0,1.09-9.45,3.57-21.94,9.15-26.73,4.14-3.55,16.41-5.19,23.73-5.88.79-.07.8-.89,0-1C1769.87,1437.73,1757.5,1435.77,1753.57,1432.06Z" transform="translate(-67.65 -351.62)"/><path class="cls-3" d="M1753.57,1520.15c-4.42-4.15-7.19-18-8.55-26.69-.16-1-2.22-1.07-2.43,0-1.85,8.72-5.37,22.5-9.84,26.62-3.44,3.16-15.51,5.07-24.76,6.09-1.3.15-1.25,1.51.06,1.61,9.32.75,21.47,2.34,24.62,5.69,4.76,5,7.66,17.48,9.24,26.87.18,1,2.31,1,2.43,0,1.09-9.44,3.57-21.94,9.15-26.73,4.14-3.55,16.41-5.19,23.73-5.87.79-.08.8-.89,0-1C1769.87,1525.82,1757.5,1523.86,1753.57,1520.15Z" transform="translate(-67.65 -351.62)"/></svg>