<?xml version="1.0" encoding="UTF-8"?><svg id="_層_2" xmlns="http://www.w3.org/2000/svg" viewBox="0 0 279.87 509.46"><defs><style>.cls-1{fill:#fff9e0;}</style></defs><g id="_審2"><g id="_層_28"><path class="cls-1" d="M207.64,.01C206.37,1.5,2.91,249.35,1.53,250.73c-6.97,6.97,202.28-246.27,0,0h0c-2.04,2.03-2.04,5.37,0,7.4l207.34,251.32c22.45-22.45,47.67-57.72,71-81.05-94.67-115.91-68.7-85.06-141.18-173.17-1.86-2.26-1.87-4.29-.1-6.54,74.92-94.93,39.21-49.81,141.28-176.81-2.16-2.3-3.89-4.19-5.12-5.41-20.93-20.94-41.87-41.87-62.79-62.81-1.16-1.16-2.22-2.43-3.33-3.65h-.99Z"/></g></g></svg>