<svg id="圖層_1" data-name="圖層 1" xmlns="http://www.w3.org/2000/svg" viewBox="0 0 1048 1048"><defs><style>.cls-1,.cls-4{fill:none;}.cls-2{fill:#231815;}.cls-3{fill:#fff;}.cls-4{stroke:#231815;stroke-miterlimit:10;stroke-width:70.88px;}</style></defs><title>Icon</title><path class="cls-1" d="M524,397.28A296.87,296.87,0,0,1,396.86,524.21,296.77,296.77,0,0,1,524,651.13,296.77,296.77,0,0,1,651.14,524.21,296.87,296.87,0,0,1,524,397.28Z"/><path class="cls-2" d="M491.5,777.55h65A228.7,228.7,0,0,1,783.1,556.77v-.07a293.49,293.49,0,0,1-132-32.49A296.77,296.77,0,0,0,524,651.13,296.77,296.77,0,0,0,396.86,524.21a293.49,293.49,0,0,1-132,32.49v.07A228.7,228.7,0,0,1,491.5,777.55Z"/><path class="cls-2" d="M466.7,474.09A294.81,294.81,0,0,0,524,397.28,296.87,296.87,0,0,0,651.14,524.21a293.36,293.36,0,0,1,132-32.49v-.07A228.7,228.7,0,0,1,556.5,270.87h-65A228.7,228.7,0,0,1,264.9,491.65v.07a293.36,293.36,0,0,1,132,32.49A295.26,295.26,0,0,0,466.7,474.09Z"/><path class="cls-2" d="M264.9,491.72v65a293.49,293.49,0,0,0,132-32.49A293.36,293.36,0,0,0,264.9,491.72Z"/><path class="cls-2" d="M783.1,556.7v-65a293.36,293.36,0,0,0-132,32.49A293.49,293.49,0,0,0,783.1,556.7Z"/><path class="cls-3" d="M785.9,556.73c-.94,0-1.87,0-2.8,0v.07C784,556.75,785,556.73,785.9,556.73Z"/><path class="cls-3" d="M783.1,491.72c.93,0,1.86,0,2.8,0-.94,0-1.87,0-2.8,0Z"/><path class="cls-3" d="M264.9,556.7c-.94,0-1.86,0-2.8,0,.94,0,1.86,0,2.8,0Z"/><path class="cls-3" d="M262.1,491.69c.94,0,1.86,0,2.8,0v-.07C264,491.66,263,491.69,262.1,491.69Z"/><circle class="cls-4" cx="524" cy="524.21" r="285.61"/></svg>