<svg id="圖層_1" data-name="圖層 1" xmlns="http://www.w3.org/2000/svg" viewBox="0 0 1048 1048"><defs><style>.cls-1{fill:#b79e65;}</style></defs><title>Icon_color_工作區域 1</title><path class="cls-1" d="M1007,320a524.26,524.26,0,0,0-965.59,0,524,524,0,0,0,853.32,574.5A524.46,524.46,0,0,0,1007,320ZM524.21,731.16A484.37,484.37,0,0,0,316.7,524,484.51,484.51,0,0,0,524.21,316.84,484.37,484.37,0,0,0,731.72,524,484.22,484.22,0,0,0,524.21,731.16ZM929,470.22a373.16,373.16,0,0,1-351.3-351C760,143.15,904.88,287.9,929,470.22Zm-458.25-351a373.16,373.16,0,0,1-351.29,351C143.54,287.9,288.37,143.15,470.73,119.19ZM119.44,577.78a373.16,373.16,0,0,1,351.29,351C288.38,904.85,143.54,760.1,119.44,577.78Zm458.24,351a373.16,373.16,0,0,1,351.3-351C904.88,760.1,760,904.85,577.68,928.81Z"/></svg>