<?xml version="1.0" encoding="UTF-8"?><svg id="_層_2" xmlns="http://www.w3.org/2000/svg" viewBox="0 0 313.58 304.24"><defs><style>.cls-1{fill:none;stroke:#a89253;stroke-miterlimit:10;}.cls-2{fill:#a48f52;}</style></defs><g id="_層_7"><g><path class="cls-2" d="M142.2,48.64c5.44-8.88,14.48-13.08,23.61-17.32,9.42-4.37,19.39-3.07,29.32-2.59l.28-1.94c-2.88-.88-5.75-1.75-9.36-2.85,5.37-5.48,12.15-6.75,18.63-8.9,7.32-2.42,13.05,1.53,19.18,4.3,.19-.37,.39-.74,.58-1.1-1.46-1.31-2.92-2.63-5.19-4.67,7.73,0,14.63-.18,21.51,.09,2.76,.1,3.86,2.21,2.19,4.6-5.11,7.36-10.17,14.77-15.82,21.7-1.2,1.47-4.79,1.1-7.3,1.39-25.55,2.96-51.11,5.88-76.67,8.81-.33-.51-.65-1.01-.98-1.52Z"/><path class="cls-2" d="M300.8,85.38c-2.19-2.56-3.33-3.9-4.47-5.24l-1.54,.12c9.46,14.13,4.12,26.1-4.07,38.99-1.23-4.23-2.09-7.18-2.95-10.14l-2.23-.15c3.22,20.23-2.19,37.45-16.65,51.45-.94,.91-2.38,1.3-4.38,2.35,1.12-11.11,2.07-21.16,3.17-31.2,1.91-17.35,3.9-34.7,5.96-52.03,.13-1.1,.92-2.41,1.81-3.08,6.24-4.69,12.52-9.32,18.94-13.76,1.33-.92,3.47-1.56,4.87-1.13,.87,.26,1.43,2.78,1.47,4.3,.16,6.08,.07,12.16,.07,19.53Z"/><path class="cls-2" d="M263.64,56.54c-1.38,11.57,6.21,7.77,11.97,7.17,0,.5-.02,1.01-.02,1.51-1.91,.98-3.74,2.18-5.74,2.9-6.29,2.26-10,6.44-11.74,13.05-2.62,9.94-5.91,19.71-9.98,29.32,1.86-9.14,3.7-18.28,5.59-27.41,.44-2.12,1.16-4.17,1.59-6.29,.74-3.64-.22-6.39-3.87-8.14-6.43-3.09-11.66-7.43-14.97-14.07-2.37-4.75-6.66-3.33-10.43-1.85-10.04,3.97-20.01,8.11-30.03,12.13-2.09,.84-4.28,1.46-6.81,1.19,8.19-3.58,16.39-7.11,24.55-10.74,10.01-4.44,19.31-9.69,24-20.48,.7-1.61,2.54-2.71,3.86-4.05,.42,.32,.84,.63,1.25,.95-.55,2.51-1.1,5.01-1.8,8.21,2.69,.15,5.07,.28,8.46,.47-2.01,1.76-3.49,3.09-5.01,4.38-4.86,4.15-5.14,6.71-1.12,11.7,.93,1.16,1.98,2.28,3.15,3.19,6.96,5.41,10.24,7.32,14.72-1.66,.18-.35,.77-.5,2.39-1.48Z"/><path class="cls-2" d="M294.73,150.66c7.28-6.12,8.76-13.81,8.97-22.01,.54-.15,1.08-.3,1.62-.45,.69,1.19,1.58,2.31,2.03,3.59,2.09,5.99,4.06,12.02,6.23,18.51-3.99,2.93-5.61,8.44-5.94,14.29-.42,7.28-.24,14.58-.47,21.87-.04,1.43-.76,2.83-1.17,4.24-.49-.1-.98-.21-1.46-.31,0-3.43,.06-6.87-.01-10.3-.13-5.77-.14-11.55-.58-17.3-.42-5.46-2.7-9.93-9.2-12.13Z"/><path class="cls-2" d="M154.19,1.05c6.73,2.15,12.94,4.08,19.09,6.17,1.01,.34,1.77,1.41,2.64,2.15-.84,.58-1.68,1.67-2.52,1.66-7.52-.05-13.86,2.63-19.16,8.11-6.36-11.14-17.12-9.04-26.91-9.43-4.37-.17-8.77,.36-13.16,.57-.11-.57-.21-1.14-.32-1.72,1.44-.39,2.86-1.08,4.31-1.12,7.13-.23,14.27-.08,21.38-.47,6.02-.33,11.66-1.97,14.64-5.92Z"/><path class="cls-2" d="M0,19.08H111.31v1.08H0c0-.36,0-.72,0-1.08Z"/><path class="cls-2" d="M295.63,193.21v111.03h-.92v-110.94l.92-.09Z"/><path class="cls-2" d="M25.52,7.94h49.23c-1.71,1.1-2.78,2.37-3.84,2.37-14.32,.04-28.65-.07-42.97-.23-.84,0-1.68-.67-2.52-1.02,.03-.37,.07-.75,.1-1.12Z"/><path class="cls-2" d="M306.84,229.69v49.24c-.73,.01-1.46,.02-2.18,.03-.47-15.37-.43-30.77-.22-46.16,.01-.78,1.16-1.55,2.41-3.12Z"/><path class="cls-2" d="M304.81,123.9V56.76l.87-.02V123.87l-.87,.03Z"/><path class="cls-2" d="M180.65,8.5h67.12l.02,.87h-67.13l-.02-.87Z"/><path class="cls-2" d="M244.42,73.93c-8.66-.15-15.74-6.71-13.8-12.54,4.51,4.1,9.02,8.2,13.8,12.54Z"/><g><path class="cls-2" d="M302.6,0c-.12,.32-.24,.63-.36,.95,.46-.3,.93-.61,1.39-.9l-1.03-.05Z"/><path class="cls-2" d="M290.13,33.84c3.33-11.18,7.97-21.96,12.11-32.9-1,.66-2,1.32-3.05,1.85-8.57,4.36-16.97,9.16-25.83,12.84-7.34,3.05-15.18,4.06-22.31-1.41-.56-.43-1.42-.46-2.14-.68l-1.5,.32c12.45,14.62,5.68,28.88,.26,42.91,7.72-1.24,15.13-3.1,22.6-3.44,7.58-.34,15.19,.98,21.8,6.32-6.48-8.54-4.41-17.51-1.94-25.82Zm-34.67,16.22c1.1-8.83,2.24-17.97,3.26-26.12,11.38-2.91,21.84-5.59,32.18-8.24-6.19,9.99-10.49,21.08-8.35,34.36h-27.09Z"/></g><path class="cls-2" d="M283.21,22.91c-7.15,3.79-13.67,7.28-20.28,3.27-1.07,5.99-2.17,11.06-2.74,16.19-.15,1.35,1.52,4.2,2.09,4.13,5.56-.66,11.07-1.79,17.19-2.9-4.29-7.13,2.22-13.08,3.74-20.69Zm-9.63,17.63c-2.48,.36-5.23,.77-8.32,1.22,.58-3.23,1.17-6.53,1.8-10.06,2.55-.4,5.21-.81,7.7-1.2-.39,3.28-.76,6.45-1.19,10.05Z"/><circle class="cls-2" cx="269.92" cy="7.92" r="1.5"/><circle class="cls-1" cx="261.13" cy="8.62" r="2.2"/><circle class="cls-2" cx="306.95" cy="35.65" r="1.5"/><circle class="cls-1" cx="306.95" cy="44.7" r="2.2"/><circle class="cls-2" cx="306.66" cy="210.8" r="2.19"/><circle class="cls-1" cx="306.66" cy="223.71" r="2.19"/><circle class="cls-1" cx="306.66" cy="197.89" r="2.19"/><circle class="cls-2" cx="94.64" cy="9.2" r="2.19"/><circle class="cls-1" cx="107.73" cy="9.2" r="2.19"/><circle class="cls-1" cx="81.56" cy="9.2" r="2.19"/></g></g></svg>