<?xml version="1.0" encoding="UTF-8"?><svg id="_層_2" xmlns="http://www.w3.org/2000/svg" viewBox="0 0 247.52 256"><defs><style>.cls-1{fill:#dcdddd;}.cls-2{fill:none;stroke:#c9caca;stroke-miterlimit:10;stroke-width:4px;}</style></defs><g id="_層_7"><g><path class="cls-1" d="M229.15,69.03c.28,4.48,.18,6.95,.25,10.05,.31,15.01-1.62,29.93-1.58,44.92,0,3.1-2.28,4.26-4.43,5.46-9.33,5.2-19.65,7.14-30,8.84-6.38,1.05-12.7,2.62-19.22,2.71-2.66,.04-5.33,.09-7.98-.12-1.19-.09-3.02,.09-3.17-1.7-.12-1.48,1.49-1.48,2.52-1.9,5.68-2.33,11.38-4.64,17.04-7.01,7.69-3.23,15.24-6.73,21.6-12.3,1.96-1.72,3.85-3.5,5.5-6.31-5.07-.41-9.63-.69-14.16-1.19-1.37-.15-3.6,.3-3.86-1.51-.32-2.22,2.1-1.57,3.33-1.99,7.2-2.44,13.54-6.3,19.31-11.22,5.59-4.77,5.58-12.14,8.55-18.13,1.45-2.93,1.98-6.31,6.3-8.6Z"/><path class="cls-1" d="M186.96,14.56c-3.18,5.76-9.21,6.34-13.93,7.5-14.18,3.48-19.25,14.47-24.06,26.12-.46,1.1,.08,3.16-1.83,3-1.81-.15-1.29-2.12-1.4-3.26-.49-4.74-.75-9.5-1.13-14.73-4.6,2.49-7.45,6.25-10.16,10.12-7.23,10.32-10.52,22.5-15.9,33.7-.52,1.08-.3,3.14-2.15,2.71-1.45-.33-1.34-2.12-1.45-3.44-.78-9.23,1.09-18.2,2.76-27.17,1.82-9.8,3.77-19.57,8.33-28.6,1.9-3.77,4.28-5.52,8.86-5.55,12.31-.07,24.61-.99,36.92-1.28,4.87-.11,9.75,.55,15.15,.89Z"/><path class="cls-1" d="M236.95,34.89c2.6-9.6-9.8-22.62-20.4-24.68-2.28-.44-4.57-.82-6.86-1.18-1.84-.29-3.87-.52-4.21-2.76-.36-2.39,1.47-3.9,3.34-4.37,10.26-2.57,20.47-3.77,28.93,4.62,8.26,8.18,11.36,18.09,9,29.55-.3,1.44-.84,2.91-1.63,4.14-1.35,2.11-2.98,4.32-5.94,3.51-3.05-.84-2.38-3.57-2.39-5.83,0-.99,.1-1.99,.15-2.99Z"/><path class="cls-1" d="M185.85,38.07c-1.29-8.27,3.83-13.94,5.63-20.55,.43-1.57,2.22-2.71,4.07-1.96,2,.82,2.48,2.52,1.64,4.54-1.35,3.28-1.7,6.76-1.89,10.25-.75,13.23,9.25,23.97,22.6,24.39,2.8,.09,5.68-.63,8.4,.46,1.85,.74,3.98,1.6,3.78,4.01-.17,2.01-1.92,2.89-3.82,3.4-3.74,1.01-7.55,1.33-11.35,.81-10.85-1.5-19.59-6.84-26.41-15.27-2.51-3.1-2.91-6.98-2.64-10.09Z"/><path class="cls-1" d="M135.69,103.67c7.06-6.28,14.18-12.49,21.15-18.87,6.39-5.85,11.28-13.03,16.81-19.64,2.58-3.09,2.74-6.15,.72-9.53-1.63-2.74-2.6-5.77-3.06-8.9-.41-2.8-.5-5.68,2.86-7.79,1.08,4.8,1.93,9.41,3.61,13.84,1.7,4.5,4.24,5.43,8.31,3.89,1.54-.58,3.39-1.61,4.59-.49,1.4,1.31-.13,3.06-.68,4.55-1.2,3.25-.27,5.46,2.51,7.7,5.64,4.52,12.4,4.19,18.98,5.46-4.08,3.27-8.67,2.55-13.22,1.57-1.75-.38-3.51-1.07-5.08-1.95-6.87-3.87-13.17-2.05-19.09,2-11.12,7.61-21.48,16.22-31.86,24.8-1.89,1.57-3.77,3.08-6.58,3.36Z"/><path class="cls-1" d="M152.7,11.17c-14.77,0-29.55,.01-44.32-.01-2.47,0-4.66-.13-6.48,2.4-1.84,2.55-5.15,2.49-6.98,.22-2.15-2.66-4.55-2.87-7.42-2.78-1.26,.04-3.08,.37-3.21-1.44-.16-2.14,1.83-1.53,2.95-1.45,3.13,.21,5.53-.29,7.68-3.15,1.7-2.26,4.86-1.77,6.54,.46,1.82,2.43,3.98,2.46,6.52,2.45,19.13-.07,38.26-.08,57.39-.11,.67,0,1.33-.05,2-.02,1.28,.05,3.08-.3,3.15,1.52,.08,2.16-1.92,1.92-3.34,1.94-4.83,.07-9.65,.03-14.48,.03v-.06Z"/><path class="cls-1" d="M234.72,102.65c0,15.13,.02,30.25-.02,45.38,0,2.68-.09,5.04,2.52,7.02,2.23,1.69,2.5,4.92,.16,6.53-3.08,2.12-3.06,4.75-3.03,7.77,.01,1.02,.52,2.61-1.24,2.72-1.58,.11-1.81-1.22-1.74-2.44,.18-3.39-.15-6.3-3.13-8.84-1.77-1.5-1.77-4.74,.48-6.19,2.85-1.84,2.63-4.29,2.65-6.93,.12-18.6,.26-37.2,.39-55.8,0-1.33,.01-2.66,.1-3.99,.07-1.02,.33-2.1,1.6-2.13,1.59-.03,1.77,1.18,1.77,2.43,0,4.82,0,9.65,0,14.47h-.52Z"/><path class="cls-1" d="M232.11,256c-.43-7.73-.93-14.89-1.18-22.05-.16-4.48,.1-8.98,.11-13.47,0-1.46,.46-3.16-.94-4.2-2.42-1.81-1.94-3.57-.13-5.37,1.2-1.19,1.19-2.67,1.19-4.17,0-1.1,.44-2.21,1.54-2.18,1.14,.04,1.03,1.41,1.44,2.27,2.27,4.76,.43,9.34,.05,14.11-.79,9.92-.39,19.93-.56,29.91-.03,1.52,.85,3.29-1.52,5.15Z"/><path class="cls-1" d="M0,8.13c12.53,0,23.79,0,35.06,0,1.97,0,3.91,.21,5.43-1.62,.9-1.09,2.44-1.44,3.57-.36,1.7,1.63,3.59,2.2,5.87,2.02,.78-.06,1.77,.02,1.87,1.13,.1,1.02-.65,1.6-1.52,1.53-2.49-.2-4.48,.71-6.32,2.31-.78,.68-2.11,.92-2.71,.03-2.13-3.15-5.34-2.32-8.16-2.24-8.8,.24-17.57-.1-26.33-.71-1.88-.13-3.95,.35-6.77-2.09Z"/><path class="cls-1" d="M198.57,116.91c-11.68,9-24.92,14.67-39.29,17.89,12.78-6.64,25.99-12.37,39.29-17.89Z"/><path class="cls-1" d="M139.7,44.73c-5.99,12.95-11.98,25.9-18.14,39.24-1.93-5.55,11.25-35.1,18.14-39.24Z"/><path class="cls-1" d="M236.4,186.92c-3.09,4.29-1.98,9.18-2.37,13.87-.09,1.03-.57,2.01-1.77,1.91-1.08-.09-1-1.14-1.02-1.95-.13-4.87,.91-9.92-2.56-14.23-.36-.45-.24-1.9,.19-2.27,2.24-1.96,2.64-4.41,2.44-7.16-.06-.86,.28-1.72,1.27-1.83,.96-.1,1.65,.63,1.61,1.47-.15,3.5,.71,6.8,2.21,10.19Z"/><path class="cls-1" d="M53.37,10.55c.31-2.08,1.46-2.29,2.66-2.33,4.25-.15,8.37-.17,12.62-1.58,3.62-1.2,7.46,2.2,11.53,1.79,.26-.03,.76,.64,.86,1.06,.18,.78-.46,1.38-1.08,1.33-3.29-.26-6.11,.71-8.6,2.83-.2,.17-.76,.17-.96,.01-5.04-4.05-11.34-2.23-17.02-3.1Z"/><path class="cls-1" d="M71.09,21.25c.79-2.52,2.13-2.46,3.2-2.48,7.63-.19,15.26-.32,22.9-.37,1.18,0,3.07-.28,2.86,1.73-.17,1.59-1.82,1.09-2.87,1.1-8.55,.04-17.09,.02-26.08,.02Z"/><path class="cls-1" d="M222.03,184.44c-1.61-5.38-.94-10.79-.95-16.16,0-3.15,.08-6.3,.17-9.45,.03-1.09-.19-2.63,1.5-2.52,1.16,.07,1.34,1.34,1.32,2.35-.06,3.81-.06,7.63-.29,11.43-.28,4.8,.29,9.7-1.77,14.36Z"/><path class="cls-1" d="M182.56,10.83c-.3,0-.84,.13-1.28-.02-2.09-.69-6.14,1.68-6.01-1.85,.11-2.92,4.09-1.04,6.31-1.38,1.77-.28,3.64-.07,5.45,.07,1.27,.1,3.05,.12,2.84,1.93-.18,1.52-1.69,1.78-3.14,1.6-1.31-.16-2.64-.22-4.16-.34Z"/><path class="cls-1" d="M232.25,73.32c.72-2.01-1.78-6.49,1.3-6.49,3.32,0,1.33,4.57,1.79,7.1,.26,1.44,.15,2.97,.03,4.44-.09,1.15,.6,3.09-1.53,2.9-1.65-.15-1.62-1.79-1.6-3.14,.02-1.48,0-2.97,0-4.8Z"/><path class="cls-1" d="M224.42,145.36c-.17,1.03,.23,2.54-1.56,2.35-1.17-.13-1.38-1.23-1.34-2.23,.04-1.15,.23-2.61,1.52-2.68,1.6-.09,1.19,1.54,1.39,2.57Z"/><path class="cls-1" d="M113.72,19.47c-1.85,1.49-3.31,1.59-4.81,.58-.17-.12-.12-1.05,.1-1.19,1.39-.89,2.79-.67,4.71,.61Z"/><path class="cls-1" d="M194.12,101.47c12.59,.63,25.83-14.6,25.69-29.66-3.56,1.68-4.26,5.23-4.97,8.12-2.4,9.75-8.4,15.7-17.72,18.78-1.12,.37-2.7,.58-3.01,2.76Z"/><path class="cls-1" d="M184.77,25.54c-14.92-1.49-31.17,11.26-31.37,24.1,2.69-.49,2.93-3.02,3.73-4.69,3.42-7.13,7.75-12.71,16.33-14.15,3.71-.62,7.64-2,11.31-5.26Z"/><circle class="cls-2" cx="217.6" cy="32.34" r="6.91"/></g></g></svg>