<svg id="圖層_1" data-name="圖層 1" xmlns="http://www.w3.org/2000/svg" viewBox="0 0 1923.05 1238.42"><defs><style>.cls-1{fill:#fff;}</style></defs><title>LogoSVG03 white</title><g id="圖層_6" data-name="圖層 6"><path class="cls-1" d="M658.64,818.76q-6,32.24-13.11,52a146.44,146.44,0,0,1-18.16,35.35,98.14,98.14,0,0,1-42.16,33.79q-25.74,10.92-63.32,10.92-36,0-57.8-11.61t-32.85-36.57q-6.32-14.21-8.53-36.74t-2.21-68.63v-1.55S399.66,807,393.93,806.24s-1.79-8.54.25-10.89c5.38-6.23,26.33-19.88,26.33-21V597.27q0-36.39,3.79-53.72t14.53-28.77a51.86,51.86,0,0,1,19.58-13.17q11.05-4.16,28.43-5.2v-8H285v8q17.06.7,27.95,4.85a55.16,55.16,0,0,1,19.74,13.17q10.74,11.1,14.69,28.6t3.95,54.24V852.72q0,35.35-3.63,52.51t-13.42,28.25Q316.92,953.23,285,953.24v8.32H662.13l4.11-142.11Z" transform="translate(-67.65 -351.62)"/><path class="cls-1" d="M814.1,710.71c-.24-7.92.38,22.1.38,31.7V896.09q0,17.31,1.52,27.32t4.94,16.06a31.9,31.9,0,0,0,12.73,12.41q7.79,4.07,20.71,4.9v4.8H733v-4.8q11-.63,17.77-3.44a32.26,32.26,0,0,0,11.88-8.65,35,35,0,0,0,8.17-16.89q2.09-10.21,2.09-31.7V742.4c0-14.32-.22-39.62-.21-31.7C772.69,735.78,814.91,737.13,814.1,710.71Z" transform="translate(-67.65 -351.62)"/><path class="cls-1" d="M1110.89,676.93l2.28,90.71-4.37.42q-13.11-46.29-33.63-68.92t-49.59-22.62q-22.62,0-38.86,10.11t-30.31,32.84q-28.5,46.5-28.5,106.35a206,206,0,0,0,6.84,53.9,148.13,148.13,0,0,0,20,44.73Q980.16,962,1016.83,962a58.7,58.7,0,0,0,48.07-25q11.2-16.26,11.21-38.58,0-20.64-10.17-29.82t-33.54-9.17v-4.8h121.22v4.8q-16.72,1.67-23.47,5.11t-10,11.78q-3.62,9.18-3.61,36.49,0,7.5.76,23.35l.38,4.8q-7.23-2.92-10.64-2.92-4.18,0-10.64,4.8A121.88,121.88,0,0,1,1058,962a157.21,157.21,0,0,1-46.17,6.67q-33.45,0-60.33-12.51a109.22,109.22,0,0,1-43.61-35.87q-12.54-17.52-19.29-41.7a190,190,0,0,1-6.75-51.3q0-37.32,12.16-69.44t34.2-53a128.36,128.36,0,0,1,41.61-26.06,135.9,135.9,0,0,1,49.78-9.17,120.42,120.42,0,0,1,28.22,3.13A138.1,138.1,0,0,1,1075.51,683l11.21,5.63a18.83,18.83,0,0,0,7.6,1.88q7.61,0,11.59-13.55h5Z" transform="translate(-67.65 -351.62)"/><path class="cls-1" d="M1250.28,823.58l123.31-45.91a12.8,12.8,0,0,0,8.34-12.06l-.09-23.21q0-21.48-2.18-31.7a36.54,36.54,0,0,0-8.08-16.89,31.91,31.91,0,0,0-12.07-8.76,53.72,53.72,0,0,0-15.49-3.18,2.48,2.48,0,0,1-2.28-2.47h0a2.48,2.48,0,0,1,2.48-2.48h116.45a2.48,2.48,0,0,1,2.48,2.48h0a2.48,2.48,0,0,1-2.28,2.47,53.37,53.37,0,0,0-15.3,3.18,31.91,31.91,0,0,0-12.07,8.76,36.58,36.58,0,0,0-8.08,17q-2.19,10.32-2.19,31.59V896.07q0,21.27,2.19,31.49a37.92,37.92,0,0,0,8.08,17.1,33.79,33.79,0,0,0,12.07,8.65,50.94,50.94,0,0,0,15.3,3.28,2.48,2.48,0,0,1,2.27,2.47h0a2.48,2.48,0,0,1-2.48,2.48H1344.21a2.48,2.48,0,0,1-2.48-2.48h0a2.48,2.48,0,0,1,2.28-2.47,51.84,51.84,0,0,0,15.49-3.28,34.09,34.09,0,0,0,12.07-8.65,36.64,36.64,0,0,0,8.08-16.89q2.17-10.21,2.18-31.7l.12-84.18a2.48,2.48,0,0,0-3.39-2.31l-120.72,47.33-9.35,3.66a2.48,2.48,0,0,0-1.58,2.31v33.19q0,21.27,2.18,31.59a36.53,36.53,0,0,0,8.08,17,32.15,32.15,0,0,0,11.88,8.65,51.53,51.53,0,0,0,15.49,3.28,2.48,2.48,0,0,1,2.28,2.47h0a2.48,2.48,0,0,1-2.48,2.48H1167.9a2.48,2.48,0,0,1-2.48-2.48h0a2.48,2.48,0,0,1,2.28-2.47,51.84,51.84,0,0,0,15.49-3.28,32.26,32.26,0,0,0,11.88-8.65,35,35,0,0,0,8.17-16.89q2.09-10.21,2.09-31.7V742.4q0-21.48-2.09-31.7a35,35,0,0,0-8.17-16.89,30.21,30.21,0,0,0-12-8.76,54.51,54.51,0,0,0-15.4-3.18,2.48,2.48,0,0,1-2.28-2.47h0a2.48,2.48,0,0,1,2.48-2.48h116.45a2.48,2.48,0,0,1,2.48,2.48h0a2.48,2.48,0,0,1-2.28,2.47,53.37,53.37,0,0,0-15.3,3.18,31.91,31.91,0,0,0-12.07,8.76,36.58,36.58,0,0,0-8.08,17q-2.19,10.32-2.18,31.59v78.85A2.49,2.49,0,0,0,1250.28,823.58Z" transform="translate(-67.65 -351.62)"/><path class="cls-1" d="M1584.58,683.39q-12,0-25.65.83c-19.51,1.11-47.84,4.49-70,10.47-10.89,2.93-35.26-70.91-29.12-68.44,65,26.16,168.19,47.13,234-9.81,4.72-4.08,6,76.88-8,72.57q-17.67-5.62-59.85-5.63V896.07q0,21.27,2.18,31.59a36.53,36.53,0,0,0,8.08,17,31.83,31.83,0,0,0,12.07,8.76q6.74,2.72,17.58,3.34v4.8H1544.49v-4.8q11-.63,17.77-3.34a31.8,31.8,0,0,0,12.07-8.76,36.64,36.64,0,0,0,8.08-16.89q2.19-10.21,2.19-31.7V683.39Z" transform="translate(-67.65 -351.62)"/><path class="cls-1" d="M1131.89,1560.26l.78-86.12,6,.21q11,32.87,26.15,51.8,28.5,34.95,71.66,34.95,30.07,0,49.69-16.06t19.61-40.66a63.1,63.1,0,0,0-16-40.67q-7.59-8.13-21.31-15.64t-42-19q-24.86-10-38-16.89a108.59,108.59,0,0,1-21.31-14q-22.5-19.61-22.49-47.75a68.73,68.73,0,0,1,8.76-33.36,83.35,83.35,0,0,1,24.45-27.52q27.72-20.43,65.64-20.44c8.19,0,29.4-3.86,36.37-2.54s-19.94,9.21-33.34,9.21q-29.25,0-46.21,15.86a47.43,47.43,0,0,0-11.1,15.24,41.47,41.47,0,0,0-4,17.53q0,34.86,56.15,56.15l36.82,14.19q42.57,16.08,61.37,35.48Q1361,1452,1361,1480.79a74.53,74.53,0,0,1-9.68,36.61q-13.61,24.35-40.8,37.55t-64.07,13.21a199.2,199.2,0,0,1-64.86-10.63q-16.21-5.62-19.35-6.46a27.8,27.8,0,0,0-7.06-.83q-12.56,0-17.26,10h-6Z" transform="translate(-67.65 -351.62)"/><path class="cls-1" d="M1493.88,1282.93q-12,0-25.65.83c-19.51,1.11-81.32-7.3-81.32-7.3H1644l3.42,76.94-4.37.42q-5.13-29-16-43.89t-31.83-21.37q-17.67-5.62-59.85-5.63v212.69q0,21.27,2.18,31.59a36.53,36.53,0,0,0,8.08,17,31.83,31.83,0,0,0,12.07,8.76q6.75,2.71,17.58,3.34v4.8H1453.8v-4.8q11-.63,17.77-3.34a31.8,31.8,0,0,0,12.07-8.76,36.64,36.64,0,0,0,8.08-16.89q2.17-10.21,2.18-31.7V1282.93Z" transform="translate(-67.65 -351.62)"/><path class="cls-1" d="M483.62,1499.59s1.89,1.57-16.16,20.6c-16.1,17-53.69,12.07-69.89,5.38-16.67-6.89-33-21.22,5.84-71.92s47.32-43.94,47.32-43.94-4.63-3.73-7.38-3.66-3.74-.91-11.74,2.9-32.84,24.21-49.16,40.8-47.17,48-48.72,55.72-3.63,7.77-3.11,19.7,10.11,31.1,22.29,33.43,76.71,2.5,76.71,2.5,40.95-7.17,53.39-28.94S483.62,1499.59,483.62,1499.59Z" transform="translate(-67.65 -351.62)"/><path class="cls-1" d="M1138.68,1474.47c-6.81-16.45-20.33-31.26-44.08-48s-55.84-32.3-82-17.46c-25.33,14.36-31.16,63.31-17.32,86.39,17.94,29.9,91.44,22.58,108.24,47.32s-43.31,45.08-43.31,45.08l37.12,2.21s22.5,2.3,27.36-18.47-46.84-56.81-71.22-61.41c-39.62-7.47-32.3-60-19.16-68.14,65.54-40.74,94.84,91.36,96.7,112C1134,1587.51,1146.32,1492.92,1138.68,1474.47Z" transform="translate(-67.65 -351.62)"/><path class="cls-1" d="M1595.71,679.85c-8.86-1,59.74-34.11,98.11-63.4,35.78-27.32,64.44-64.85,69.13-87.05,13.34-63.11-57.94-89.27-57.94-89.27s35.59-18.07,86.63,18.75,35.91,103.7,25.41,125.17c-9.73,19.91-25.41,28.77-42.91,38.26-21,11.4,29.72-7.11,29.72-7.11l48.45-32.3s14.86,27.13,0,51-33.6,34.89-74.3,39.41S1713.25,679,1718.07,685s18.78,20.06,22.61,27.94c2.22,4.56-23.63-2.45-45.37-11.63C1664.48,688.32,1643.28,685.12,1595.71,679.85Z" transform="translate(-67.65 -351.62)"/><path class="cls-1" d="M802,512.65c-33.62-15.69-120.45-161-120.45-161s64.07,157,57.28,193.51c-5.88,31.56-143.87,113.14-143.87,113.14s144.54-72,172.83-56.84c43.11,23.14,286.62,470.46,286.62,470.46S820,618,830.91,568.94c7-31.34,122.18-97.56,122.18-97.56S831.06,526.22,802,512.65Z" transform="translate(-67.65 -351.62)"/><path class="cls-1" d="M1310.59,1574" transform="translate(-67.65 -351.62)"/><polygon class="cls-1" points="986.71 720.27 1165.31 1054.37 1073.49 871.26 986.71 720.27"/><path class="cls-1" d="M640.68,1089.43s59.17,5.27,175.48-4.86c107.24-9.34,213.17-38.5,213.17-38.5l-21.07,17s-222.08,37.69-284.8,54.83C694.4,1125.85,640.68,1089.43,640.68,1089.43Z" transform="translate(-67.65 -351.62)"/><path class="cls-1" d="M1089,1031.82s457.09-109.19,641.29-108.28,219.16,76.61,207.68,122.53c-21.74,86.92-295.74,190.51-293.22,247.38,1.2,27.09-9.71-16.85-127.58-11.47-12.46.57-109.62,6.16-138.07,4-45.47-3.5-53.18-9.45-89.31-10.81-12.84-.48-41.1,2.91-52,5.38-34,7.68-45.88,20.36-52.67,35.87-13.65,31.17,1.71-30.68,1.71-30.68s20.43-19.35,69.17-24.22c88.38-8.82,133.07,16.92,359.79-28.8,53.35-10.76,336-153.27,267.76-224.51-81.74-85.37-281.11-33.48-478.28-21.63-190.85,11.47-270.08,39-270.08,39Z" transform="translate(-67.65 -351.62)"/><path class="cls-1" d="M772.63,674.48S746,694.91,706.69,687.19c-45.34-8.92-61.1-30.44-73.48-50.15s-24.8-66-6.59-117.94c15.91-45.39,35.79-43.27,40-48.69,1.06-1.35,5.55-5.89,5.55-5.89s-20.39,5.29-40.06,28.62c-6.37,7.55-20.14,20.79-28.38,61.27-6.14,30.16,4.7,70.65,17.15,89.9,13.61,21,43.26,49.07,91.75,50.65,18.82.61,27.84-1.57,39.92-4.43a119.67,119.67,0,0,0,35.37-15Z" transform="translate(-67.65 -351.62)"/><path class="cls-1" d="M265.14,1025.58C77.55,948.53,664.9,618.72,664.9,618.72s-602.18,333-597.22,418.61,419.66,13.16,418.51,185.59c-.71,106.23,50.81-134.83,50.81-134.83S441.44,1098,265.14,1025.58Zm-157.69,0c-.65-39.36,139-133.52,139-133.52S162.94,980.78,174,1020.87c10.28,37.3,120.43,54.33,120.43,54.33S108.09,1065,107.45,1025.58Z" transform="translate(-67.65 -351.62)"/><path class="cls-1" d="M1990.7,1066.21s-1-84.86-68.11-115c-68.31-30.68-164.74-26.91-195.67-23.54-67.1,7.32,138.14,17.23,187.68,39.49S1990.7,1066.21,1990.7,1066.21Z" transform="translate(-67.65 -351.62)"/><path class="cls-1" d="M1165.42,1041.29c5.33,0,278.64-68.88,278.64-68.88l70.4,4.54-308.9,64.34Z" transform="translate(-67.65 -351.62)"/><polygon class="cls-1" points="643.55 787.57 778.22 769.91 815.21 771.62 668.03 806.72 643.55 787.57"/><path class="cls-1" d="M410.14,802.13c3.47-.77,93-62.93,93-62.93h8.88L397.78,825.68Z" transform="translate(-67.65 -351.62)"/><path class="cls-1" d="M1276.74,851.37c1.66,5.74,35.25-3.84,35.25-3.84l-1.73,3.74s-16.36,6.43-30.57,12c-18.83,7.37-56,22.48-56,22.48l20.69-37.84,37.54-.43S1276.33,850,1276.74,851.37Z" transform="translate(-67.65 -351.62)"/><path class="cls-1" d="M827.36,1269.47l219.3-54.3a1.14,1.14,0,0,1,1,2l-20.52,15.28a1.17,1.17,0,0,1-.27.15c-65.38,27.91-99.8,40.64-106.27,44.51-8.17,4.88-18.78,13.56-72.86,4.28-4.81-.82-15.77-7-20.64-9.85A1.14,1.14,0,0,1,827.36,1269.47Z" transform="translate(-67.65 -351.62)"/><path class="cls-1" d="M1038.42,1276.47v4.8q10.83.63,17.58,3.34a32,32,0,0,1,12.07,8.76,36.64,36.64,0,0,1,8.08,16.89q2.17,10.21,2.18,31.69v116.56q0,31.9-.76,40.45-1.14,13.14-4.66,21.69A47.91,47.91,0,0,1,1062,1536.5q-12,11.68-29.93,18.25a108.89,108.89,0,0,1-37.72,6.57q-20.34,0-33.73-7.4T938.08,1530a69.83,69.83,0,0,1-8.08-23.67q-2-12.82-2-41.6v-118q0-25.44,2-35.87c1-5-1.9-10.51,7.23-25.63-12.29,6.31-26.38,11.77-33.24,8.13-7.4-3.92,19-17.52,19-17.52l31.43-13.27.49-.57c3.48-4-108.38,14.46-108.38,14.46v4.8q11,.63,17.77,3.34a30.43,30.43,0,0,1,11.88,8.76,35,35,0,0,1,8.17,16.89q2.08,10.21,2.09,31.69v126.57q0,24,1.14,33.15,3.23,25.86,19.76,41.7,25.46,24.81,79.23,24.81,51.5,0,79.23-26.27,12.15-11.46,16.25-25.34t4.09-43.06V1341.94q0-21.27,2.18-31.59a36.58,36.58,0,0,1,8.08-17c3.54-4,4.13-5.73,9.24-12.67C1108.49,1276.78,1038.42,1276.47,1038.42,1276.47Z" transform="translate(-67.65 -351.62)"/><path class="cls-1" d="M1239.52,1218.5c1.22-.3-13.75,6.58-14.76,7.33l-8.94,6.66a1.17,1.17,0,0,1-.27.15c-65.38,27.91-99.8,40.64-106.27,44.51-8.17,4.88-.57,16.23-54.65,6.95-4.81-.82-32.31-1.89-37.18-4.73C1016.56,1278.84,1239.52,1218.5,1239.52,1218.5Z" transform="translate(-67.65 -351.62)"/><path class="cls-1" d="M545.56,1098.72h33q35.4,0,58.27,8,40.71,14.47,70.38,58.34l52.21-12.24,1,.21a197.28,197.28,0,0,0-21-22q-40-36-97.48-41.59-13.62-1.38-63.44-1.39H428.75v8q25.86,1.74,39.21,15.94,10.62,11.44,14.29,29.12t3.68,55.8V1327l59.63-16.21Z" transform="translate(-67.65 -351.62)"/><path class="cls-1" d="M798.79,1220.9a254.31,254.31,0,0,0-28.5-54.76l-51,19.15a277.82,277.82,0,0,1,23.09,60,365.66,365.66,0,0,1,11.71,93.58,349.59,349.59,0,0,1-9.67,83.71q-9.68,39.34-28.18,69.84-18.78,31.54-42.61,45.58t-57.32,14q-39.21,0-56.64-27-8.18-12.48-11.16-30.16t-3-51.64V1333l-59.63,20.64v98.61q0,35.35-3.13,52.51T471.22,1533q-7.62,10.07-17.15,14.56t-25.32,5.55v8H630a298.47,298.47,0,0,0,68.89-8q45.2-10.74,75.42-50.26,21.51-28.08,33.63-70.53T820,1342.05Q820,1276.53,798.79,1220.9Z" transform="translate(-67.65 -351.62)"/><polygon class="cls-1" points="510.53 931.25 418.33 954.98 418.33 980.13 591.33 922.5 510.53 931.25"/><path class="cls-1" d="M1753.57,1432.06c-4.42-4.16-7.19-18-8.55-26.7-.16-1-2.22-1.07-2.43,0-1.85,8.72-5.37,22.51-9.84,26.62-3.44,3.17-15.51,5.07-24.76,6.1-1.3.14-1.25,1.51.06,1.61,9.32.74,21.47,2.34,24.63,5.68,4.76,5,7.66,17.48,9.24,26.87.18,1,2.3,1,2.42,0,1.09-9.45,3.57-21.94,9.15-26.73,4.14-3.55,16.41-5.19,23.73-5.88.79-.07.8-.89,0-1C1769.87,1437.73,1757.5,1435.77,1753.57,1432.06Z" transform="translate(-67.65 -351.62)"/><path class="cls-1" d="M1753.57,1520.15c-4.42-4.16-7.19-18-8.55-26.7-.16-1-2.22-1.07-2.43,0-1.85,8.72-5.37,22.51-9.84,26.62-3.44,3.17-15.51,5.07-24.76,6.1-1.3.14-1.25,1.51.06,1.61,9.32.74,21.47,2.34,24.63,5.68,4.76,5,7.66,17.48,9.24,26.87.18,1,2.3,1,2.42,0,1.09-9.45,3.57-21.94,9.15-26.73,4.14-3.55,16.41-5.19,23.73-5.88.79-.07.8-.89,0-1C1769.87,1525.82,1757.5,1523.86,1753.57,1520.15Z" transform="translate(-67.65 -351.62)"/></g></svg>