<svg id="圖層_2" data-name="圖層 2" xmlns="http://www.w3.org/2000/svg" viewBox="0 0 1923.04 1238.41"><title>LogoSVG04 black</title><path d="M658.48,817.17q-6,32.24-13.1,52a147.06,147.06,0,0,1-18.16,35.36,98.24,98.24,0,0,1-42.17,33.79q-25.74,10.92-63.32,10.92-36,0-57.8-11.61t-32.85-36.57q-6.31-14.2-8.52-36.74t-2.22-68.63v-1.55s-20.84,11.34-26.57,10.54-1.78-8.54.25-10.9c5.38-6.23,26.32-19.88,26.32-21V595.69q0-36.39,3.79-53.72t14.53-28.77A51.82,51.82,0,0,1,458.25,500q11-4.17,28.42-5.2v-8H284.85v8q17.06.69,27.95,4.85a54.86,54.86,0,0,1,19.74,13.17q10.74,11.1,14.69,28.6t3.95,54.24V851.14q0,35.36-3.64,52.51T334.12,931.9q-17.37,19.76-49.27,19.76V960H662l4.1-142.11Z" transform="translate(-67.5 -350.03)"/><path d="M813.94,709.12c-.24-7.92.38,22.11.38,31.7V894.5q0,17.31,1.52,27.32t4.94,16a31.9,31.9,0,0,0,12.73,12.41q7.79,4.07,20.71,4.9V960H732.81v-4.8q11-.63,17.76-3.44a32.18,32.18,0,0,0,11.88-8.66,34.88,34.88,0,0,0,8.17-16.89q2.08-10.2,2.09-31.69V740.82c0-14.32-.22-39.62-.21-31.7C772.54,734.19,814.76,735.55,813.94,709.12Z" transform="translate(-67.5 -350.03)"/><path d="M1110.73,675.34l2.28,90.71-4.37.42q-13.11-46.29-33.63-68.92t-49.59-22.62q-22.62,0-38.86,10.11t-30.3,32.84q-28.5,46.5-28.5,106.35a206,206,0,0,0,6.84,53.9,148.13,148.13,0,0,0,19.95,44.73q25.46,37.53,62.13,37.53a58.7,58.7,0,0,0,48.07-25q11.2-16.26,11.21-38.58,0-20.64-10.16-29.82t-33.54-9.17V853h121.23v4.8q-16.73,1.66-23.47,5.11t-10,11.78q-3.6,9.18-3.61,36.49,0,7.52.76,23.36l.38,4.79q-7.21-2.91-10.64-2.92-4.17,0-10.64,4.8a122,122,0,0,1-38.38,19.18,157.21,157.21,0,0,1-46.17,6.67q-33.45,0-60.33-12.51a109.25,109.25,0,0,1-43.6-35.86Q895.26,901.17,888.52,877a190,190,0,0,1-6.75-51.29q0-37.34,12.16-69.44t34.21-53a128.55,128.55,0,0,1,41.61-26.07,135.86,135.86,0,0,1,49.78-9.17,121,121,0,0,1,28.22,3.12,138.42,138.42,0,0,1,27.64,10.22L1086.6,687a18.83,18.83,0,0,0,7.6,1.88q7.6,0,11.59-13.56Z" transform="translate(-67.5 -350.03)"/><path d="M1250.13,822l123.3-45.91a12.82,12.82,0,0,0,8.35-12.06l-.09-23.21q0-21.48-2.19-31.7a36.62,36.62,0,0,0-8.07-16.89,31.85,31.85,0,0,0-12.07-8.75,53.7,53.7,0,0,0-15.49-3.19,2.48,2.48,0,0,1-2.28-2.47h0a2.48,2.48,0,0,1,2.49-2.48h116.45a2.48,2.48,0,0,1,2.48,2.48h0a2.48,2.48,0,0,1-2.28,2.47,52.85,52.85,0,0,0-15.3,3.18,31.74,31.74,0,0,0-12.06,8.75,36.61,36.61,0,0,0-8.08,17q-2.19,10.32-2.18,31.59V894.5q0,21.27,2.18,31.49a37.93,37.93,0,0,0,8.08,17.09,33.88,33.88,0,0,0,12.06,8.66,51.32,51.32,0,0,0,15.31,3.28,2.48,2.48,0,0,1,2.27,2.47h0a2.49,2.49,0,0,1-2.48,2.49H1344.08a2.49,2.49,0,0,1-2.49-2.49h0a2.48,2.48,0,0,1,2.28-2.47,51.53,51.53,0,0,0,15.49-3.28,34,34,0,0,0,12.07-8.66,36.53,36.53,0,0,0,8.07-16.89q2.19-10.2,2.19-31.69l.12-84.18a2.49,2.49,0,0,0-3.39-2.32L1257.7,855.34l-9.34,3.66a2.49,2.49,0,0,0-1.58,2.31V894.5q0,21.27,2.18,31.59a36.53,36.53,0,0,0,8.08,17,32.18,32.18,0,0,0,11.88,8.66,51.46,51.46,0,0,0,15.49,3.28,2.48,2.48,0,0,1,2.27,2.47h0a2.49,2.49,0,0,1-2.48,2.49H1167.75a2.49,2.49,0,0,1-2.48-2.49h0a2.48,2.48,0,0,1,2.27-2.47,51.53,51.53,0,0,0,15.49-3.28,32.18,32.18,0,0,0,11.88-8.66,34.88,34.88,0,0,0,8.17-16.89q2.09-10.2,2.09-31.69V740.82q0-21.48-2.09-31.7a35,35,0,0,0-8.17-16.89,30.08,30.08,0,0,0-12-8.75,53.9,53.9,0,0,0-15.4-3.18,2.48,2.48,0,0,1-2.27-2.47h0a2.48,2.48,0,0,1,2.48-2.48H1284.2a2.48,2.48,0,0,1,2.48,2.48h0a2.48,2.48,0,0,1-2.27,2.47,52.7,52.7,0,0,0-15.3,3.18,31.69,31.69,0,0,0-12.07,8.75,36.61,36.61,0,0,0-8.08,17q-2.18,10.32-2.18,31.59v78.85A2.49,2.49,0,0,0,1250.13,822Z" transform="translate(-67.5 -350.03)"/><path d="M1584.42,681.81q-12,0-25.65.83c-19.51,1.12-47.84,4.49-70,10.47-10.89,2.93-35.26-70.91-29.12-68.44,65,26.16,168.19,47.13,234.05-9.81,4.72-4.08,6,76.89-8,72.58q-17.67-5.64-59.85-5.63V894.5q0,21.27,2.18,31.59a36.53,36.53,0,0,0,8.08,17,31.59,31.59,0,0,0,12.06,8.76q6.75,2.71,17.58,3.34V960H1544.33v-4.8q11-.63,17.77-3.34a31.66,31.66,0,0,0,12.06-8.76,36.44,36.44,0,0,0,8.08-16.89q2.17-10.2,2.18-31.69Z" transform="translate(-67.5 -350.03)"/><path d="M1131.73,1558.68l.78-86.12,6,.21q11,32.87,26.15,51.8,28.5,35,71.66,34.94,30.08,0,49.69-16t19.62-40.66a63.1,63.1,0,0,0-16-40.67q-7.59-8.13-21.31-15.63t-42-19q-24.84-10-38.05-16.89a108.59,108.59,0,0,1-21.31-14q-22.5-19.61-22.5-47.75a68.7,68.7,0,0,1,8.77-33.37,83.44,83.44,0,0,1,24.45-27.52q27.72-20.43,65.64-20.44c8.2,0,29.4-3.86,36.37-2.54s-19.94,9.22-33.34,9.22q-29.23,0-46.2,15.86a47.39,47.39,0,0,0-11.1,15.24,41.52,41.52,0,0,0-4.05,17.53q0,34.86,56.15,56.15l36.82,14.2q42.56,16.07,61.37,35.48,21.4,21.71,21.41,50.51a74.5,74.5,0,0,1-9.68,36.61q-13.61,24.35-40.8,37.55t-64.07,13.21a199.2,199.2,0,0,1-64.86-10.63q-16.22-5.62-19.35-6.47a27.8,27.8,0,0,0-7.06-.83q-12.55,0-17.26,10Z" transform="translate(-67.5 -350.03)"/><path d="M1493.73,1281.35q-12,0-25.65.83c-19.51,1.11-81.33-7.3-81.33-7.3h257.08l3.42,76.95-4.37.41q-5.13-29-16.05-43.89T1595,1287q-17.67-5.64-59.85-5.63V1494q0,21.27,2.18,31.59a36.58,36.58,0,0,0,8.08,17,31.66,31.66,0,0,0,12.06,8.76q6.75,2.71,17.58,3.34v4.79H1453.64v-4.79q11-.63,17.76-3.34a31.69,31.69,0,0,0,12.07-8.76,36.62,36.62,0,0,0,8.07-16.89q2.19-10.21,2.19-31.69Z" transform="translate(-67.5 -350.03)"/><path d="M483.46,1498s1.9,1.57-16.15,20.6c-16.11,17-53.69,12.07-69.89,5.38-16.67-6.88-33-21.22,5.84-71.92s47.31-43.93,47.31-43.93-4.63-3.74-7.38-3.66-3.73-.92-11.74,2.9-32.84,24.21-49.16,40.79-47.17,47.95-48.73,55.72-3.62,7.78-3.11,19.7,10.11,31.1,22.29,33.43,76.71,2.5,76.71,2.5,40.95-7.16,53.39-28.93S483.46,1498,483.46,1498Z" transform="translate(-67.5 -350.03)"/><path d="M1138.53,1472.88c-6.81-16.45-20.33-31.26-44.08-48.05s-55.85-32.31-82-17.46c-25.33,14.36-31.16,63.31-17.32,86.39,17.94,29.89,91.45,22.57,108.24,47.31s-43.31,45.08-43.31,45.08l37.13,2.21s22.5,2.31,27.36-18.46-46.85-56.82-71.22-61.41c-39.63-7.47-32.31-60-19.16-68.14,65.54-40.74,94.84,91.36,96.7,112.05C1133.85,1585.93,1146.17,1491.33,1138.53,1472.88Z" transform="translate(-67.5 -350.03)"/><path d="M1595.55,678.27c-8.86-1,59.75-34.12,98.11-63.41,35.78-27.31,64.44-64.85,69.13-87.05,13.34-63.11-57.94-89.27-57.94-89.27s35.58-18.07,86.62,18.75,35.91,103.7,25.41,125.18c-9.73,19.9-25.41,28.77-42.91,38.26-21,11.4,29.72-7.11,29.72-7.11l48.46-32.3s14.86,27.14,0,51-33.6,34.89-74.3,39.41-64.76,5.63-59.93,11.66,18.77,20.06,22.61,27.94c2.22,4.56-23.64-2.45-45.37-11.62C1664.32,686.74,1643.13,683.53,1595.55,678.27Z" transform="translate(-67.5 -350.03)"/><path d="M801.81,511.06c-33.63-15.69-120.45-161-120.45-161s64.07,157,57.28,193.52c-5.88,31.56-143.88,113.13-143.88,113.13s144.54-72,172.83-56.84C810.7,623,1054.21,1070.3,1054.21,1070.3S819.86,616.45,830.76,567.36c7-31.35,122.17-97.56,122.17-97.56S830.9,524.64,801.81,511.06Z" transform="translate(-67.5 -350.03)"/><path d="M1310.44,1572.42" transform="translate(-67.5 -350.03)"/><polygon points="986.71 720.27 1165.31 1054.37 1073.49 871.26 986.71 720.27"/><path d="M640.53,1087.84S699.7,1093.11,816,1083c107.23-9.34,213.16-38.5,213.16-38.5l-21.07,17S786,1099.19,723.3,1116.33C694.25,1124.27,640.53,1087.84,640.53,1087.84Z" transform="translate(-67.5 -350.03)"/><path d="M1088.84,1030.23S1545.92,921,1730.13,922s219.16,76.61,207.67,122.53c-21.74,86.92-295.74,190.51-293.21,247.38,1.2,27.09-9.71-16.85-127.59-11.47-12.46.57-109.62,6.15-138.06,4-45.47-3.5-53.19-9.44-89.31-10.8-12.84-.49-41.11,2.9-52.05,5.38-34,7.67-45.88,20.36-52.67,35.87-13.66,31.17,1.71-30.68,1.71-30.68s20.43-19.35,69.17-24.22c88.38-8.82,133.07,16.92,359.79-28.8,53.35-10.76,336-153.27,267.76-224.51-81.73-85.37-281.11-33.48-478.27-21.63-190.85,11.47-270.09,39-270.09,39Z" transform="translate(-67.5 -350.03)"/><path d="M772.48,672.9s-26.68,20.43-66,12.71c-45.34-8.91-61.1-30.44-73.48-50.15s-24.8-66-6.59-117.94c15.9-45.39,35.79-43.27,40-48.69,1.06-1.35,5.55-5.9,5.55-5.9s-20.39,5.29-40.06,28.63c-6.37,7.55-20.14,20.78-28.38,61.26-6.14,30.16,4.7,70.65,17.14,89.9,13.61,21,43.27,49.07,91.76,50.65,18.82.61,27.84-1.57,39.92-4.43a120.11,120.11,0,0,0,35.38-15Z" transform="translate(-67.5 -350.03)"/><path d="M265,1024C77.4,946.94,664.75,617.14,664.75,617.14s-602.19,333-597.22,418.61,419.66,13.16,418.5,185.59c-.71,106.23,50.81-134.83,50.81-134.83S441.28,1096.42,265,1024Zm-157.69,0c-.64-39.36,139-133.53,139-133.53s-83.46,88.72-72.41,128.81c10.28,37.29,120.43,54.33,120.43,54.33S107.93,1063.36,107.29,1024Z" transform="translate(-67.5 -350.03)"/><path d="M1990.54,1064.63s-1-84.87-68.1-115c-68.31-30.68-164.75-26.91-195.68-23.54-67.1,7.32,138.14,17.23,187.68,39.49S1990.54,1064.63,1990.54,1064.63Z" transform="translate(-67.5 -350.03)"/><path d="M1165.27,1039.7c5.33,0,278.64-68.88,278.64-68.88l70.39,4.54-308.89,64.34Z" transform="translate(-67.5 -350.03)"/><polygon points="643.54 787.57 778.22 769.91 815.21 771.63 668.03 806.73 643.54 787.57"/><path d="M410,800.55c3.47-.78,93-62.93,93-62.93h8.88L397.63,824.1Z" transform="translate(-67.5 -350.03)"/><path d="M1276.59,849.79c1.66,5.73,35.24-3.84,35.24-3.84l-1.73,3.75-30.57,12c-18.83,7.37-56,22.48-56,22.48l20.69-37.84,37.54-.43S1276.18,848.37,1276.59,849.79Z" transform="translate(-67.5 -350.03)"/><path d="M827.2,1267.89l219.3-54.3a1.15,1.15,0,0,1,1,2l-20.52,15.29a1.38,1.38,0,0,1-.27.14c-65.38,27.91-99.8,40.65-106.27,44.51-8.17,4.88-18.78,13.56-72.86,4.28-4.81-.82-15.77-7-20.65-9.85A1.14,1.14,0,0,1,827.2,1267.89Z" transform="translate(-67.5 -350.03)"/><path d="M1038.26,1274.88v4.8q10.83.63,17.58,3.33a31.87,31.87,0,0,1,12.06,8.76,36.54,36.54,0,0,1,8.08,16.89q2.18,10.23,2.18,31.7v116.56q0,31.9-.76,40.45-1.14,13.14-4.65,21.69a47.91,47.91,0,0,1-10.93,15.85q-12,11.67-29.92,18.24a108.93,108.93,0,0,1-37.72,6.57q-20.32,0-33.72-7.4t-22.52-23.88a69.7,69.7,0,0,1-8.08-23.66q-2-12.83-2-41.6v-118q0-25.43,2-35.86c1-5-1.9-10.51,7.23-25.63-12.29,6.31-26.38,11.76-33.24,8.13-7.4-3.93,19-17.53,19-17.53L954.25,1261l.49-.57c3.48-4-108.38,14.46-108.38,14.46v4.8q11,.63,17.76,3.33a30.35,30.35,0,0,1,11.88,8.76,35,35,0,0,1,8.17,16.89q2.08,10.23,2.09,31.7v126.57q0,24,1.14,33.15,3.23,25.86,19.76,41.71,25.46,24.81,79.23,24.81,51.5,0,79.23-26.27,12.17-11.46,16.25-25.34t4.09-43.06V1340.36q0-21.27,2.18-31.59a36.6,36.6,0,0,1,8.07-17c3.55-4,4.13-5.72,9.25-12.67C1108.33,1275.2,1038.26,1274.88,1038.26,1274.88Z" transform="translate(-67.5 -350.03)"/><path d="M1239.37,1216.92c1.21-.3-13.76,6.58-14.76,7.33l-8.94,6.66a1.38,1.38,0,0,1-.27.14c-65.38,27.91-99.8,40.65-106.27,44.51-8.17,4.88-.57,16.23-54.65,7-4.81-.83-32.32-1.89-37.19-4.74C1016.4,1277.25,1239.37,1216.92,1239.37,1216.92Z" transform="translate(-67.5 -350.03)"/><path d="M545.41,1097.14h33q35.39,0,58.27,8,40.7,14.48,70.38,58.34l52.2-12.25,1,.21a200,200,0,0,0-21-22q-40-36-97.48-41.59-13.62-1.38-63.44-1.39H428.6v8q25.86,1.74,39.21,16,10.62,11.43,14.29,29.11t3.68,55.81v130.14l59.63-16.22Z" transform="translate(-67.5 -350.03)"/><path d="M798.64,1219.32a254.07,254.07,0,0,0-28.5-54.76l-51,19.15a277.73,277.73,0,0,1,23.09,60A365.24,365.24,0,0,1,754,1337.34a350,350,0,0,1-9.66,83.7q-9.68,39.35-28.19,69.84-18.78,31.55-42.61,45.58t-57.31,14q-39.21,0-56.64-27-8.18-12.48-11.16-30.16t-3-51.64V1331.43l-59.63,20.64v98.61q0,35.35-3.13,52.51t-11.57,28.25q-7.63,10.05-17.16,14.56t-25.32,5.54v8H629.82a298.47,298.47,0,0,0,68.89-8q45.19-10.74,75.42-50.26,21.51-28.07,33.63-70.53t12.12-90.29Q819.88,1274.94,798.64,1219.32Z" transform="translate(-67.5 -350.03)"/><polygon points="510.53 931.25 418.32 954.99 418.32 980.13 591.33 922.5 510.53 931.25"/><path d="M1753.41,1430.48c-4.41-4.16-7.19-18-8.54-26.7-.16-1-2.22-1.06-2.44,0-1.85,8.72-5.37,22.5-9.83,26.62-3.44,3.16-15.52,5.07-24.76,6.1-1.3.14-1.26,1.5.05,1.6,9.33.75,21.47,2.34,24.63,5.69,4.76,5,7.66,17.48,9.24,26.87.18,1.05,2.3,1,2.42,0,1.1-9.45,3.58-21.94,9.16-26.73,4.14-3.56,16.4-5.2,23.73-5.88.79-.07.8-.89,0-1C1769.72,1436.14,1757.35,1434.18,1753.41,1430.48Z" transform="translate(-67.5 -350.03)"/><path d="M1753.41,1518.57c-4.41-4.16-7.19-18-8.54-26.7-.16-1-2.22-1.06-2.44,0-1.85,8.72-5.37,22.51-9.83,26.62-3.44,3.17-15.52,5.07-24.76,6.1-1.3.14-1.26,1.5.05,1.61,9.33.74,21.47,2.34,24.63,5.68,4.76,5,7.66,17.48,9.24,26.88.18,1,2.3,1,2.42,0,1.1-9.45,3.58-21.94,9.16-26.73,4.14-3.55,16.4-5.19,23.73-5.88.79-.07.8-.89,0-1C1769.72,1524.24,1757.35,1522.28,1753.41,1518.57Z" transform="translate(-67.5 -350.03)"/></svg>