<?xml version="1.0" encoding="UTF-8"?><svg id="_層_2" xmlns="http://www.w3.org/2000/svg" xmlns:xlink="http://www.w3.org/1999/xlink" viewBox="0 0 412.06 412.06"><defs><style>.cls-1{fill:#fff;}.cls-2{clip-path:url(#clippath);}.cls-3{fill:none;}</style><clipPath id="clippath"><circle class="cls-3" cx="206.03" cy="206.03" r="206.03"/></clipPath></defs><g id="_審3"><g id="_層_40"><g class="cls-2"><g><path class="cls-1" d="M-552.81,1058.19c0-362.87,0-725.73,0-1088.6,362.87,0,725.73,0,1088.6,0,0,362.87,0,725.73,0,1088.6-362.87,0-725.73,0-1088.6,0ZM-208.73,597.26l.11,.1c-.59-1.69-.67-4.04-1.85-4.95-4.49-3.48-9.06-7.11-14.15-9.51-4.14-1.95-9.05-2.82-13.67-3.03-2.93-.13-5.16-.6-7.55-2.25-5.87-4.05-12.79-6.29-19.4-3.71-6.92,2.7-13.72,3.97-20.98,3.74-.69-.02-1.46-.02-2.06,.26-5.88,2.72-11.57,2.85-17.75,.31-2.56-1.05-4.52-1.3-3.85-4.73-6.21,.02-10.95,3.01-16,5.23-11.98,5.28-21.1,14.22-30.25,23.15-.09,.09-.12,.25-.28,.61,.79,.19,1.54,.38,2.43,.6-3.28,3.88-6.57,7.32-9.31,11.15-2.68,3.75-4.6,8.03-7.17,11.85-23.22,34.52-43.1,70.92-60.37,108.7-6.33,13.85-11.73,28.28-16,42.89-4.33,14.8,.04,25.2,12.05,31.84,6.27,3.46,13.36,5.45,20.12,8,.89,.34,2.01,.05,3.03,.05-.85-1.22-1.81-1.62-2.76-2.02-5.39-2.27-10.94-4.21-16.12-6.87-12.35-6.33-16.37-14.95-13.74-28.6,3.07-15.91,9.59-30.63,16.84-44.89,10.04-19.73,21.05-38.96,31.71-58.37,5.57-10.14,10.84-20.48,17.05-30.22,9.25-14.52,18.66-29.01,29.11-42.66,5.14-6.72,12.45-11.98,19.38-17.07,5.29-3.89,11.65-5.87,17.86-4.12-3.93,3.68-8.68,7.04-12.01,11.46-8.37,11.1-16.37,22.51-24,34.14-6.18,9.41-11.67,19.28-17.33,29.02-11.75,20.25-20,42.05-28.31,63.85-6.11,16.03-11.02,32.29-12.08,49.17-.15-.56-.4-1.54-.66-2.52-3.05,13.82,2.23,25.12,10.22,35.74,6.25,8.31,12.19,16.86,18.8,26.05-8.28-2.32-15.5-5.44-23.33-2.63,2.65,.87,5.36,1.32,8.05,1.87,8.97,1.82,17.75,4.15,23.91,11.62,3.61,4.38,6.77,9.12,10.34,13.52,1.1,1.35,2.82,2.28,4.42,3.09,2.18,1.1,5.19,1.29,6.64,2.94,3,3.4,6.13,6.75,5.94,12.22-.17,4.74,1.41,9.55,2.23,14.33-4.66-.94-6.76,2.73-9.11,5.42-10.71,12.26-18.5,26.36-25.14,41.13-.34,.77-.41,1.66-.61,2.49,1.54-.88,2.54-2.01,3.3-3.27,1.58-2.62,2.96-5.36,4.54-7.98,7.6-12.61,14.42-25.8,26.21-35.31,.57-.46,.46-1.74,.67-2.64,.23,.5,.61,.99,.67,1.51,2.12,16.32-3.35,30.16-13.82,42.4-.84,.99-1.15,2.44-1.7,3.67,1.36-.29,3.2-.11,4.01-.93,4.08-4.17,7.9-8.6,11.78-12.96,1.1-1.24,1.87-3.33,3.19-3.73,5.03-1.53,7.21-5.69,9.25-9.69,4.88-9.54,9.4-19.28,13.9-29,1.3-2.82,2.93-4.1,5.92-2.97,2.14,20,7.19,38.97,17.21,56.4,5.54,9.64,13.22,16.9,23.94,20.42,10.28,3.37,20.57,4.13,31.42-1-3.67,.29-6.56,.53-9.46,.73-18.42,1.29-33.03-5.09-42.59-21.39-9.83-16.76-14.73-35.11-17.38-54.18-.33-2.35,.66-3.17,2.6-3.91,5.21-1.98,10.35-4.15,15.53-6.21,.89-.36,1.82-.73,2.76-.82,2.72-.27,4-2.4,5.62-4.12-.68-.64-1.38-1.82-2.03-1.79-1.17,.05-2.33,.78-3.47,1.29-9.09,4.09-18.17,8.19-27.74,12.51,.27-1.46,.39-2.39,.62-3.28,2.62-10.14,.95-19.41-7.09-26.36-8.82-7.63-17.91-15.1-27.63-21.51-8.68-5.72-13.06-12.86-12.9-23.11,.01-.99-1.31-1.99-2.02-2.99-.79,.76-1.92,1.39-2.3,2.32-.77,1.92-1.06,4.03-1.68,6.02-1.88,5.99-3.5,6.47-8.81,2.92-1.44-.96-3.13-1.53-5.38-2.6-6.41-15.1-6.98-46.16-.76-60.61,5.44,.59,10.48,4,16.12,3.2l.22-1.16c-4.42-1.54-8.84-3.08-14.11-4.91,3.68-1.96,5.97-2.58,8.4-.08,.87,.9,2.7,.86,5.05,1.52-4.77-5.3-8.53-9.47-13.09-14.54,4.83,.39,8.36,.67,11.78,.94,.33,2.92,.63,5.54,.93,8.16l.62,.03c.74-2.54,1.47-5.09,2.21-7.63-3.21,12.15,4.3,22.92,4.44,34.65,0,.8,.36,1.65,.74,2.38,3.94,7.57,6.7,15.51,8.14,23.95,.27,1.58,1.87,3.54,3.33,4.09,.89,.34,2.67-1.66,4.24-2.74,1.97,2.74,3.98,5.94,6.39,8.8,5.58,6.63,10.21,14.48,19.34,16.96,2.7,.73,5.65,.51,8.26,.7-.44,.73-1.05,1.75-1.66,2.78,1.25,.27,2.5,.75,3.75,.75,1.22,0,2.47-.41,3.67-.75,3.85-1.07,7.69-2.19,12.32-3.51,3.14,10.77,6.36,21.23,9.2,31.8,1.54,5.74,2.9,11.65,0,17.5-1.11,2.24-2.04,4.56-3.07,6.83-2.07,4.54-1.19,6.56,3.62,7.4,6.04,1.06,12.12,1.9,18.21,2.67,1.46,.18,3.01-.31,4.51-.49l.06-1.28c-7.61-1.64-15.22-3.28-23.39-5.05,2.51-2.02,4.43-3.56,6.09-4.89,4.78,2.64,9.14,5.43,13.81,7.55,10.03,4.56,19.81,3.93,28.92-2.55,2.83-2.02,5.18-4.87,8.22-6.4,3.75-1.88,5.87-4.55,7.65-8.21,1.43-2.93,4.15-5.22,6.09-7.93,4.01-5.59,3.95-5.63,8.12-.55,.13,.16,.5,.12,1.05,.24,.36-.84,.74-1.73,1.19-2.77,15.52,19.18,36.95,31.04,56.67,46.58-11.6,6.56-22.43,12.69-33.78,19.11,1.37,.15,2.15,.23,4.12,.45-12.6,7.97-24.24,15.33-35.88,22.69,2.9,.04,5.71-.38,7.97-1.71,8.52-5.03,16.86-10.35,25.27-15.57,2.36-1.47,4.7-2.97,7.04-4.45-14.31,17.55-28.78,34.67-30.52,58.62,3.81-5.9,7.27-12,10.3-18.3,2.84-5.88,4.34-12.6,7.98-17.87,10.4-15.04,23.95-27.24,37.76-39.1,1.72-1.47,3.09-1.7,5.06-.14,13.26,10.47,25.87,21.64,36.84,34.54,1.12,1.32,2.19,3.03,2.43,4.68,1.07,7.57,1.82,15.19,2.73,22.79,.36,3.05,.84,6.08,1.27,9.12,.44,.02,.89,.04,1.33,.06,.27-1.32,.84-2.66,.75-3.95-.35-5.14-.86-10.27-1.39-15.4-.3-2.91-1.89-6.28-.9-8.58,1.61-3.75-.03-6.05-1.99-8.15-9.31-9.96-18.76-19.79-28.31-29.52-2.43-2.48-4.88-4.37-5.14-8.48-.3-4.84-2.2-5.44-7.19-4.19-1.26,.32-3.09,.16-4.1-.56-13.33-9.63-26.76-19.14-39.75-29.22-7.88-6.11-15.66-12.58-19.32-22.53-.49-1.34-2.24-2.78-3.66-3.13-4.42-1.09-5.51-4.24-6.36-8.09-2.55-11.56-5.41-23.05-7.98-34.6-.29-1.32-.04-3.48,.82-4.18,1.76-1.43,3.38-.63,4.67,1.47,2.21,3.6,5.85,5.09,9.77,3.87,3.78-1.17,7.26-3.31,10.83-5.11,1.1-.55,2.02-1.9,3.08-1.97,3.46-.23,5.38-2.56,5.7-5.24,.82-6.76,6.07-10.12,10.27-14.07,4.74-4.45,8.51-9.18,9.68-15.66,.62-3.46,2.63-5.56,5.74-7.13,12.41-6.25,24.76-12.62,37.07-19.08,2.37-1.25,4.71-2.84,6.52-4.78,.94-1.01,1.47-3.76,.79-4.62-1.1-1.4-3.26-2.22-5.12-2.7-11.82-3.08-23.68-5.99-35.44-8.94,3.57-15.66,6.6-30.25,3.29-45.7-3.65-17.04-10.08-32.12-23.69-43.5-6.06-5.07-12.11-10.18-18.42-14.94-5.54-4.18-11.78-6.87-18.97-6.47Zm301.6,115.52l1.14,1.23c1.21-.88,2.44-1.73,3.62-2.65,5.62-4.34,13.41-7.85,19.19-1.45,4.08,4.52,8.47,8.79,12.95,12.92,4.59,4.22,9.49,8.09,14.19,12.2,1.52,1.33,2.57,3.29,4.22,4.36,6.27,4.03,12.85,7.58,19.03,11.72,13.5,9.05,27.7,16.67,43.08,21.98,10.78,3.72,21.95,6.43,31.69,12.73,1.74,1.13,3.68,1.94,5.5,2.97,11.64,6.57,23.43,12.91,34.85,19.84,6.17,3.75,6.35,6.16,3.06,12.51-.9,1.73-1.91,3.4-2.8,5.14-17.83,34.66-35.65,69.33-53.46,104.01-.83,1.62-1.45,3.36-2.16,5.04,.46,.26,.92,.52,1.38,.79,1.13-1.56,2.46-3.01,3.37-4.69,19.13-35.61,38.26-71.23,57.28-106.9,5.17-9.69,4.18-14.37-5.1-20.42-8.5-5.55-17.52-10.3-26.31-15.39-1.26-.73-2.56-1.41-4.35-2.4,1.26-.7,1.94-1.12,2.65-1.45,9.22-4.31,18.46-8.58,27.65-12.93,10.79-5.11,21.54-10.29,32.31-15.44,2.18-1.05,3.98-2.34,.93-4.37-6.37-4.25-12.57-8.88-19.35-12.36-4.85-2.49-8.42-5.9-11.11-10.24-1.57-2.53-1.99-5.78-2.93-8.7,.46-.19,.91-.38,1.37-.57,2.03,1.42,4.15,2.74,6.08,4.29,6.61,5.3,13.19,10.64,19.71,16.05,3.96,3.29,7.86,6.65,11.65,10.14,2.64,2.43,2.42,4.77,.39,7.99-5.11,8.1-9.79,16.49-14.16,25.02-1.3,2.53-1.62,5.97-1.25,8.85,.78,6.17,2.34,12.24,3.49,18.37,.23,1.25,.44,2.72,0,3.84-.84,2.13-2.15,4.08-3.31,6.19-3.61-1.61-7.43-3.31-11.25-5.01-.31,.54-.62,1.07-.93,1.61,4.47,2.89,8.93,5.78,12.08,7.81,4.4,2.19,7.63,3.48,10.53,5.3,10.66,6.73,19.19,15.85,27.64,25.04,.59,.64,1.27,1.18,1.91,1.77,.29-.31,.58-.62,.88-.93-8.57-14.93-21.59-25.23-37.48-33.7,6.68-6.84,3.01-13.94,1.45-20.84-1.9-8.41-1.29-16.18,3.54-23.56,3.66-5.59,6.78-11.53,10.42-17.13,3.45-5.32,3.57-8.31-.42-13.17-1.41-1.72-2.94-3.4-4.69-4.75-11.65-9.02-23.41-17.91-35.03-26.98-1.09-.85-2.03-2.61-2.06-3.98-.06-2.45,.72-4.92,.97-7.39,.14-1.34-.09-2.72-.18-4.5,1.92,.53,4.32,.8,6.36,1.82,6.85,3.4,13.53,7.16,20.37,10.59,2.58,1.29,5.42,2.05,8.15,3.05,.28-.44,.56-.88,.85-1.32-.76-.97-1.53-1.92-2.26-2.91-1.89-2.56-4.26-4.91-5.54-7.74-4.2-9.26-5.26-19.07-3.31-29.03,.43-2.22,2.15-4.51,3.9-6.07,4.66-4.18,9.63-8.02,14.54-11.92,1.94-1.54,4.04-2.87,6.06-4.29l-.55-.23c3.09-4.18,6.18-8.36,9.27-12.54l.73,.39c-.88,2.31-1.75,4.62-2.63,6.93,.35,.19,.71,.38,1.06,.58,.95-1.24,2.11-2.38,2.83-3.75,4.3-8.13,8.57-16.27,12.71-24.48,1.88-3.74,.62-7.46-3.26-8.51-4.52-1.22-9.25-1.63-14.3-2.46-3.38-6.42-3.22-7.07,3.41-11.62,.46-.32,.92-.63,1.37-.95,7.07-5.04,7.64-8.24,3.19-15.78-3.18-5.39-6.52-10.74-9.07-16.43-7.01-15.63-13.62-31.45-20.47-47.16-1.12-2.58-2.62-4.99-3.94-7.48-.55,.26-1.1,.52-1.65,.78,4.83,12.4,9.67,24.8,14.5,37.21-3.57-4.36-6.68-9-10.16-13.32-3.26-4.06-7.02-7.72-10.39-11.69-2.42-2.85-4.72-5.83-6.79-8.95-1.64-2.47-2.86-5.23-4.63-8.54-.52-.4-1.91-1.46-3.29-2.51,.42-.49,.84-.98,1.26-1.47,2.77,2.62,5.79,5.03,8.26,7.91,3.16,3.68,5.74,7.86,8.86,11.57,1.03,1.22,2.96,1.68,4.48,2.49l1.14-1.54c-1.69-2.27-3.37-4.55-5.07-6.81-3-3.99-7.31-7.57-8.67-12.05-1.56-5.15-4.64-5.83-8.66-6.45-2.47-.38-5.64-.05-7.23-1.46-3.37-3.01-6.67-2.06-10.14-1.27-2.84,.65-5.59,1.65-8.41,2.42-.92,.25-1.9,.27-2.85,.4-.1-.52-.21-1.04-.31-1.57,3.67-.86,7.35-1.65,10.99-2.61,.89-.24,1.62-1.06,2.43-1.61-.77-.64-1.5-1.76-2.31-1.82-2.17-.16-4.38,.12-6.58,.23-.42-4.35-2.33-5.75-7.5-4.16-7.82,2.41-15.63,5.04-23.08,8.39-3.85,1.73-6.52,1.25-8.73-1.65-2.8-3.68-6.49-5.74-10.59-7.42-5.57-2.28-10.14-5.63-12.61-11.46-.97-2.27-2.55-4.33-4.08-6.3-.58-.74-1.82-.98-2.75-1.44-.4,.93-1.03,1.83-1.17,2.79-.43,2.99-.68,6.02-1.03,9.33-2.15-.87-4.04-1.69-5.98-2.41-5.24-1.95-5.97-1.86-10.19,1.58-2.51,2.05-4.94,4.21-7.37,6.35-15.53,13.71-31.05,27.44-46.56,41.16-3.48,3.08-6.91,6.2-10.37,9.3,.29,.38,.58,.75,.87,1.13,2.79-1.81,5.58-3.61,8.36-5.42-10.25,11.08-21.39,20.86-37.03,26.33,5.71,6.73,12.84,11.02,20.85,13.93-.29,1.76-.51,3.11-.72,4.41,4.54,1.98,8.09,8.8,5.96,11.21-1.12-.37-2.24-.74-3.71-1.22v8.04c-3.52-.68-6.72-1.5-9.98-1.9-8.68-1.07-17.36-2.2-26.08-2.77-2.97-.19-6.04,1.22-9.78,2.05,1.2,1.15,1.4,1.5,1.59,1.49,2.76-.12,5.52-.35,8.28-.42,3.25-.08,6.02,3.17,4.23,5.49-1.82,2.36-.52,3.61,.32,5.08,3.18,5.54,6.54,10.96,9.28,15.52-.86,2.56-1.41,4.16-1.95,5.76,1.54-.21,3.08-.43,3.71-.51,7.05,8.43,13.95,16.6,20.75,24.87,3.04,3.7,5.89,7.56,8.74,11.41,.33,.45,.37,1.35,.17,1.91-2.87,7.94-5.7,15.9-8.86,23.74-.44,1.1-2.48,1.95-3.9,2.18-6.03,.99-12.17,1.38-18.15,2.6-6.97,1.42-8.9,4.62-7.18,11.45,2.37,9.41,5.06,18.73,7.76,28.64-9.04-1.08-17.7-2.11-25.74-3.06-.8-1.54-1.35-2.58-1.89-3.63-1.23,.92-2.45,1.85-3.7,2.79-1.62-3.16-3.34-2.34-4.98,.54-3.73,6.53-7.13,13.28-11.31,19.51-3.14,4.68-7.29,8.68-11.02,12.96-.2,.23-.71,.17-1.08,.25-1.76,.36-3.52,.71-5.34,1.08,.16-3.31,.32-6.77,.49-10.23l-1.5-.18c-.46,2.05-1.43,4.14-1.29,6.15,.54,7.38-4.04,10.35-9.95,12.39-.92,.32-2.06,.49-2.65,1.15-1.11,1.24-2.82,2.89-2.66,4.17,.87,6.72-3.67,11.07-6.09,16.24-3.44-.89-6.48-1.83-9.58-2.43-3.1-.6-5.17,.96-5.96,3.91-1.29,4.82-2.72,9.64-3.48,14.56-.56,3.65-.11,7.44-.19,11.17-.05,2.39,0,4.82-.48,7.14-.69,3.37-3.19,7.01-2.45,9.9,1.2,4.69-.2,7.63-3.39,10.19-6.56,5.23-7.61,11.43-3.9,18.73,.31,.61,.38,1.35,.67,1.97,1.07,2.26,.7,5.53,4.33,6.1,.35,.05,.95,2,.62,2.41-1.6,1.97-3.15,4.36-5.3,5.43-8.96,4.44-17.17,9.82-23.94,17.23-4.67,5.11-7.78,10.63-3.76,17.67,.46,.81,.48,1.88,.65,2.84,1.74,9.86,2.72,19.92,5.39,29.52,3.48,12.54,7.92,24.87,12.7,36.99,2.45,6.21,6.73,11.61,13.46,14.21,4.84,1.87,9.02,1.21,12.07-2.13-10.78,2.34-16.93-3.48-21.42-11.72-2.66-4.87-4.96-10-6.84-15.23-6.37-17.78-10.5-36.09-12.6-54.88-.53-4.74-1.95-9.37,2.1-13.27,3.4-3.27,6.82-6.52,10.23-9.78,.22,.24,.44,.49,.66,.73-1.23,1.52-2.46,3.05-3.69,4.57,.34,.45,.68,.91,1.03,1.36,4-2.57,7.99-5.14,11.73-7.54,1.85,9.85,3.35,19.61,5.56,29.19,3.16,13.7,9.24,26.32,17.09,37.83,6.82,10.01,16.6,16.25,29.52,16.91-.55,.8-.71,1.22-1.01,1.43-9.27,6.41-18.57,12.78-27.8,19.24-1.21,.85-2.1,2.16-3.13,3.26,6.34-.18,19.55-6.68,26.41-12.17,2.28-1.83,3.77-4.61,5.84-6.75,2.08-2.15,4.43-4.03,6.67-6.02,.35,.37,.7,.74,1.06,1.11-4.55,5.81-9.09,11.62-13.64,17.44,.29,.37,.59,.73,.88,1.1,1.46-.96,3.27-1.64,4.34-2.93,5.39-6.56,11.43-12.79,15.67-20.05,9.21-15.74,17.7-31.91,25.98-48.16,2.99-5.88,5.51-11.82,10.78-16.12,.99-.81,1.65-2.17,2.12-3.41,.57-1.51,.65-3.21,1.2-4.74,.68-1.93,1.21-4.17,2.54-5.56,2.55-2.66,5.46-5.06,8.53-7.1,2.54-1.68,5.9-2.22,8.21-4.11,2.64-2.16,4.55-5.23,6.74-7.93,6.35-7.83,12.68-15.68,19.02-23.52,.5,.21,1.01,.42,1.51,.64-.91,2.45-1.83,4.9-2.74,7.35l.97,.51c5.5-5.39,8.32-12.62,11.91-19.22,1.08,.83,1.93,1.49,3.37,2.61,0-1.85,.06-2.79,0-3.71-.61-7.77-1.42-15.53-1.81-23.31-.33-6.61-2.62-9.59-9.04-10.63-1.37-.22-2.91-.06-4.08-.65-5.06-2.56-8.92-.4-12.37,3-2.13,2.1-3.94,4.54-6.25,7.23,.4-7.36-7.44-6.64-10.53-11.81,3.34,1.36,5.84,2.53,8.45,3.36,.83,.26,1.94-.37,2.93-.59-.5-.99-.76-2.45-1.56-2.88-2.2-1.17-4.75-1.67-6.93-2.85-5.36-2.89-10.81-5.69-15.82-9.12-4.75-3.26-4.14-6.81,.99-8.84,1.29-.51,2.55-1.1,3.82-1.67,5.23-2.33,10.26-5.56,16.46-3.31,.76,.28,1.8-.21,2.71-.35-1.05-1.45-2.12-2.03-3.24-2.43-6.7-2.38-6.8-2.36-6.95-9.55-.03-1.47,1.03-2.97,1.58-4.45,1.15,1.12,2.67,2.04,3.37,3.39,4.17,7.96,8.33,15.83,19.01,17.6-3.26,1.11-5.93,2.01-8.59,2.92,.1,.39,.2,.77,.3,1.16,3.22-.51,6.43-1.18,9.68-1.46,1.52-.13,3.57-.05,4.58,.85,7.61,6.76,18.54,9.53,23.51,19.45,20.49,19.52,40.85,39.19,61.55,58.48,6.6,6.16,14.08,11.38,21.24,16.93,2.67,2.07,5.31,2.26,7.49-.99,6.14-9.14,12.38-18.22,18.5-27.37,.76-1.14,1.08-2.58,1.6-3.88-.46-.28-.92-.56-1.38-.84-7.63,10.33-15.26,20.67-23.3,31.56-30.71-23.14-56.96-51.27-85.29-77.12,5.25,2.58,10.29,5.48,15.45,8.14,5.32,2.75,10.71,5.38,16.17,7.84,5.33,2.4,10.76,4.62,16.22,6.72,5.59,2.14,11.24,4.18,16.94,6,5.26,1.68,10.39,4.13,16.23,3.61-36.39-12.93-71.54-28.14-103.96-50.75,1.95-.51,3.41-.76,4.75-1.28,1.5-.58,3.51-1.04,4.24-2.22,1.99-3.17,3.46-6.66,5.03-10.08,.32-.68,.5-2.08,.16-2.31-3.36-2.32-3.53-6.31-5.28-9.43-3.89-6.92-8.28-13.55-12.65-20.18-1-1.53-2.74-3.67-4.12-3.66-6.24,.04-12.33-3.13-18.67-.75-1.91,.72-3.79,.7-4.57-2.01-2.73-9.51-5.55-18.99-8.42-28.46-.95-3.13-.03-5.51,3.05-6.21,6.16-1.41,12.43-2.36,18.66-3.5,.22,.43,.44,.86,.66,1.29-5.22,7.92-10.44,15.84-15.66,23.76ZM-299.01,389.51c.96,2.92,1.79,5.56,2.69,8.18,3.52,10.13,9.14,18.08,20.71,19.82,17.48,2.63,34.9,6.92,52.44,7.43,16.26,.47,32.66-2.84,48.94-4.96,9.49-1.24,18.85-3.42,28.95-5.3-7.33,8.42-14.2,16.32-21.07,24.22l.39,.49c1.4-.7,2.81-1.4,4.42-2.21-4.13,10.86-8.17,21.48-12.21,32.1l.94,.38c2.42-5.34,4.82-10.69,7.28-16.01,5.05-10.92,8.58-22.54,18.77-30.58,8.19-6.46,16.04-12.76,26.88-14.11,3.69-.46,7.21-2.32,10.8-3.55l-.14-.52c-3.36,.51-6.72,1.02-9.88,1.5,6.81-5.7,13.53-11.43,20.42-16.96,.63-.5,2.77-.13,3.42,.57,2.93,3.14,5.62,6.5,8.31,9.85,6.38,7.93,12.68,15.92,19.07,23.84,.93,1.15,2.16,2.06,3.25,3.08,.43-.39,.86-.79,1.28-1.18-9.7-12.78-19.39-25.56-29.06-38.31,.82-.92,1.56-1.77,3.1-3.5-2.85,.2-4.54,.32-6.25,.44-.64-.97-1.1-2.05-1.88-2.79-10.3-9.76-20.78-19.33-30.95-29.23-9.17-8.93-18.08-18.14-26.97-27.34-4.16-4.31-6.84-9.56-7.56-15.52-.8-6.57-1.24-13.19-1.69-19.8-.38-5.68-.89-11.39-.75-17.07,.2-7.79,.78-15.59,1.62-23.35,.2-1.85,2.55-5.17,3.11-5.01,6.36,1.81,11.33-1.81,16.59-3.9,5.82-2.31,10.77-5.86,13.04-12.19,.28-.79,1.17-1.55,1.97-1.95,6.78-3.39,13.68-6.53,20.38-10.06,11.53-6.07,21.6-14.72,34.31-18.8,3.01-.96,5.23-4.37,8.51-7.27-2.28-1.03-3.34-1.62-4.48-2-4.76-1.57-9.49-3.25-14.32-4.56-3.71-1-7.33-1.7-6.65-6.85,.05-.35-.56-.79-1.28-1.75-.54,1.68-.73,2.89-1.31,3.89-.4,.7-1.4,1.65-1.98,1.56-3.93-.6-7.83-1.45-12.25-2.32,1.92-4.58,3.67-8.75,5.42-12.92,1.97-4.69,4.91-9.21,5.76-14.1,4.14-23.88-5.58-44.46-16.37-64.67-.97-1.82-2.54-3.32-3.68-5.06-2.3-3.51-4.6-7.02-6.73-10.64-5.71-9.7-13.13-17.89-22.27-24.37-3.66-2.6-8.06-4.16-12.03-6.34-8.02-4.4-15.93-9-25.58-8.73-2.03,.06-4.13-.57-6.13-1.13-11.89-3.37-23.99-3.78-36.01-1.54-5.75,1.07-11.16,3.89-16.78,5.78-1.02,.34-2.42,.34-3.4-.08-7.16-3.08-14.33-2.59-20.24,2-6.32,4.92-11.64,11.11-17.36,16.78-.31,.31-.11,1.06-.31,1.54-.71,1.68-1.17,3.61-2.3,4.95-6.93,8.16-14.62,15.75-20.94,24.35-15.72,21.39-28.29,44.66-39.22,68.82-5.25,11.59-11.26,22.91-15.52,34.86-5.12,14.36-8.81,29.25-12.99,43.94-1.39,4.88-2.39,9.86-3.57,14.8l1.56,.52c1.41-3.56,2.82-7.12,3.73-9.42,0,4.84,.23,10.9-.05,16.94-.49,10.22,3.24,18.84,9.83,26.24,3.88,4.35,8.96,7.68,12.55,12.22,8.98,11.34,19.93,20.18,32.22,27.59,1.23,.74,2.27,2.67,2.43,4.15,.99,9.55,1.45,19.16,2.6,28.69,1.26,10.45,1.51,10.42-8.36,13.69-4.15,1.37-6.06,.43-6.71-3.93-1.82-12.13-3.54-24.28-5-36.45-.21-1.78,1.24-3.76,1.92-5.65l1.39,.45c.24,4.86,.25,9.74,.76,14.57,.96,9.12,2.13,18.23,3.43,27.31,.14,1,1.67,1.8,2.55,2.7,.27-1.2,.88-2.43,.75-3.58-.43-3.72-1.35-7.39-1.7-11.11-1.09-11.49-2-23-3.01-34.98-4.95,1.67-8.47,3.92-11.17,8.29-5.79,9.39-9.4,19.45-11.63,30.51,1.39-1.95,2.56-3.59,4.2-5.89,.8,6.28,1.46,11.47,2.15,16.95-1.89-.09-3.6-.18-5.31-.27l-.08,1.84c12.31,2.76,24.63,5.23,37.67-1.1-2.58,11.84-4.92,22.53-7.25,33.22,2.05-3.25,3.29-6.66,4.29-10.13,2.09-7.22,4-14.5,6.12-21.71,.38-1.29,1.44-2.37,2.18-3.55,.63,.14,1.26,.27,1.89,.41,.61,4.88,1.27,9.76,1.83,14.65,.56,4.92,1.02,9.85,1.53,14.77l.87-.08c.35-1.44,.71-2.87,1.12-4.54ZM281.85,182.25c2.6-.34,4.4-.45,6.13-.86,.8-.19,2.12-1.15,2.04-1.48-.22-.91-.96-2.28-1.67-2.39-4.48-.71-7.15-2.46-7.94-7.57-.46-2.98-.33-4.86,1.78-7.21,2.74,4.21,5.28,8.02,7.72,11.88,1.35,2.14,2.38,2.49,3.78-.03,.82-1.46,2.22-2.6,3.81-4.38,1.14,4.29-.47,8.27,3.39,11.03,.43-1.14,.66-1.62,.79-2.12,4.44-16.09,8.02-32.49,13.71-48.13,2.35-6.46,2.89-12.47,2.74-18.81-.06-2.73-1.49-5.63-2.92-8.09-1.77-3.03-4.01-5.83-6.38-8.44-4.1-4.53-8.47-8.82-12.67-13.26-.69-.73-1.19-1.66-1.65-2.57-.67-1.33-.84-3.31-1.89-4-11.14-7.37-22.11-15.09-33.73-21.61-11.23-6.3-23.19-11.32-35.29-17.13,7.55-2.75,15.35-2.63,21.31-7.73-7.11,1.35-14.13,2.99-21.1,4.82-3.53,.92-6.92,2.2-10.25-.62-.56-.47-1.86-.13-2.81-.05-4.55,.41-9.11,.69-13.63,1.34-4.66,.68-9.27,1.66-13.87,2.68-.98,.22-1.8,1.15-2.7,1.76l.46,1.2,13.14-2.47c-1.09,1.36-2.44,1.96-3.76,2.64-6.05,3.12-12.17,6.14-18.1,9.48-1.71,.96-3.84,2.74-4.09,4.41-.48,3.15-2.41,3-4.43,3.08-2.79,.11-5.58,.03-7.64,.03,3.9-4.38,8.44-9.46,12.91-14.47l.91,3.19,1.45-.03c2.29-4.98,2.25-10.26,.55-15.57-.54-1.7-2.03-3.09-3.08-4.62-.39,.25-.78,.5-1.17,.75,0,1.78-.43,3.7,.09,5.31,1.22,3.77,.04,6.84-2.06,9.78-1.46,2.04-2.75,4.32-4.62,5.89-1.63,1.37-4.03,2.81-5.97,2.65-7.04-.58-14.02-1.9-21.04-2.75-2.44-.3-4.94-.05-7.72-.05,2.06,3.25,3.6,5.67,5.27,8.3-6.63,2.55-12.86,4.95-19.09,7.35-.31-.41-.62-.83-.93-1.24,.88-1.39,1.76-2.78,2.79-4.41-9.28,1.83-13.51,8.83-17.77,15.74-.38,.62,.26,1.81,.21,2.72-.08,1.5,.1,4-.6,4.31-3.68,1.62-3.82,5.12-4.99,8.07-2.15,5.43-4.33,10.85-6.25,16.36-4.29,12.33-8.32,24.74-12.68,37.05-2.22,6.27-4.87,12.4-7.44,18.54-.3,.71-1.46,1.02-2.04,1.68-.58,.65-1.21,1.48-1.28,2.29-.04,.4,1.1,1.29,1.72,1.31,4.45,.1,4.23,2.48,2.37,5.15-3.8,5.47-7.91,10.74-11.76,16.18-.94,1.32-1.39,2.98-2.07,4.49,1.69,.09,3.46,.57,5.04,.22,5.93-1.32,11.81-2.91,17.39-4.32,1.57,3.31,2.64,6.53,4.49,9.22,3.57,5.22,7.65,10.09,11.35,15.22,.79,1.1,1.15,2.66,1.29,4.06,.77,7.62-1.55,14.51-5.12,21.12-.52,.97-.84,2.74-.32,3.38,.56,.68,2.39,.92,3.38,.56,4.92-1.79,9.73-3.85,14.76-5.88,1.78,4.39,5.56,.94,8.67,.98,.39,2.86,.65,5.49,1.17,8.07,.16,.78,.97,1.87,1.63,1.99,.73,.14,1.91-.46,2.42-1.11,.97-1.24,1.6-2.75,2.38-4.15,.16,4.49-.66,8.68-1.26,12.9-.2,1.4,.18,2.88,.3,4.33,1.42-.3,3.05-.26,4.23-.96,3.05-1.82,5.91-3.98,9.42-6.4,.42,1.9,.85,3.17,.95,4.46,.24,3.05,.25,6.13,.5,9.18,.31,3.65,4.3,5.98,7.13,4.14,2.46-1.61,3.77-.99,4.19,1.79,.56,3.71,.97,7.45,1.59,11.16,.54,3.21-.76,5.08-3.56,6.6-5.96,3.23-5.72,3.73-2.23,9.71,1.74,2.98,2.35,6.66,3.22,10.08,1.31,5.16-3.35,6.02-6.19,8.11-4.01,2.95-4.26,3.94-1.61,8.08-13.93,16.45-28.18,32.68-40.7,50.27,.51,.44,1.03,.89,1.54,1.33,14.33-15.83,27.84-32.42,42.25-48.96,1.88,6.04,3.52,11.32,5.16,16.6,1.06-1.91,1.21-3.79,1.52-5.65,.17-1.02,.27-2.53,.93-2.91,5.44-3.12,11-6.03,16.53-9l1.5,1.86c-4.84,4.41-9.69,8.82-14.53,13.23l.81,.93c3.77-2.92,7.53-5.84,11.3-8.77,.27,.31,.55,.61,.82,.92-3.09,4.61-6.18,9.23-9.28,13.84l.55,.41c1.01-.54,2.02-1.07,3.9-2.07-6.9,13.87-13.38,26.89-19.85,39.91l1.49,.83c1.27-1.87,2.76-3.63,3.78-5.63,7.38-14.38,15.08-28.62,21.87-43.28,6.17-13.32,15.36-22.51,29.64-26.59,11.89-3.4,23.17-8.93,36.22-2.92,6.65,3.06,14.19,3.91,20.77,8.03,7.03,4.41,15,7.3,22.58,10.82,.73,.34,1.59,.41,2.39,.62,1.98,.52,4.37,.51,5.86,1.65,13.91,10.7,27.67,21.61,41.48,32.44,1.1,.86,2.27,1.62,3.41,2.42l1.11-1.14c-1.25-1.61-2.27-3.49-3.78-4.8-9.14-7.95-18.01-16.3-27.73-23.49-10.02-7.42-19.6-15.67-31.33-20.54-5.73-2.38-11.4-4.91-17.12-7.31-1.12-.47-2.85-1.27-3.49-.8-3.18,2.29-4.02-1.23-5.7-2.25-.39-.24,.62-2.62,.84-4.04,.18-1.18,.12-2.4,.2-3.6,.1-1.52,.27-3.04,.35-4.56,.04-.77,.17-1.66-.14-2.3-1.41-2.97-2.97-5.86-4.67-9.16,10.96-1.56,17.94-6.94,23.29-15.47,8.7-13.89,15.64-28.52,21.81-43.68,4.52-11.09,1.72-22.23,2.01-33.34,.04-1.68-1.62-3.41-2.83-5.77ZM-149.09,325.42c1.38-.95,4.06-1.97,5.45-3.91,4.05-5.65,7.53-11.71,11.36-17.53,1.65-2.52,.99-4.29-1.71-6.48-2.38,2.8-4.67,5.5-6.57,7.74-1.03-6.9-2.01-13.47-2.99-20.05l.83-.23c2.56,4.16,5.12,8.32,8.21,13.34,.48-1.8,.97-2.59,.75-2.98-3.81-6.76-7.62-13.53-11.74-20.09-.37-.58-3.88-.32-4.34,.47-3.37,5.87-6.34,11.96-9.41,18-.6,1.18-1.09,2.42-1.74,3.89,3.67,8.58,7.6,17.75,11.91,27.84Zm-36.54,516.41l1.43-.02c.44-1.06,1.05-2.09,1.29-3.19,1.81-8.25,5.38-15.39,12.14-20.82,2.3-1.85,1.9-3.89-1.07-4.94-7.08-2.51-12.5-6.52-13.84-14.55-.13-.8-1.4-1.65-2.32-1.97-.39-.14-1.66,.94-1.81,1.62-1.61,7.37-6.61,12.01-12.5,15.99-2.47,1.67-2.47,3.25,.27,4.56,6.59,3.14,10.16,8.74,12.72,15.25,1.08,2.75,2.45,5.39,3.68,8.08Zm-111.87,32.11c-.38-.09-.77-.18-1.15-.27-.26,1.45-.75,2.9-.73,4.34,.19,14.99,4.62,28.73,12.47,41.42,6.2,10.02,15.03,16.43,26.23,20.15,7.39,2.45,14.55,1.67,21.83,.48,15.37-2.5,30.06-6.96,43.17-15.7,1.35-.9,2.51-2.09,4.05-3.4-1.03-.36-1.31-.57-1.51-.51-.52,.16-1.05,.38-1.5,.69-11.65,8.04-24.9,11.93-38.43,15.41-25.96,6.67-45.67-5.02-54.73-23.85-3.05-6.34-5.32-13.18-7.04-20.02-1.53-6.09-1.82-12.49-2.66-18.76ZM-61.14,432.12c2.76,20.14-4.46,37.62-14.2,54.65,7.64-5.08,10.43-13.28,13.13-21.36,3.65-10.92,6.05-22.01,1.07-33.29Zm-260-112.4c-.42,.15-.85,.3-1.27,.44-.15,.78-.46,1.57-.42,2.34,.41,9.01,.78,18.03,1.36,27.03,.2,3.16,.8,6.33,1.55,9.41,.22,.92,1.57,1.57,2.4,2.35,.32-1.04,.96-2.11,.89-3.13-.25-3.45-.88-6.87-1.15-10.32-.6-7.9-.99-15.81-1.65-23.7-.13-1.51-1.12-2.95-1.71-4.42Zm168.2-68.83c.1,5.27,1.97,7.89,5.56,7.61,3.51-.27,5.18-2.42,5.22-5.81,.05-3.74-2.92-6.4-6.8-6.22-2.81,.13-4.51,1.27-3.99,4.42Zm-206.36,520.18c-3.12,.03-7.28,3.73-6.99,6.52,.26,2.54,.99,5.05,4.3,5.17,3.13,.11,6.49-3.72,6.56-7.43,.05-2.62-1.02-4.27-3.87-4.26Zm185.26,138.18c9.54-3.79,17.99-7.75,23.91-15.4-.26-.39-.53-.79-.79-1.18-7.48,5.37-14.96,10.73-23.12,16.59Zm-167.79-96.09c-.16,2.91-1.15,5.86,2.24,7.46,.44,.21,2.39-1.28,2.53-2.16,.49-3.12-.7-5.28-4.77-5.31ZM327.47,521.64c.3-.25,.6-.51,.9-.76-1.1-4.46-2.56-6.14-6.21-6.46,1.94,2.64,3.62,4.93,5.31,7.22ZM-190.51,917.14c.26,.42,.51,.83,.77,1.25,3.44-.16,5.32-2.78,6.95-5.81-2.57,1.52-5.15,3.04-7.72,4.57Z"/><path d="M281.85,182.25c1.21,2.37,2.87,4.09,2.83,5.77-.29,11.12,2.51,22.25-2.01,33.34-6.17,15.15-13.11,29.79-21.81,43.68-5.35,8.54-12.33,13.91-23.29,15.47,1.7,3.29,3.25,6.19,4.67,9.16,.31,.64,.17,1.53,.14,2.3-.08,1.52-.24,3.04-.35,4.56-.08,1.2-.02,2.42-.2,3.6-.22,1.42-1.22,3.81-.84,4.04,1.67,1.02,2.52,4.54,5.7,2.25,.65-.47,2.37,.33,3.49,.8,5.72,2.39,11.39,4.93,17.12,7.31,11.74,4.87,21.32,13.13,31.33,20.54,9.72,7.19,18.58,15.54,27.73,23.49,1.51,1.31,2.53,3.19,3.78,4.8l-1.11,1.14c-1.14-.81-2.31-1.56-3.41-2.42-13.81-10.83-27.57-21.74-41.48-32.44-1.49-1.15-3.88-1.14-5.86-1.65-.8-.21-1.66-.27-2.39-.62-7.58-3.52-15.55-6.42-22.58-10.82-6.58-4.13-14.12-4.97-20.77-8.03-13.04-6.01-24.33-.48-36.22,2.92-14.28,4.08-23.47,13.27-29.64,26.59-6.79,14.66-14.49,28.9-21.87,43.28-1.03,2-2.51,3.76-3.78,5.63l-1.49-.83c6.48-13.02,12.95-26.04,19.85-39.91-1.88,1-2.89,1.54-3.9,2.07l-.55-.41c3.09-4.61,6.18-9.23,9.28-13.84-.27-.31-.55-.61-.82-.92-3.77,2.92-7.53,5.84-11.3,8.77l-.81-.93c4.84-4.41,9.69-8.82,14.53-13.23l-1.5-1.86c-5.53,2.97-11.09,5.88-16.53,9-.66,.38-.76,1.89-.93,2.91-.3,1.86-.46,3.74-1.52,5.65-1.64-5.28-3.29-10.56-5.16-16.6-14.42,16.54-27.92,33.13-42.25,48.96-.51-.44-1.03-.89-1.54-1.33,12.51-17.6,26.76-33.82,40.7-50.27-2.65-4.14-2.41-5.14,1.61-8.08,2.84-2.09,7.5-2.94,6.19-8.11-.87-3.43-1.48-7.11-3.22-10.08-3.5-5.98-3.73-6.48,2.23-9.71,2.8-1.52,4.1-3.4,3.56-6.6-.62-3.7-1.03-7.44-1.59-11.16-.42-2.78-1.72-3.4-4.19-1.79-2.83,1.84-6.82-.49-7.13-4.14-.26-3.05-.26-6.13-.5-9.18-.1-1.29-.54-2.56-.95-4.46-3.51,2.42-6.37,4.57-9.42,6.4-1.18,.71-2.81,.66-4.23,.96-.12-1.44-.5-2.93-.3-4.33,.6-4.22,1.42-8.42,1.26-12.9-.77,1.4-1.41,2.9-2.38,4.15-.51,.65-1.69,1.25-2.42,1.11-.67-.13-1.47-1.21-1.63-1.99-.52-2.58-.78-5.21-1.17-8.07-3.11-.04-6.89,3.41-8.67-.98-5.02,2.03-9.84,4.09-14.76,5.88-.99,.36-2.81,.12-3.38-.56-.52-.63-.2-2.41,.32-3.38,3.57-6.61,5.89-13.5,5.12-21.12-.14-1.39-.5-2.96-1.29-4.06-3.71-5.13-7.78-10-11.35-15.22-1.84-2.69-2.91-5.91-4.49-9.22-5.58,1.41-11.45,3-17.39,4.32-1.59,.35-3.36-.12-5.04-.22,.68-1.51,1.13-3.17,2.07-4.49,3.86-5.44,7.96-10.7,11.76-16.18,1.86-2.67,2.08-5.05-2.37-5.15-.62-.01-1.76-.91-1.72-1.31,.08-.8,.7-1.63,1.28-2.29,.58-.65,1.74-.96,2.04-1.68,2.57-6.14,5.22-12.27,7.44-18.54,4.35-12.3,8.39-24.72,12.68-37.05,1.92-5.51,4.11-10.93,6.25-16.36,1.17-2.95,1.31-6.46,4.99-8.07,.7-.31,.52-2.81,.6-4.31,.05-.91-.59-2.1-.21-2.72,4.26-6.9,8.49-13.9,17.77-15.74-1.03,1.63-1.91,3.02-2.79,4.41,.31,.41,.62,.83,.93,1.24,6.23-2.4,12.46-4.8,19.09-7.35-1.67-2.63-3.21-5.06-5.27-8.3,2.77,0,5.28-.25,7.72,.05,7.02,.85,14,2.17,21.04,2.75,1.93,.16,4.34-1.28,5.97-2.65,1.87-1.57,3.16-3.85,4.62-5.89,2.1-2.94,3.28-6.01,2.06-9.78-.52-1.61-.09-3.53-.09-5.31,.39-.25,.78-.5,1.17-.75,1.05,1.53,2.54,2.93,3.08,4.62,1.7,5.31,1.75,10.59-.55,15.57l-1.45,.03-.91-3.19c-4.47,5.01-9.01,10.09-12.91,14.47,2.06,0,4.85,.08,7.64-.03,2.02-.08,3.95,.06,4.43-3.08,.25-1.66,2.38-3.44,4.09-4.41,5.93-3.34,12.04-6.36,18.1-9.48,1.31-.68,2.66-1.28,3.76-2.64l-13.14,2.47-.46-1.2c.9-.61,1.72-1.54,2.7-1.76,4.6-1.02,9.21-2.01,13.87-2.68,4.51-.66,9.08-.93,13.63-1.34,.95-.09,2.26-.42,2.81,.05,3.33,2.82,6.72,1.55,10.25,.62,6.97-1.83,13.99-3.47,21.1-4.82-5.95,5.1-13.75,4.98-21.31,7.73,12.1,5.81,24.05,10.83,35.29,17.13,11.63,6.53,22.59,14.24,33.73,21.61,1.05,.69,1.22,2.67,1.89,4,.46,.91,.96,1.84,1.65,2.57,4.2,4.44,8.57,8.73,12.67,13.26,2.36,2.61,4.61,5.42,6.38,8.44,1.44,2.46,2.86,5.36,2.92,8.09,.14,6.34-.39,12.35-2.74,18.81-5.69,15.64-9.27,32.04-13.71,48.13-.14,.5-.36,.98-.79,2.12-3.86-2.76-2.25-6.74-3.39-11.03-1.58,1.78-2.99,2.92-3.81,4.38-1.41,2.52-2.43,2.17-3.78,.03-2.44-3.86-4.98-7.67-7.72-11.88-2.11,2.35-2.23,4.23-1.78,7.21,.78,5.11,3.46,6.87,7.94,7.57,.7,.11,1.44,1.48,1.67,2.39,.08,.33-1.24,1.29-2.04,1.48-1.73,.42-3.54,.52-6.13,.86Zm-58.73-105.74c.38-1.46,.37-3.2,1.2-4.32,3.21-4.32,6.6-8.52,10.1-12.61,2.38-2.78,5.04-5.32,8.17-8.58-4.2-1.19-7.6-2.59-11.11-2.95-1.77-.18-5.17,1.31-5.37,2.46-1.48,8.59-6.46,16.85-2.98,25.99,4.16,4.28,7.19,9.87,13.45,11.9,2.92-6.24,5.74-12.3,8.57-18.36,.64,.23,1.28,.47,1.92,.7-1.82,5.16-3.63,10.32-5.68,16.13,3.94-3.3,7.31-6.12,12.23-10.24l-5.67-2.58c.31-.56,.63-1.12,.94-1.67,1.39,.51,3.3,.61,4.07,1.6,2.4,3.1,4.19,6.69,6.55,9.82,4.71,6.23,5.57,14.32,11.44,20.35,3.74,3.84,4.07,11.03,5.8,16.76,.14,.45-.68,1.18-1.47,2.44-1.56-4.09-2.85-7.49-4.42-11.59-.98,6.7,3.79,11.56,2.04,17.94-.88,3.2,2.09,7.46,3.55,11.94,1.26-1.75,2.06-2.7,2.69-3.75,4.03-6.67,7.99-13.38,12.1-20,.53-.85,1.84-1.21,2.79-1.8,.15,1.11,.43,2.23,.41,3.33-.01,.64-.56,1.26-.76,1.92-2.64,8.73-7.95,15.88-13.64,22.76-1.51,1.82-1.73,3.24-.23,5.09,2.53,3.13,4.93,6.35,7.47,9.63l1.49-1.62c1.33,1.87,2.66,3.74,4.25,5.97,1.7-5.25,3.93-10.16,4.84-15.3,2.51-14.22,4.51-28.53,6.56-42.83,.2-1.43-.28-3.35-1.17-4.47-5.21-6.53-10.59-12.94-16-19.3-2.35-2.75-4.93-5.31-7.4-7.96-.16,1.69,.5,2.68,1.06,3.73,3.45,6.52,6.95,13.01,10.24,19.6,.6,1.21,.31,2.86,.43,4.3l-1.37,.13c-1.7-3.31-3.28-6.69-5.15-9.91-1.52-2.62-2.94-5.56-5.18-7.44-6.71-5.64-13.64-11.06-20.81-16.1-4.29-3.01-9.17-5.22-13.85-7.66-3.16-1.64-5.8-1.08-7.89,2.08-2.07,3.13-4.74,5.9-6.59,9.14-1.79,3.11-3.91,5.17-7.59,5.29Zm-126.16,90.52l.25-1.91c-5.11,0-10.23-.09-15.34,.06-1.25,.04-2.49,.84-3.73,1.3,.71,1.4,1.11,3.11,2.17,4.14,4.3,4.18,8.59,8.41,13.27,12.12,5.47,4.33,9.89,9.84,16.68,12.79,3.8,1.65,6.08,6.5,9.68,8.96,10.04,6.86,19.01,15.81,31.86,17.6,.31-.96,.59-1.83,1.06-3.29,2.28,2.98,4.13,5.39,5.97,7.8l-.5,1.06c-5.6-.9-11.2-1.79-18.15-2.91,2.87,3.62,3.84,6.46,1.78,9.57-.22,.32,.52,1.87,.94,1.93,3.1,.43,2.57,2.87,2.79,4.82,.58,5.15,.21,10.45,4.1,14.82,.92,1.04,.41,3.43,.39,5.2-.01,.9-.75,1.88-.57,2.69,1.51,7.03,3.16,14.03,4.85,21.4,17.55-5,35.01-5.43,52.73-1.27-1.12-2.33-2.17-4.37-3.77-5.8-7.42-6.69-13.92-14.52-23.2-18.97-1.3-.62-2.14-2.2-3.19-3.34l.88-.86c.89,.3,1.84,.47,2.66,.9,16.38,8.56,33.79,14.31,51.72,18.5,3.37,.79,7.12,.87,10.55,.33,6.52-1.03,9.62-6.3,13.06-11.34,10.26-15.04,18.19-31.15,23.22-48.65,2.03-7.05,4.01-14.17,.55-20.18-3-1.83-5.37-2.92-7.29-4.54-3.39-2.85-6.66-5.9-9.72-9.11-3.72-3.91-5.77-8.6-5.87-13.8,3.19-1.44,5.97-3.75,8.6-3.59,2.86,.18,5.59,2.65,8.14,4,.88-6.26,.47-6.93-5.9-8.8-1.22,.95-2.51,1.76-3.57,2.81-3.09,3.06-5.97-.43-8.95-.17,1.1-2.05,2.17-4.1,3.31-6.13,.19-.34,.64-.53,.94-.82,3-2.79,2.85-6.25-.2-9.14-1.02-.97-1.7-2.29-3.01-4.12,2.51,.22,4.07,.35,5.76,.5v-3.97c-3.93-1.1-7.77-2.18-11.42-3.21-.62,1.21-1.29,2.53-2.51,4.9,.97-12.85,2.72-14.21,13.34-11.58,.13,.03,.28-.03,.58-.07,.93-16.1-1.09-31.69-8.1-47.14-5.85,5.24-11.3,10.13-16.76,15.02l.63,.98c4.5-1.39,8.9-4.1,12.95,1.16,2.7,3.51,6.31,6.33,9.49,9.48,.06,.06-.22,.46-.78,1.58-4.17-2.37-9.24-3.9-12.14-7.28-2.95-3.44-5-3.61-8.31-1.73-1.87,1.06-3.37,1.53-5.62-.09-1.76-1.26-5.01-1.79-7.02-1.06-4.37,1.6-8.17,4.8-12.57,6.27-5.59,1.87-6.16,6.16-6.6,10.71-.44,4.56,2.75,8.46,7.19,9.21,2.19,.37,4.86,.1,6.44,1.28,1.71,1.28,2.42,3.92,3.56,5.96-1.41,.76-2.75,1.79-4.26,2.21-1.37,.38-2.93,.08-4.3,.08,.06,6.77,5.89,7.38,10.75,10.03-4.25,1.33-3.48,3.37-2.49,5.78,1.41,3.43,3.03,6.44,7.12,7.11,1.12,.18,2.23,.42,3.34,.63-.59,.74-1.19,1.48-1.78,2.22h-5.08c.2,1.29,.33,2.16,.46,3.02-3.75-4.75-9-4.55-14.06-5.36-9.09-1.46-17.77,.75-26.49,2.38-7.76,1.45-9.27,5.66-4.84,11.94,.38,.54,.83,1.03,1.43,1.76,3.92-7.17,9.79-8.23,17.16-6.98,7.85,1.33,11.93,5.73,13.24,13.45,4.47-2.69,8.47-5.24,12.62-7.49,.96-.52,2.48,0,3.74,.04-.24,1.38-.13,2.99-.83,4.07-.76,1.16-2.29,1.83-3.48,2.71l.2,.44,4.33-1.48c.26,.27,.51,.54,.77,.81-.6,1.03-.96,2.47-1.85,3.01-8.01,4.84-12.63,14.39-23,16.08-3.13,.51-5.18,5.92-9.47,2.24-.14-.12-.54,.05-.81,.1-3.63,.72-7.25,1.49-10.89,2.11-.68,.12-1.67-.15-2.16-.62-2.82-2.63-5.74-5.2-8.22-8.14-1.58-1.87-2.89-2.14-4.97-1.13-.85,.41-2.03,.13-3.05,.17,.24-1.1,.25-2.34,.78-3.28,1.93-3.44,4.03-6.78,6.14-10.28-7.06-3.75-13.61-7.22-20.15-10.69-.27,.36-.55,.72-.82,1.09,2.24,2.13,4.62,4.14,6.65,6.45,.86,.98,.99,2.6,1.45,3.93-1.4-.24-2.86-.29-4.18-.76-2.31-.83-4.55-1.86-6.77-2.91-1.83-.86-3.59-1.88-6.1-3.2h-5.91c.42,2.58-1.14,3.35-3.14,2.16-5.55-3.33-11.36-5-17.88-5.39-6.38-.38-12.68-2.04-19.01-3.13,.13,.81,.41,1.06,.74,1.2,13.1,5.77,26.22,11.52,39.31,17.31,4.4,1.95,6.38,5.71,6.88,10.23,.42,3.81,.45,7.66,.71,12.69-2.2-1.02-4.51-1.31-5.17-2.52-4.69-8.53-13.02-13.08-19.93-19.24-9.43-8.39-20.05-13.79-32.3-16.37-2.15-.45-4.17-1.58-6.24-2.4l.17-1.61c2.29-.15,4.59-.48,6.88-.39,2.49,.1,4.96,.59,7.44,.91Zm56.31-106.35c-3.74-2.9-9.85-2.2-24.01,2.61-.27,1.2-.15,2.59-.78,3.22-5.76,5.75-11.96,11.09-17.43,17.09-12.63,13.85-21.59,29.7-24.79,48.44-.35,2.03,.07,4.77-1.1,5.99-5.48,5.72-4.98,13.02-6.61,19.9,6.15,.42,11.75,.81,17.61,1.21,.38-.72,.91-1.75,1.66-3.17-.02,4.56,2.51,5.78,8.68,4.5-2.79-4.11-5.66-8.03-8.14-12.19-.68-1.13-.2-2.95-.26-4.46,1.41,.55,3.36,.7,4.14,1.73,3.42,4.53,6.44,9.37,9.75,13.98,.9,1.25,2.18,2.76,3.54,3.07,8.02,1.82,16.12,3.32,24.45,4.98-1.2-3.35-2.54-7.08-3.96-11.03l3.75-.84c-.96-2.86-1.85-5.52-2.74-8.17l1.48-.71c3.94,2.65,3.47,8.29,6.91,10.84,1.21-.22,2.51-.15,3.08,.53,1.73,2.06,2.7,5.16,4.82,6.41,6.58,3.86,13.56,7.05,20.19,10.4,1.5-1.6,2.78-2.98,4.5-4.82-1.76-.66-3.14-1.18-4.53-1.7-.19-2.59-.93-4.66-2.08-6.47-2.27-3.6-4.91-6.03-4.37-11.72,1.16-12.24-.22-24.72-.57-37.75,1.04-.64,3.05-1.88,5.58-3.43,.21,1.64,.47,2.23,.32,2.69-2.21,6.68,.91,11.19,5.95,14.99,1.67,1.26,3.12,2.81,4.84,3.98,.76,.52,2.11,.86,2.91,.55,6.66-2.61,13.26-5.4,20.21-8.27-.74-1.43-1.37-4.61-3.19-5.63-2.12-1.19-2.12-2.27-1.74-3.87,.71-2.97,1.47-5.95,2.46-8.83,3.7-10.75,7.46-21.47,11.33-32.16,.47-1.31,1.49-2.64,2.62-3.44,2.23-1.57,2.29-1.34,.17-2.76-.78-.52-1.27-1.47-1.9-2.23l.65-.72,3.16,.84c1.45-6.77,2.9-13.54,4.08-19.03-1.3-2.17-2-3.5-2.86-4.72-.35-.5-1.01-1.09-1.56-1.12-4.82-.24-10.15-1.76-14.36-.23-10.44,3.77-20.39,8.93-30.5,13.6-1.23,.57-2.24,1.58-3.36,2.39,.15,.27,.31,.54,.46,.8l8.52-.91c-3.47,1.33-7.07,1.85-10.61,2.64-4.92,1.1-4.85,1.32-2.26,5.79,1.3,2.24,2.22,4.77,2.87,7.28,.26,1.01-.68,2.32-1.19,3.87-2.5-4.42-4.5-8.02-6.57-11.57-1.26-2.17-3.02-2.28-4.91-.83-1.54,1.18-3.16,2.34-4.48,3.75-5.71,6.11-11.3,12.32-17,18.44-.87,.94-2.04,1.61-3.07,2.4l-.96-1.08c6.99-8.26,13.98-16.52,21.17-25.03Zm76.36,240.87c-.69-1.26-.91-2.16-1.48-2.63-3.92-3.19-7.91-6.3-11.9-9.41-.32-.25-.74-.43-1.14-.49-10.67-1.66-21.33-4.4-32.03-4.64-11.64-.25-23.45,1.41-33.29,10.34,.36,1.18,1.03,3.09,1.53,5.04,.5,1.97,1.48,4.12,1.1,5.95-.62,3.09-1.97,6.08-3.37,8.94-.61,1.23-2.24,1.92-3.17,3.05-.79,.96-1.78,2.23-1.72,3.3,.08,1.51,1.06,2.97,1.85,4.92,5.58-2.38,10.65-4.59,15.76-6.7,4.2-1.73,8.38-3.6,12.72-4.92,4.92-1.49,10.2-1.92,14.99-3.71,12.8-4.77,25.65-9.04,40.16-9.05ZM92.01,236.75c10.25-4.69,17.37-13.28,23.56-22.82,1.44-2.22,.8-4.01-1.28-5.69-9.31-7.53-18.53-15.17-27.78-22.78l-.7,.53,4.57,17.18c1.2-1.77,1.97-2.91,2.74-4.04,.56,.53,1.53,1.01,1.6,1.6,.55,4.37,1.64,8.83,1.2,13.12-.79,7.64-2.53,15.19-3.9,22.91Zm30.02,16.67c9.52-4.61,15.19-10.54,17.1-19.63,.26-1.23,1.31-2.79,.88-3.58-2.86-5.21-5.44-10.77-11.7-12.97-2.19-.77-4.33-1.69-7.49-2.93-.36,3.29-1.55,6.5-.81,9.17,1.27,4.58,3.92,8.77,5.62,13.26,.65,1.71,.73,3.92,.27,5.7-.86,3.39-2.29,6.63-3.86,10.98Zm87.55-71.39c.15-5.16-4.64-10.82-9.69-11.45-3.8-.48-10.27,5.05-10.84,9.54-.11,.89,.76,2.4,1.59,2.84,3.18,1.67,6.48,3.13,9.84,4.43,2.28,.88,9.05-3.27,9.11-5.35Zm-24.9-28.61c-1.56-5.58-1.55-5.82,3.5-5.54,4.68,.26,9.34,1.1,14,1.69l.27-1.23c-2.9-.73-5.8-1.47-8.64-2.19-.07-.27-.03-1.37-.44-1.57-4.97-2.48-9.82-6.23-15.62-1.62-1.49,1.18-3.42,1.86-5.21,2.61-2.27,.95-2.96,2.36-1.71,4.58,.74,1.31,1.43,2.64,2.14,3.96,4-.23,7.77-.44,11.72-.67Zm24.4-50.56l1.91,1.23c1.92-2.43,3.38-5.63,5.87-7.1,3.65-2.15,7.69-5.03,12.49-2.17,.79,.47,1.99,.27,3,.38l.68-1.06c-5.02-4.45-10.05-8.91-15.92-14.12-2.85,8.11-5.44,15.47-8.03,22.84Zm98.38,6.65l-1.37-.14c-1.93,17.44-3.86,34.87-5.79,52.31l2.06,.36c1.17-4.89,2.94-9.73,3.36-14.68,.72-8.43,.54-16.94,.86-25.41,.15-4.15,.58-8.29,.88-12.43Zm-136.36,15.09c-.3,6.71-.56,12.65-.83,18.59,.4,.19,.79,.37,1.19,.56,3.41-3.08,6.81-6.15,10.41-9.4-3.53-3.2-6.85-6.2-10.77-9.75Zm-96.67,58.78c.32-4.72,1.74-9.48-3.98-11.82-3.25,4.93-6.49,9.85-10,15.18,4.76-1.14,9.16-2.2,13.98-3.35Zm119.14-46.05c6.38,6.89,13.52,5.01,22.1,2.95-2.49-2.22-4.42-5.39-6.32-5.36-5.15,.06-10.28,1.47-15.78,2.41Zm-84.59-57.26c4.28-4.68,8.38-9.16,13.14-14.36-7.71,.17-11.39,4.53-14.9,9.26-1.9,2.56-1.49,4.18,1.76,5.1Zm200.96,27.61c-.33,5.3-.57,10.15-.96,14.99-.38,4.63-.92,9.26-1.39,13.88l1.11,.1c4.23-12.82,6.92-23.84,1.24-28.97Zm-104.57,38.76c5.98,2.63,11.33,4.99,17.46,7.68-6.35-10.93-10.35-12.78-17.46-7.68Zm-16.6-11.83c3.33-.74,6.63-1.68,10-2.17,3.52-.51,7.11-.57,10.67-.82,.24-.3,.48-.6,.72-.9-1.31-.93-2.68-2.73-3.91-2.64-6.35,.49-12.36,2.34-17.48,6.53Zm34.9,151.81c-.73-7.06-4.01-11.71-8.3-12.07,3.08,3.7,2.5,9.42,8.3,12.07Zm-85.16-89.4l.95-.48c-.48-1.71-.42-4.15-1.55-4.99-3.25-2.4-6.98-4.15-10.52-6.15l-.42,.7c3.85,3.64,7.69,7.28,11.54,10.92Zm11.97-141.5l.04-1c-4.76-.84-9.52-1.68-15.35-2.71,2.08,2.1,3.26,4.34,4.59,4.44,3.54,.25,7.14-.42,10.72-.73Zm-38.87,171.1c2.74,1.76,5.25,3.36,7.75,4.97,.22-.19,.44-.39,.67-.58-1.43-2.93-2.85-5.86-4.55-9.35-1.46,1.88-2.37,3.04-3.87,4.97Zm159.29-49.46c-1.12-6.59-2.77-8.8-6.64-9.22-1.01,4.33-.68,4.8,6.64,9.22Zm-46.08,99.63c1.22,3.59,2.26,6.63,3.3,9.68l.75-.19c-.41-2.65-.82-5.29-1.23-7.94l1.77-.54c1.02,2.26,2.04,4.52,3.21,7.12q.27-6.54-7.81-8.13Zm49.72-201.56c-4.97-9.42-9.18-13.86-12.84-14.58,4.31,4.89,8.57,9.73,12.84,14.58Zm-31.08-19.44c4.34,1.83,8.7,3.66,13.43,5.66-7.44-7.3-11.18-8.79-13.43-5.66Zm-22.69,74.95c-2.25-3.14-5.28-2.13-8.78-1.98,2.55,4.15,5.97,1.81,8.78,1.98Zm40.9,2.78c.14-.43,.29-.86,.43-1.29l-7.97-2.61c-.22,.65-.43,1.29-.65,1.94,2.3,1.93,5.41,1.46,8.19,1.96Z"/><path class="cls-1" d="M96.96,167.04c-2.48-.32-4.95-.81-7.44-.91-2.28-.09-4.58,.24-6.88,.39l-.17,1.61c2.08,.82,4.09,1.95,6.24,2.4,12.25,2.58,22.87,7.98,32.3,16.37,6.91,6.15,15.24,10.7,19.93,19.24,.66,1.2,2.97,1.5,5.17,2.52-.26-5.03-.29-8.88-.71-12.69-.5-4.52-2.48-8.28-6.88-10.23-13.09-5.8-26.2-11.54-39.31-17.31-.33-.14-.61-.39-.74-1.2,6.33,1.1,12.63,2.76,19.01,3.13,6.53,.38,12.34,2.06,17.88,5.39,2,1.2,3.56,.42,3.14-2.16h5.91c2.51,1.33,4.27,2.34,6.1,3.2,2.22,1.05,4.46,2.08,6.77,2.91,1.31,.47,2.78,.52,4.18,.76-.46-1.33-.59-2.95-1.45-3.93-2.03-2.31-4.41-4.32-6.65-6.45,.27-.36,.55-.72,.82-1.09,6.54,3.47,13.08,6.94,20.15,10.69-2.11,3.5-4.21,6.84-6.14,10.28-.53,.94-.53,2.18-.78,3.28,1.03-.04,2.21,.24,3.05-.17,2.08-1.01,3.39-.75,4.97,1.13,2.48,2.93,5.4,5.51,8.22,8.14,.5,.46,1.48,.73,2.16,.62,3.64-.62,7.26-1.39,10.89-2.11,.27-.05,.67-.22,.81-.1,4.29,3.68,6.34-1.73,9.47-2.24,10.37-1.69,14.99-11.24,23-16.08,.9-.54,1.25-1.99,1.85-3.01-.26-.27-.51-.54-.77-.81l-4.33,1.48-.2-.44c1.19-.88,2.72-1.55,3.48-2.71,.7-1.08,.59-2.69,.83-4.07-1.26-.04-2.78-.56-3.74-.04-4.16,2.25-8.15,4.8-12.62,7.49-1.31-7.72-5.39-12.11-13.24-13.45-7.38-1.25-13.25-.19-17.16,6.98-.6-.73-1.05-1.22-1.43-1.76-4.43-6.29-2.92-10.49,4.84-11.94,8.72-1.63,17.4-3.83,26.49-2.38,5.06,.81,10.3,.61,14.06,5.36-.13-.87-.26-1.73-.46-3.02h5.08c.59-.74,1.19-1.48,1.78-2.22-1.11-.21-2.22-.45-3.34-.63-4.08-.67-5.71-3.68-7.12-7.11-.99-2.4-1.76-4.44,2.49-5.78-4.86-2.65-10.69-3.26-10.75-10.03,1.37,0,2.92,.3,4.3-.08,1.51-.41,2.84-1.44,4.26-2.21-1.14-2.05-1.84-4.68-3.56-5.96-1.58-1.18-4.25-.91-6.44-1.28-4.44-.75-7.64-4.65-7.19-9.21,.44-4.55,1.01-8.84,6.6-10.71,4.39-1.47,8.2-4.67,12.57-6.27,2.01-.73,5.26-.2,7.02,1.06,2.25,1.62,3.75,1.15,5.62,.09,3.31-1.88,5.36-1.71,8.31,1.73,2.9,3.38,7.97,4.91,12.14,7.28,.56-1.12,.84-1.52,.78-1.58-3.18-3.15-6.79-5.97-9.49-9.48-4.05-5.26-8.45-2.55-12.95-1.16l-.63-.98c5.45-4.89,10.91-9.78,16.76-15.02,7,15.45,9.03,31.04,8.1,47.14-.3,.04-.45,.1-.58,.07-10.62-2.63-12.37-1.26-13.34,11.58,1.22-2.38,1.89-3.69,2.51-4.9,3.66,1.03,7.49,2.1,11.42,3.21v3.97c-1.69-.15-3.26-.28-5.76-.5,1.31,1.83,1.99,3.15,3.01,4.12,3.05,2.89,3.19,6.35,.2,9.14-.31,.28-.75,.48-.94,.82-1.13,2.03-2.21,4.08-3.31,6.13,2.98-.27,5.86,3.23,8.95,.17,1.05-1.05,2.34-1.86,3.57-2.81,6.37,1.87,6.78,2.54,5.9,8.8-2.55-1.35-5.27-3.82-8.14-4-2.63-.16-5.41,2.15-8.6,3.59,.1,5.2,2.15,9.9,5.87,13.8,3.06,3.21,6.32,6.26,9.72,9.11,1.92,1.62,4.29,2.7,7.29,4.54,3.46,6.01,1.48,13.12-.55,20.18-5.03,17.5-12.96,33.61-23.22,48.65-3.44,5.04-6.54,10.31-13.06,11.34-3.43,.54-7.18,.45-10.55-.33-17.93-4.19-35.34-9.94-51.72-18.5-.82-.43-1.77-.61-2.66-.9l-.88,.86c1.05,1.14,1.89,2.72,3.19,3.34,9.29,4.46,15.78,12.29,23.2,18.97,1.59,1.44,2.65,3.47,3.77,5.8-17.72-4.16-35.17-3.74-52.73,1.27-1.69-7.37-3.34-14.37-4.85-21.4-.18-.82,.56-1.79,.57-2.69,.02-1.77,.54-4.16-.39-5.2-3.89-4.37-3.52-9.67-4.1-14.82-.22-1.95,.32-4.38-2.79-4.82-.42-.06-1.16-1.61-.94-1.93,2.07-3.11,1.1-5.95-1.78-9.57,6.95,1.11,12.55,2.01,18.15,2.91l.5-1.06c-1.85-2.41-3.69-4.82-5.97-7.8-.47,1.46-.75,2.33-1.06,3.29-12.85-1.79-21.82-10.74-31.86-17.6-3.61-2.46-5.88-7.31-9.68-8.96-6.79-2.95-11.21-8.46-16.68-12.79-4.69-3.71-8.98-7.95-13.27-12.12-1.06-1.03-1.47-2.74-2.17-4.14,1.24-.45,2.47-1.26,3.73-1.3,5.11-.15,10.22-.06,15.34-.06l-.25,1.91Zm166.28,35.8c.21-1.38,.6-2.4,.46-3.34-.6-4.18-1.51-8.11-3.31-12.15-3.98-8.96-6.7-18.48-9.93-27.77-.62-1.77-1.26-3.53-1.89-5.29l-1.64,.45c.71,4.94,.69,10.14,2.27,14.78,3.75,10.96,8.26,21.66,12.48,32.46,.08,.19,.45,.27,1.55,.87Zm2.77,33.38c.33-.39,.67-.78,1-1.16-1.04-1.32-1.85-2.97-3.17-3.89-7.52-5.27-22.51-4.45-29.4,1.51-.63,.55-.82,1.6-1.22,2.42,.95,.32,2.03,1.09,2.84,.87,2.53-.7,5.05-1.6,7.42-2.74,6.53-3.17,12.6-2.28,18.53,1.56,1.16,.75,2.66,.97,4,1.44Zm-14.62-34.38c5.31-.88,6.76-2.94,5.22-6.67-1.64,2.1-3.1,3.96-5.22,6.67Z"/><path class="cls-1" d="M153.27,60.69c-7.19,8.5-14.18,16.76-21.17,25.03l.96,1.08c1.03-.79,2.2-1.46,3.07-2.4,5.69-6.12,11.29-12.34,17-18.44,1.32-1.41,2.93-2.57,4.48-3.75,1.89-1.45,3.64-1.34,4.91,.83,2.07,3.56,4.06,7.15,6.57,11.57,.52-1.55,1.45-2.86,1.19-3.87-.65-2.51-1.57-5.04-2.87-7.28-2.59-4.47-2.67-4.69,2.26-5.79,3.54-.79,7.14-1.31,10.61-2.64l-8.52,.91c-.15-.27-.31-.54-.46-.8,1.11-.81,2.13-1.83,3.36-2.39,10.11-4.67,20.06-9.83,30.5-13.6,4.22-1.52,9.55,0,14.36,.23,.55,.03,1.2,.62,1.56,1.12,.86,1.22,1.56,2.55,2.86,4.72-1.18,5.49-2.63,12.26-4.08,19.03l-3.16-.84-.65,.72c.62,.76,1.12,1.71,1.9,2.23,2.12,1.42,2.06,1.2-.17,2.76-1.13,.8-2.15,2.13-2.62,3.44-3.86,10.69-7.63,21.42-11.33,32.16-.99,2.89-1.76,5.86-2.46,8.83-.38,1.6-.38,2.68,1.74,3.87,1.83,1.02,2.45,4.2,3.19,5.63-6.95,2.87-13.55,5.66-20.21,8.27-.79,.31-2.14-.03-2.91-.55-1.72-1.17-3.17-2.72-4.84-3.98-5.04-3.81-8.16-8.32-5.95-14.99,.15-.46-.11-1.05-.32-2.69-2.53,1.56-4.54,2.79-5.58,3.43,.36,13.03,1.74,25.51,.57,37.75-.54,5.68,2.1,8.12,4.37,11.72,1.15,1.81,1.89,3.89,2.08,6.47,1.39,.52,2.78,1.04,4.53,1.7-1.71,1.84-3,3.21-4.5,4.82-6.64-3.35-13.61-6.54-20.19-10.4-2.12-1.24-3.09-4.35-4.82-6.41-.57-.68-1.87-.75-3.08-.53-3.44-2.55-2.97-8.2-6.91-10.84l-1.48,.71c.89,2.66,1.78,5.32,2.74,8.17l-3.75,.84c1.42,3.94,2.76,7.67,3.96,11.03-8.34-1.66-16.43-3.16-24.45-4.98-1.35-.31-2.64-1.81-3.54-3.07-3.32-4.62-6.33-9.45-9.75-13.98-.78-1.03-2.73-1.18-4.14-1.73,.06,1.51-.42,3.33,.26,4.46,2.48,4.15,5.35,8.08,8.14,12.19-6.17,1.29-8.7,.06-8.68-4.5-.75,1.42-1.28,2.45-1.66,3.17-5.86-.4-11.46-.79-17.61-1.21,1.63-6.88,1.13-14.18,6.61-19.9,1.17-1.22,.76-3.96,1.1-5.99,3.2-18.74,12.16-34.59,24.79-48.44,5.48-6,11.67-11.34,17.43-17.09,.63-.63,.52-2.02,.78-3.22,14.16-4.81,20.27-5.51,24.01-2.61Zm59.15-4.81c-4.73-.08-5.02-4.46-6.62-7.47-3.36-6.33-3.48-6.42-7.73-1.14-.44,.54-.93,1.03-1.37,1.57-8.44,10.31-16.97,20.55-25.27,30.97-2.34,2.93-4.02,6.38-6,9.59l1.34,1.07c1.36-1.69,2.72-3.4,4.09-5.08,6.6-8.07,13.13-16.21,19.83-24.19,5.3-6.3,11.4-6.63,17.89-1.41,1.05,.84,2.53,1.15,3.83,1.71v-5.63Z"/><path class="cls-1" d="M223.11,76.52c3.68-.13,5.81-2.18,7.59-5.29,1.86-3.24,4.52-6.01,6.59-9.14,2.09-3.16,4.73-3.73,7.89-2.08,4.68,2.44,9.56,4.64,13.85,7.66,7.17,5.04,14.1,10.46,20.81,16.1,2.24,1.88,3.66,4.83,5.18,7.44,1.87,3.22,3.44,6.6,5.15,9.91l1.37-.13c-.12-1.45,.17-3.1-.43-4.3-3.29-6.6-6.79-13.09-10.24-19.6-.56-1.05-1.22-2.05-1.06-3.73,2.47,2.65,5.05,5.2,7.4,7.96,5.42,6.36,10.8,12.76,16,19.3,.89,1.12,1.38,3.04,1.17,4.47-2.04,14.3-4.05,28.61-6.56,42.83-.91,5.14-3.14,10.04-4.84,15.3-1.58-2.22-2.91-4.1-4.25-5.97l-1.49,1.62c-2.53-3.28-4.94-6.5-7.47-9.63-1.49-1.85-1.27-3.27,.23-5.09,5.69-6.88,10.99-14.04,13.64-22.76,.2-.66,.75-1.28,.76-1.92,.02-1.11-.26-2.22-.41-3.33-.95,.59-2.26,.95-2.79,1.8-4.11,6.61-8.07,13.33-12.1,20-.64,1.05-1.43,2-2.69,3.75-1.46-4.47-4.43-8.74-3.55-11.94,1.76-6.38-3.02-11.24-2.04-17.94,1.56,4.1,2.86,7.49,4.42,11.59,.78-1.26,1.6-2,1.47-2.44-1.74-5.73-2.06-12.92-5.8-16.76-5.88-6.03-6.74-14.12-11.44-20.35-2.37-3.13-4.15-6.72-6.55-9.82-.77-.99-2.68-1.09-4.07-1.6-.31,.56-.63,1.12-.94,1.67l5.67,2.58c-4.91,4.11-8.29,6.94-12.23,10.24,2.05-5.81,3.86-10.97,5.68-16.13-.64-.23-1.28-.47-1.92-.7-2.83,6.06-5.66,12.11-8.57,18.36-6.26-2.04-9.29-7.63-13.45-11.9h0Z"/><path class="cls-1" d="M229.64,301.56c-14.51,.01-27.36,4.28-40.16,9.05-4.79,1.79-10.07,2.22-14.99,3.71-4.34,1.31-8.51,3.19-12.72,4.92-5.12,2.11-10.18,4.32-15.76,6.7-.79-1.95-1.76-3.41-1.85-4.92-.06-1.08,.93-2.34,1.72-3.3,.93-1.13,2.57-1.82,3.17-3.05,1.4-2.86,2.75-5.85,3.37-8.94,.37-1.84-.6-3.98-1.1-5.95-.5-1.95-1.16-3.86-1.53-5.04,9.85-8.93,21.66-10.59,33.29-10.34,10.71,.23,21.36,2.98,32.03,4.64,.4,.06,.83,.24,1.14,.49,3.98,3.11,7.98,6.22,11.9,9.41,.57,.47,.79,1.37,1.48,2.63Z"/><path class="cls-1" d="M92.01,236.75c1.37-7.72,3.12-15.26,3.9-22.91,.44-4.29-.64-8.76-1.2-13.12-.07-.59-1.04-1.07-1.6-1.6-.77,1.13-1.53,2.27-2.74,4.04l-4.57-17.18,.7-.53c9.25,7.6,18.47,15.25,27.78,22.78,2.08,1.68,2.71,3.47,1.28,5.69-6.19,9.54-13.31,18.13-23.56,22.82Z"/><path class="cls-1" d="M122.03,253.41c1.57-4.35,3-7.59,3.86-10.98,.45-1.78,.37-3.99-.27-5.7-1.7-4.49-4.35-8.67-5.62-13.26-.74-2.67,.46-5.88,.81-9.17,3.16,1.24,5.3,2.16,7.49,2.93,6.25,2.2,8.84,7.76,11.7,12.97,.43,.79-.62,2.35-.88,3.58-1.9,9.08-7.58,15.02-17.1,19.63Z"/><path class="cls-1" d="M209.58,182.02c-.06,2.08-6.84,6.23-9.11,5.35-3.35-1.29-6.65-2.76-9.84-4.43-.83-.44-1.7-1.95-1.59-2.84,.57-4.49,7.05-10.02,10.84-9.54,5.06,.63,9.85,6.29,9.69,11.45Z"/><path class="cls-1" d="M223.12,76.51c-3.48-9.14,1.5-17.4,2.98-25.99,.2-1.16,3.6-2.64,5.37-2.46,3.51,.35,6.91,1.76,11.11,2.95-3.12,3.26-5.79,5.8-8.17,8.58-3.5,4.1-6.89,8.29-10.1,12.61-.83,1.12-.82,2.86-1.2,4.32h0Z"/><path class="cls-1" d="M184.68,153.41c-3.95,.22-7.72,.44-11.72,.67-.71-1.32-1.4-2.65-2.14-3.96-1.25-2.22-.56-3.62,1.71-4.58,1.79-.75,3.72-1.42,5.21-2.61,5.8-4.61,10.65-.86,15.62,1.62,.41,.2,.37,1.3,.44,1.57,2.84,.72,5.74,1.45,8.64,2.19l-.27,1.23c-4.67-.59-9.32-1.43-14-1.69-5.05-.28-5.07-.04-3.5,5.54Z"/><path class="cls-1" d="M209.08,102.85c2.59-7.36,5.18-14.73,8.03-22.84,5.87,5.21,10.9,9.66,15.92,14.12l-.68,1.06c-1.01-.11-2.2,.09-3-.38-4.81-2.86-8.84,.03-12.49,2.17-2.49,1.46-3.95,4.67-5.87,7.1l-1.91-1.23Z"/><path class="cls-1" d="M307.46,109.5c-.3,4.14-.72,8.28-.88,12.43-.32,8.47-.13,16.98-.86,25.41-.42,4.95-2.2,9.79-3.36,14.68l-2.06-.36c1.93-17.44,3.86-34.87,5.79-52.31l1.37,.14Z"/><path class="cls-1" d="M171.1,124.59c3.92,3.55,7.24,6.55,10.77,9.75-3.6,3.25-7.01,6.33-10.41,9.4-.4-.19-.79-.37-1.19-.56,.26-5.94,.53-11.88,.83-18.59Z"/><path class="cls-1" d="M74.43,183.37c-4.82,1.16-9.22,2.21-13.98,3.35,3.51-5.33,6.75-10.25,10-15.18,5.72,2.35,4.31,7.1,3.98,11.82Z"/><path class="cls-1" d="M193.57,137.32c5.5-.94,10.63-2.35,15.78-2.41,1.9-.02,3.83,3.14,6.32,5.36-8.58,2.06-15.71,3.94-22.1-2.95Z"/><path class="cls-1" d="M108.98,80.06c-3.25-.92-3.66-2.55-1.76-5.1,3.51-4.73,7.19-9.08,14.9-9.26-4.76,5.2-8.86,9.68-13.14,14.36Z"/><path class="cls-1" d="M309.94,107.67c5.67,5.13,2.99,16.15-1.24,28.97l-1.11-.1c.47-4.63,1.01-9.25,1.39-13.88,.39-4.84,.63-9.7,.96-14.99Z"/><path class="cls-1" d="M205.37,146.43c7.11-5.09,11.11-3.25,17.46,7.68-6.13-2.7-11.49-5.05-17.46-7.68Z"/><path class="cls-1" d="M188.77,134.6c5.12-4.19,11.13-6.03,17.48-6.53,1.23-.1,2.6,1.71,3.91,2.64-.24,.3-.48,.6-.72,.9-3.56,.26-7.15,.32-10.67,.82-3.37,.48-6.67,1.43-10,2.17Z"/><path class="cls-1" d="M223.67,286.41c-5.8-2.64-5.22-8.36-8.3-12.07,4.29,.36,7.57,5.01,8.3,12.07Z"/><path class="cls-1" d="M138.51,197.01c-3.85-3.64-7.69-7.28-11.54-10.92l.42-.7c3.54,2,7.27,3.75,10.52,6.15,1.13,.83,1.07,3.28,1.55,4.99l-.95,.48Z"/><path class="cls-1" d="M150.49,55.52c-3.58,.31-7.18,.98-10.72,.73-1.33-.09-2.51-2.33-4.59-4.44,5.83,1.03,10.59,1.87,15.35,2.71l-.04,1Z"/><path class="cls-1" d="M111.61,226.61c1.5-1.93,2.41-3.09,3.87-4.97,1.7,3.49,3.12,6.42,4.55,9.35-.22,.19-.44,.39-.67,.58-2.5-1.61-5.01-3.21-7.75-4.97Z"/><path class="cls-1" d="M270.9,177.15c-7.32-4.42-7.65-4.89-6.64-9.22,3.87,.41,5.52,2.62,6.64,9.22Z"/><path class="cls-1" d="M224.83,276.78q8.08,1.59,7.81,8.13c-1.18-2.61-2.19-4.86-3.21-7.12l-1.77,.54c.41,2.65,.82,5.29,1.23,7.94l-.75,.19c-1.04-3.05-2.08-6.09-3.3-9.68Z"/><path class="cls-1" d="M274.55,75.22c-4.27-4.84-8.53-9.69-12.84-14.58,3.65,.72,7.87,5.15,12.84,14.58Z"/><path class="cls-1" d="M243.47,55.79c2.25-3.13,5.99-1.64,13.43,5.66-4.73-1.99-9.09-3.83-13.43-5.66Z"/><path class="cls-1" d="M220.78,130.74c-2.81-.17-6.24,2.17-8.78-1.98,3.5-.15,6.53-1.16,8.78,1.98Z"/><path class="cls-1" d="M261.68,133.52c-2.78-.5-5.89-.04-8.19-1.96,.22-.65,.43-1.29,.65-1.94l7.97,2.61c-.14,.43-.29,.86-.43,1.29Z"/><path d="M263.24,202.84c-1.1-.6-1.48-.68-1.55-.87-4.23-10.8-8.74-21.5-12.48-32.46-1.59-4.64-1.56-9.84-2.27-14.78l1.64-.45c.63,1.76,1.27,3.52,1.89,5.29,3.24,9.29,5.95,18.81,9.93,27.77,1.8,4.04,2.71,7.98,3.31,12.15,.14,.94-.26,1.96-.46,3.34Z"/><path d="M266.02,236.22c-1.34-.46-2.84-.69-4-1.44-5.93-3.84-12-4.73-18.53-1.56-2.37,1.15-4.88,2.04-7.42,2.74-.8,.22-1.88-.55-2.84-.87,.4-.82,.59-1.87,1.22-2.42,6.89-5.97,21.88-6.78,29.4-1.51,1.32,.92,2.12,2.58,3.17,3.89-.33,.39-.67,.78-1,1.16Z"/><path d="M251.39,201.84c2.12-2.71,3.58-4.57,5.22-6.67,1.53,3.72,.09,5.79-5.22,6.67Z"/><path d="M212.42,55.88v5.63c-1.31-.56-2.79-.87-3.83-1.71-6.49-5.22-12.59-4.89-17.89,1.41-6.71,7.98-13.23,16.11-19.83,24.19-1.38,1.68-2.73,3.39-4.09,5.08l-1.34-1.07c1.98-3.21,3.67-6.66,6-9.59,8.3-10.42,16.83-20.66,25.27-30.97,.44-.54,.94-1.03,1.37-1.57,4.25-5.29,4.36-5.19,7.73,1.14,1.6,3.01,1.88,7.39,6.62,7.47Zm-14.71-2.23c2.54,.24,4.25,.4,6.7,.63-1.13-2-1.93-3.42-2.89-5.12-1.28,1.5-2.24,2.64-3.81,4.49Z"/><path class="cls-1" d="M197.71,53.64c1.58-1.86,2.54-2.99,3.81-4.49,.96,1.7,1.76,3.12,2.89,5.12-2.45-.23-4.15-.39-6.7-.63Z"/></g></g></g></g></svg>