<?xml version="1.0" encoding="UTF-8"?><svg id="_層_2" xmlns="http://www.w3.org/2000/svg" xmlns:xlink="http://www.w3.org/1999/xlink" viewBox="0 0 412.06 412.06"><defs><style>.cls-1{fill:#fff;}.cls-2{clip-path:url(#clippath);}.cls-3{fill:none;}</style><clipPath id="clippath"><circle class="cls-3" cx="206.03" cy="206.03" r="206.03"/></clipPath></defs><g id="_審3"><g id="_層_40"><g class="cls-2"><g><path class="cls-1" d="M923.4,1002.6H-99.28V-20.08c340.89,0,681.79,0,1022.68,0V1002.6ZM223.18,568.79l.1,.09c-.55-1.59-.63-3.79-1.74-4.65-4.22-3.27-8.51-6.68-13.29-8.94-3.89-1.83-8.5-2.65-12.84-2.85-2.75-.13-4.85-.56-7.09-2.11-5.52-3.81-12.01-5.91-18.22-3.49-6.5,2.53-12.88,3.73-19.71,3.52-.65-.02-1.37-.02-1.94,.24-5.53,2.55-10.87,2.68-16.67,.3-2.4-.99-4.25-1.22-3.62-4.44-5.83,.02-10.29,2.83-15.03,4.91-11.26,4.96-19.82,13.36-28.42,21.75-.09,.08-.11,.23-.26,.57,.73,.18,1.44,.35,2.28,.56-3.08,3.65-6.17,6.87-8.74,10.47-2.51,3.52-4.32,7.54-6.74,11.14-21.81,32.43-40.49,66.63-56.72,102.12-5.95,13.01-11.02,26.57-15.03,40.3-4.07,13.9,.04,23.68,11.32,29.91,5.89,3.25,12.55,5.12,18.9,7.52,.84,.32,1.89,.04,2.85,.04-.79-1.14-1.7-1.52-2.6-1.9-5.06-2.13-10.28-3.96-15.15-6.45-11.6-5.95-15.38-14.05-12.91-26.86,2.89-14.94,9.01-28.78,15.82-42.17,9.43-18.53,19.77-36.61,29.79-54.84,5.23-9.52,10.19-19.24,16.02-28.39,8.69-13.64,17.53-27.25,27.35-40.08,4.83-6.31,11.7-11.25,18.21-16.04,4.97-3.65,10.94-5.52,16.78-3.87-3.69,3.46-8.15,6.61-11.29,10.77-7.86,10.43-15.38,21.15-22.55,32.07-5.8,8.84-10.97,18.11-16.28,27.27-11.04,19.02-18.79,39.51-26.59,59.98-5.74,15.06-10.36,30.33-11.35,46.19-.14-.53-.38-1.45-.62-2.37-2.86,12.98,2.1,23.6,9.6,33.58,5.87,7.81,11.45,15.84,17.66,24.47-7.78-2.18-14.56-5.11-21.92-2.47,2.49,.82,5.03,1.24,7.56,1.76,8.42,1.71,16.67,3.9,22.46,10.92,3.39,4.11,6.36,8.57,9.72,12.7,1.03,1.27,2.65,2.15,4.16,2.9,2.05,1.03,4.87,1.21,6.24,2.76,2.82,3.19,5.76,6.34,5.58,11.48-.16,4.46,1.33,8.97,2.09,13.46-4.38-.89-6.35,2.57-8.56,5.09-10.07,11.52-17.38,24.77-23.62,38.64-.32,.72-.39,1.56-.58,2.34,1.45-.83,2.38-1.88,3.1-3.07,1.48-2.46,2.78-5.03,4.27-7.49,7.14-11.84,13.55-24.23,24.63-33.17,.53-.43,.44-1.64,.63-2.48,.22,.47,.57,.93,.63,1.42,1.99,15.33-3.15,28.34-12.98,39.84-.79,.93-1.08,2.29-1.6,3.45,1.28-.27,3.01-.1,3.77-.88,3.83-3.92,7.42-8.08,11.07-12.18,1.04-1.17,1.76-3.13,3-3.51,4.73-1.43,6.77-5.35,8.69-9.11,4.58-8.97,8.83-18.11,13.06-27.25,1.22-2.64,2.75-3.85,5.59-2.78,2.27,20.69,7.86,38.95,16.12,52.98,5.3,9,12.44,15.87,22.51,19.17,9.65,3.16,19.32,3.88,29.52-.94-3.45,.27-6.17,.5-8.89,.69-17.31,1.22-31.03-4.78-40.01-20.09-9.23-15.74-13.84-32.98-16.33-50.9-.31-2.21,.62-2.98,2.44-3.67,4.89-1.86,9.72-3.9,14.59-5.84,.84-.33,1.71-.68,2.59-.77,2.55-.25,3.75-2.26,5.28-3.87-.64-.6-1.29-1.71-1.9-1.68-1.1,.04-2.19,.73-3.26,1.21-8.54,3.84-17.07,7.69-26.06,11.75,.25-1.37,.36-2.24,.58-3.08,2.47-9.52,.89-18.24-6.66-24.77-8.29-7.17-16.83-14.19-25.95-20.21-8.15-5.38-12.27-12.08-12.12-21.71,.01-.93-1.23-1.87-1.89-2.81-.74,.72-1.81,1.31-2.16,2.18-.72,1.8-.99,3.79-1.58,5.65-1.77,5.63-3.29,6.08-8.28,2.74-1.35-.9-2.94-1.44-5.14-2.48-6.1-18.29-6.38-37.54-.8-56.91,5.28,.57,10.02,3.78,15.32,3.02l.21-1.09c-4.15-1.45-8.31-2.89-13.26-4.61,3.46-1.84,5.61-2.42,7.89-.08,.82,.84,2.54,.81,4.75,1.43-4.48-4.98-8.01-8.9-12.29-13.66,4.54,.36,7.86,.63,11.07,.88,.31,2.74,.59,5.2,.88,7.66l.59,.03,2.07-7.17c-3.26,11.44,4.12,21.52,4.17,32.55,0,.75,.34,1.55,.7,2.24,3.7,7.11,6.29,14.57,7.64,22.5,.25,1.49,1.76,3.32,3.13,3.85,.83,.32,2.51-1.56,3.98-2.58,1.85,2.58,3.74,5.58,6,8.27,5.24,6.22,9.59,13.6,18.17,15.93,2.53,.69,5.31,.48,7.76,.66-.41,.68-.99,1.64-1.56,2.61,1.17,.25,2.34,.7,3.52,.71,1.15,0,2.32-.39,3.45-.7,3.62-1,7.22-2.05,11.58-3.3,2.95,10.12,5.97,19.95,8.64,29.87,1.45,5.4,2.73,10.95,0,16.44-1.04,2.1-1.92,4.28-2.89,6.42-1.94,4.26-1.12,6.16,3.4,6.96,5.67,.99,11.39,1.79,17.1,2.51,1.37,.17,2.82-.29,4.24-.46l.06-1.2c-7.15-1.54-14.3-3.08-21.98-4.74,2.36-1.89,4.16-3.34,5.72-4.59,4.49,2.48,8.59,5.1,12.97,7.1,9.42,4.28,18.61,3.69,27.17-2.4,2.66-1.89,4.86-4.58,7.72-6.01,3.52-1.76,5.52-4.27,7.19-7.71,1.34-2.76,3.9-4.9,5.72-7.45,3.76-5.25,3.71-5.29,7.63-.52,.12,.15,.47,.12,.99,.23,.34-.79,.69-1.62,1.12-2.6,14.58,18.02,34.71,29.16,53.24,43.76-10.9,6.16-21.07,11.92-31.74,17.96,1.29,.14,2.02,.22,3.87,.42-11.84,7.49-22.77,14.4-33.71,21.32,2.72,.04,5.36-.35,7.49-1.61,8-4.72,15.84-9.72,23.74-14.63,2.22-1.38,4.41-2.79,6.62-4.18-13.44,16.49-27.04,32.57-28.68,55.07,3.58-5.54,6.83-11.27,9.68-17.19,2.66-5.53,4.07-11.83,7.5-16.79,9.77-14.13,22.5-25.59,35.48-36.73,1.61-1.38,2.9-1.59,4.75-.13,12.46,9.84,24.3,20.33,34.61,32.44,1.05,1.24,2.06,2.85,2.28,4.4,1.01,7.12,1.71,14.27,2.56,21.41,.34,2.86,.79,5.71,1.19,8.57,.42,.02,.83,.04,1.25,.05,.25-1.24,.79-2.5,.71-3.71-.33-4.83-.81-9.65-1.31-14.47-.28-2.73-1.77-5.9-.84-8.06,1.51-3.52-.03-5.68-1.87-7.65-8.74-9.36-17.63-18.59-26.6-27.73-2.28-2.33-4.58-4.1-4.83-7.96-.29-4.55-2.07-5.11-6.75-3.94-1.19,.3-2.91,.15-3.85-.53-12.53-9.04-25.14-17.99-37.34-27.45-7.4-5.74-14.71-11.82-18.15-21.16-.46-1.26-2.1-2.61-3.44-2.94-4.15-1.02-5.17-3.98-5.97-7.6-2.4-10.86-5.08-21.65-7.49-32.51-.28-1.24-.04-3.27,.77-3.93,1.65-1.34,3.17-.59,4.39,1.38,2.08,3.38,5.49,4.78,9.17,3.64,3.55-1.1,6.82-3.11,10.17-4.8,1.03-.52,1.9-1.78,2.9-1.85,3.25-.22,5.05-2.4,5.36-4.93,.77-6.35,5.7-9.51,9.65-13.22,4.45-4.18,8-8.62,9.09-14.71,.58-3.25,2.47-5.23,5.4-6.7,11.66-5.87,23.26-11.86,34.82-17.93,2.23-1.17,4.43-2.67,6.12-4.49,.88-.95,1.38-3.53,.74-4.34-1.03-1.31-3.06-2.08-4.81-2.54-11.1-2.89-22.24-5.63-33.29-8.4,3.35-14.71,6.2-28.41,3.09-42.94-3.43-16.01-9.47-30.18-22.26-40.87-5.7-4.77-11.38-9.56-17.31-14.03-5.21-3.93-11.07-6.46-17.83-6.08Zm300.89-13.61v7.75c-3.3-.64-6.32-1.41-9.38-1.78-8.15-1-16.31-2.07-24.5-2.6-2.79-.18-5.68,1.14-9.09,1.91,1.04,1.08,1.22,1.43,1.39,1.42,2.6-.11,5.19-.33,7.78-.4,3.06-.08,5.66,2.97,3.98,5.15-1.7,2.21-.49,3.39,.3,4.77,2.98,5.2,6.14,10.3,8.73,14.58-.81,2.4-1.32,3.9-1.83,5.41,1.45-.2,2.89-.39,3.49-.48,6.61,7.92,13.1,15.59,19.48,23.36,2.86,3.48,5.53,7.11,8.21,10.72,.31,.42,.35,1.27,.17,1.8-2.7,7.46-5.36,14.94-8.32,22.3-.42,1.03-2.33,1.83-3.66,2.05-5.67,.93-11.44,1.3-17.05,2.44-6.55,1.33-8.36,4.34-6.75,10.75,2.23,8.84,4.75,17.6,7.29,26.91-8.49-1.01-16.62-1.98-24.19-2.88-.75-1.45-1.26-2.43-1.77-3.41-1.15,.86-2.31,1.73-3.48,2.61-1.52-2.96-3.13-2.2-4.68,.51-3.51,6.13-6.7,12.48-10.63,18.33-2.95,4.39-6.84,8.16-10.35,12.17-.19,.21-.67,.17-1.01,.24-1.65,.33-3.3,.67-5.02,1.01,.15-3.11,.3-6.36,.46-9.6l-1.41-.17c-.43,1.93-1.35,3.89-1.21,5.77,.51,6.93-3.8,9.72-9.35,11.65-.86,.3-1.94,.47-2.49,1.08-1.05,1.16-2.65,2.72-2.5,3.91,.82,6.32-3.44,10.41-5.73,15.26-3.22-.83-6.08-1.72-8.99-2.28-2.91-.57-4.86,.89-5.6,3.67-1.21,4.53-2.56,9.06-3.27,13.67-.53,3.43-.1,6.99-.18,10.5-.05,2.24,0,4.53-.44,6.71-.65,3.17-3,6.58-2.31,9.3,1.12,4.4-.18,7.17-3.18,9.57-6.16,4.92-7.15,10.74-3.67,17.59,.29,.58,.35,1.27,.63,1.85,1.01,2.12,.65,5.2,4.07,5.73,.33,.05,.9,1.88,.59,2.26-1.5,1.85-2.96,4.1-4.98,5.1-8.42,4.17-16.13,9.22-22.49,16.18-4.39,4.8-7.32,9.98-3.53,16.59,.43,.76,.45,1.77,.61,2.67,1.64,9.26,2.56,18.71,5.06,27.73,3.27,11.79,7.44,23.36,11.93,34.75,2.3,5.84,6.32,10.91,12.64,13.35,4.54,1.76,8.47,1.14,11.34-2-10.12,2.19-15.91-3.27-20.12-11.01-2.49-4.58-4.66-9.4-6.42-14.31-5.99-16.7-9.86-33.9-11.84-51.56-.5-4.45-1.83-8.8,1.97-12.46,3.19-3.08,6.41-6.13,9.61-9.19,.21,.23,.41,.46,.62,.69-1.15,1.43-2.31,2.87-3.46,4.3,.32,.42,.64,.85,.96,1.27,3.76-2.41,7.51-4.82,11.03-7.08,1.74,9.25,3.14,18.41,5.22,27.42,2.97,12.87,8.68,24.72,16.05,35.54,6.41,9.41,15.59,15.27,27.73,15.89-.52,.75-.66,1.14-.94,1.34-8.71,6.03-17.44,12-26.12,18.07-1.14,.8-1.97,2.03-2.95,3.06,.35,.37,.71,.73,1.06,1.1,8.44-3.15,16.55-7.02,23.74-12.53,2.17-1.66,3.55-4.32,5.49-6.33,1.95-2.02,4.16-3.79,6.26-5.66,.33,.35,.66,.69,1,1.04-4.27,5.46-8.54,10.92-12.81,16.38,.28,.34,.56,.68,.84,1.02,1.37-.9,3.06-1.53,4.05-2.73,5.06-6.16,10.81-11.99,14.72-18.84,9.33-16.35,17.76-33.21,26.57-49.86,1.03-1.95,1.69-4.61,3.34-5.64,6.01-3.77,6.69-10.57,9.54-16.01,2.44-4.67,4.68-8.32,10.5-8.68,1.74-.1,3.65-1.44,5.02-2.71,2.19-2.04,4.04-4.45,5.93-6.78,6.37-7.87,12.7-15.77,19.05-23.66l1.44,.59c-.86,2.31-1.72,4.62-2.59,6.94l.9,.46c5.2-5.05,7.82-11.85,11.2-18.05,1,.77,1.8,1.4,3.16,2.45,0-1.74,.06-2.62,0-3.49-.57-7.3-1.34-14.59-1.7-21.89-.31-6.22-2.45-9.01-8.49-9.99-1.28-.21-2.74-.06-3.84-.61-4.75-2.41-8.38-.39-11.63,2.82-2.01,1.98-3.71,4.26-5.87,6.79,.37-6.91-6.99-6.23-9.9-11.09,3.14,1.28,5.49,2.38,7.94,3.15,.78,.25,1.83-.35,2.75-.55-.47-.93-.71-2.3-1.46-2.7-2.06-1.1-4.46-1.57-6.51-2.68-5.03-2.71-10.15-5.34-14.86-8.57-4.47-3.06-3.89-6.4,.93-8.31,1.21-.48,2.4-1.03,3.59-1.57,4.91-2.2,9.64-5.21,15.46-3.12,.72,.26,1.69-.2,2.55-.32-.99-1.37-1.99-1.91-3.04-2.28-6.3-2.24-6.4-2.22-6.53-8.97-.03-1.39,.96-2.79,1.48-4.19,1.08,1.05,2.51,1.91,3.17,3.18,3.92,7.48,7.83,14.87,17.87,16.54-3.06,1.04-5.57,1.89-8.08,2.74,.09,.36,.19,.73,.28,1.09,3.03-.48,6.04-1.1,9.09-1.37,1.43-.12,3.36-.05,4.3,.79,7.16,6.34,17.42,8.95,22.09,18.27,19.35,18.42,38.58,36.98,58.12,55.2,6.11,5.69,13.03,10.52,19.66,15.64,2.51,1.94,4.99,2.13,7.04-.92,5.77-8.59,11.63-17.12,17.38-25.71,.72-1.07,1.01-2.42,1.51-3.65l-1.3-.79c-7.17,9.71-14.33,19.42-21.89,29.65-28.85-21.74-53.51-48.17-80.13-72.45,4.93,2.42,9.67,5.14,14.51,7.64,5,2.58,10.06,5.06,15.19,7.37,5.01,2.25,10.11,4.34,15.24,6.31,5.25,2.01,10.56,3.92,15.92,5.63,4.94,1.58,9.76,3.88,15.26,3.39-34.19-12.14-67.21-26.44-97.67-47.68,1.85-.49,3.21-.72,4.46-1.21,1.41-.55,3.3-.98,3.99-2.08,1.87-2.97,3.25-6.26,4.73-9.47,.3-.64,.47-1.96,.16-2.17-3.15-2.18-3.31-5.92-4.96-8.86-3.65-6.5-7.78-12.73-11.88-18.96-.94-1.43-2.57-3.45-3.87-3.44-5.86,.05-11.61-3.01-17.52-.67-.36,.14-.88,.35-1.13,.2-1.09-.64-2.75-1.2-3.05-2.15-2.81-8.86-5.34-17.8-8.04-26.7-.97-3.19,.2-5.32,3.23-5.98,5.68-1.23,11.45-2.09,17.18-3.1,.2,.38,.39,.76,.59,1.14-4.91,7.5-9.83,15-14.74,22.5l1.12,1c1.14-.83,2.29-1.62,3.4-2.48,5.27-4.08,12.6-7.38,18.02-1.37,3.84,4.24,7.96,8.26,12.17,12.13,4.31,3.96,8.92,7.6,13.33,11.46,1.43,1.25,2.41,3.1,3.96,4.09,5.89,3.78,12.07,7.11,17.88,11.01,12.68,8.5,26.02,15.66,40.47,20.65,10.12,3.49,20.62,6.04,29.77,11.96,1.64,1.06,3.46,1.83,5.16,2.79,10.94,6.17,22.01,12.12,32.74,18.64,5.8,3.52,5.97,5.79,2.89,11.75-.84,1.63-1.79,3.2-2.63,4.83-16.75,32.56-33.5,65.13-50.22,97.71-.78,1.53-1.36,3.16-2.04,4.74l1.3,.73c1.06-1.46,2.31-2.82,3.16-4.39,17.97-33.46,35.94-66.92,53.82-100.42,4.86-9.11,3.93-13.5-4.79-19.19-7.98-5.21-16.46-9.67-24.72-14.46-1.19-.69-2.4-1.33-4.21-2.32,7.82-3.68,15.02-7.03,22.19-10.43,12.14-5.76,24.27-11.55,36.4-17.36,1.93-.92,4.53-2,1.23-4.25-5.94-4.06-11.8-8.36-18.17-11.63-4.55-2.34-7.91-5.54-10.44-9.62-1.48-2.38-1.88-5.43-2.76-8.18,.43-.18,.86-.36,1.29-.54,1.91,1.34,3.9,2.58,5.71,4.03,6.21,4.98,12.39,9.99,18.52,15.07,3.72,3.09,7.39,6.25,10.95,9.52,2.48,2.28,2.28,4.48,.37,7.5-4.8,7.61-9.2,15.49-13.3,23.5-1.22,2.38-1.52,5.61-1.18,8.32,.73,5.8,2.2,11.5,3.28,17.26,.22,1.18,.41,2.56,0,3.61-.79,2.01-2.02,3.84-3.12,5.82-3.39-1.51-6.97-3.11-10.56-4.71l-.88,1.51c4.2,2.71,8.39,5.43,11.94,7.72,3.07,1.43,5.66,2.37,7.97,3.76,10.52,6.31,18.79,15.19,27.01,24.09,.65,.7,.89,1.78,1.31,2.69,.53-.54,1.06-1.08,1.58-1.62-8.04-14.04-20.28-23.7-35.2-31.66,6.26-6.42,2.82-13.09,1.36-19.57-1.79-7.9-1.22-15.2,3.32-22.13,3.44-5.25,6.37-10.83,9.79-16.09,3.24-5,3.36-7.81-.39-12.37-1.32-1.61-2.77-3.19-4.41-4.46-10.95-8.48-21.99-16.83-32.91-25.34-1.03-.8-1.91-2.45-1.94-3.73-.05-2.3,.67-4.62,.91-6.94,.13-1.26-.09-2.56-.17-4.23,1.79,.49,4.05,.75,5.97,1.7,6.44,3.2,12.71,6.73,19.14,9.94,2.42,1.21,5.1,1.93,7.66,2.87l.79-1.24c-.71-.91-1.49-1.78-2.11-2.74-2.23-3.48-5.02-6.77-6.49-10.56-2.76-7.18-3.26-14.77-2.24-22.45,.44-3.32,1.83-5.79,4.57-7.84,4.51-3.36,8.73-7.09,13.14-10.59,1.82-1.45,3.79-2.7,5.69-4.04l-.5-.2c2.9-3.93,5.8-7.86,8.7-11.79l.68,.36c-.82,2.17-1.64,4.34-2.46,6.51l1,.52c.89-1.16,1.97-2.22,2.65-3.5,4.04-7.63,8.05-15.28,11.94-23,1.77-3.52,.59-7.01-3.05-8-4.24-1.15-8.7-1.53-13.44-2.31-3.18-6.04-3.03-6.64,3.2-10.92,.43-.3,.86-.59,1.29-.9,6.64-4.74,7.18-7.74,3.01-14.82-2.98-5.06-6.12-10.09-8.52-15.43-6.59-14.69-12.8-29.55-19.23-44.31-1.06-2.42-2.46-4.69-3.71-7.03-.52,.24-1.03,.49-1.55,.73,4.54,11.66,9.08,23.31,13.63,34.97-3.35-4.1-6.27-8.45-9.54-12.52-3.15-3.91-6.73-7.47-9.99-11.3-2.19-2.58-4.28-5.27-6.15-8.09-1.54-2.33-2.69-4.91-4.35-8.03l-3.09-2.36c.39-.46,.78-.93,1.17-1.39,2.61,2.46,5.45,4.72,7.77,7.43,2.97,3.46,5.39,7.38,8.32,10.87,.97,1.15,2.78,1.58,4.21,2.35,.36-.48,.72-.96,1.08-1.45-1.58-2.13-3.15-4.28-4.76-6.4-2.76-3.63-6.71-6.87-8.02-10.95-1.64-5.13-4.75-6.11-9.04-6.5-.78-.07-1.56-.21-2.31-.43-3-.88-5.99-2.55-8.97-2.52-3.69,.04-7.37,1.46-11.05,2.31-1.24,.29-2.47,.66-3.7,.99-.12-.51-.24-1.02-.36-1.53,3.18-.83,6.37-1.59,9.52-2.51,1.08-.32,2.05-1.04,3.07-1.57-1.11-.62-2.17-1.63-3.35-1.78-1.62-.21-3.32,.22-4.99,.38-.41-4.18-2.2-5.49-7.05-4-7.35,2.26-14.68,4.74-21.69,7.88-3.62,1.62-6.13,1.19-8.2-1.55-2.63-3.45-6.09-5.39-9.95-6.97-5.23-2.14-9.53-5.29-11.85-10.76-.91-2.14-2.39-4.07-3.83-5.92-.54-.7-1.7-.92-2.58-1.36-.38,.87-.98,1.71-1.11,2.62-.41,2.81-.64,5.65-.96,8.77-2.02-.82-3.8-1.59-5.61-2.26-4.93-1.83-5.62-1.75-9.57,1.48-2.36,1.93-4.64,3.95-6.93,5.97-14.59,12.88-29.17,25.77-43.74,38.67-3.27,2.89-6.5,5.82-9.74,8.73l.68,.89c1.32-.72,2.69-1.36,3.96-2.17,1.36-.88,2.63-1.91,3.93-2.88-9.52,10.54-19.99,19.73-34.08,24.65,1.36,3.87,5.04,5.81,8.29,7.94,3.34,2.18,7.03,3.84,10.62,5.75-.21,1.26-.41,2.52-.62,3.75,4.26,1.86,7.58,8.23,5.55,10.6-.9-.37-1.83-.75-3.44-1.41ZM138.36,373.62c.9,2.74,1.68,5.23,2.53,7.69,3.31,9.52,8.59,16.99,19.46,18.62,16.42,2.47,32.79,6.5,49.27,6.98,15.27,.44,30.69-2.67,45.98-4.66,8.91-1.16,17.71-3.21,27.2-4.98-6.89,7.91-13.34,15.33-19.8,22.75l.36,.46c1.32-.66,2.64-1.32,4.17-2.08-3.88,10.2-7.67,20.18-11.47,30.16l.89,.36c2.28-5.02,4.53-10.04,6.84-15.04,4.74-10.25,8.06-21.17,17.63-28.73,7.7-6.07,15.07-11.99,25.25-13.25,3.47-.43,6.77-2.18,10.15-3.33l-.14-.49c-3.16,.48-6.31,.96-9.29,1.41,6.39-5.36,12.71-10.74,19.18-15.93,.59-.47,2.6-.12,3.22,.54,2.75,2.95,5.28,6.11,7.81,9.26,5.99,7.45,11.92,14.95,17.92,22.4,.87,1.08,2.03,1.94,3.05,2.9,.4-.37,.8-.74,1.21-1.11-9.11-12.01-18.22-24.02-27.3-35.99,.77-.88,1.47-1.66,2.91-3.29-2.68,.19-4.27,.3-5.87,.41-.6-.91-1.03-1.93-1.77-2.62-9.68-9.17-19.53-18.16-29.08-27.46-8.62-8.39-16.98-17.04-25.34-25.69-3.91-4.04-6.42-8.98-7.11-14.58-.75-6.17-1.17-12.39-1.59-18.6-.36-5.34-.84-10.7-.7-16.04,.19-7.32,.73-14.65,1.52-21.93,.19-1.74,2.4-4.86,2.92-4.71,5.98,1.7,10.65-1.7,15.59-3.66,5.47-2.17,10.12-5.5,12.25-11.45,.27-.75,1.1-1.46,1.85-1.84,6.37-3.19,12.85-6.14,19.15-9.45,10.83-5.7,20.29-13.83,32.24-17.66,2.82-.91,4.91-4.1,8-6.83-2.14-.97-3.14-1.53-4.2-1.88-4.47-1.48-8.91-3.06-13.45-4.28-3.49-.94-6.89-1.59-6.25-6.44,.04-.33-.52-.74-1.2-1.64-.5,1.58-.69,2.72-1.23,3.66-.38,.66-1.31,1.55-1.86,1.46-3.69-.56-7.35-1.36-11.51-2.18,1.81-4.3,3.45-8.22,5.1-12.14,1.85-4.41,4.61-8.66,5.41-13.24,3.89-22.43-5.24-41.77-15.38-60.75-.92-1.71-2.39-3.12-3.46-4.76-2.16-3.29-4.32-6.6-6.32-9.99-5.37-9.11-12.34-16.8-20.92-22.9-3.44-2.44-7.57-3.9-11.3-5.95-7.54-4.14-14.97-8.45-24.03-8.2-1.91,.05-3.88-.53-5.76-1.07-11.17-3.17-22.54-3.55-33.83-1.45-5.4,1-10.49,3.66-15.76,5.43-.96,.32-2.28,.32-3.19-.07-6.72-2.9-13.47-2.44-19.01,1.88-5.93,4.62-10.94,10.43-16.31,15.77-.29,.29-.1,1-.3,1.45-.67,1.58-1.1,3.39-2.16,4.65-6.51,7.67-13.73,14.8-19.67,22.88-14.76,20.09-26.58,41.95-36.85,64.65-4.93,10.89-10.58,21.53-14.58,32.75-4.81,13.5-8.27,27.48-12.2,41.28-1.3,4.58-2.25,9.27-3.35,13.9l1.47,.48c1.33-3.34,2.65-6.69,3.51-8.84,0,4.54,.22,10.24-.05,15.92-.46,9.6,3.05,17.7,9.24,24.65,3.64,4.09,8.42,7.21,11.79,11.48,8.44,10.65,18.72,18.96,30.26,25.92,1.15,.7,2.14,2.51,2.28,3.9,.93,8.97,1.36,18,2.44,26.95,1.19,9.82,1.41,9.79-7.85,12.86-3.9,1.29-5.69,.4-6.31-3.69-1.71-11.39-3.33-22.81-4.7-34.24-.2-1.67,1.16-3.53,1.8-5.31l1.3,.43c.22,4.56,.24,9.15,.71,13.69,.9,8.57,2,17.12,3.22,25.65,.13,.94,1.57,1.69,2.4,2.53,.25-1.12,.83-2.28,.7-3.36-.41-3.5-1.27-6.94-1.6-10.44-1.02-10.8-1.88-21.61-2.83-32.86-4.65,1.57-7.96,3.69-10.49,7.79-5.44,8.82-8.83,18.28-10.93,28.66,1.31-1.84,2.4-3.37,3.95-5.54,.75,5.9,1.37,10.78,2.02,15.92-1.78-.09-3.38-.17-6.13-.31,6.03,5,12.64,2.41,18.07,4.22,6.73,2.23,11.92-2.59,18.22-2.68-2.26,10.34-4.45,20.39-6.64,30.44,1.92-3.06,3.09-6.25,4.03-9.52,1.96-6.79,3.75-13.62,5.75-20.4,.36-1.21,1.35-2.23,2.05-3.33,.59,.13,1.18,.26,1.77,.39,.58,4.59,1.19,9.17,1.72,13.76,.53,4.62,.96,9.25,1.44,13.87l.81-.07c.33-1.35,.67-2.7,1.05-4.26Zm405.99-130.34c.38,1.9,.75,3.12,.85,4.35,.22,2.87,.21,5.76,.48,8.63,.35,3.71,3.72,5.22,6.99,3.43,1.71-.94,3.29-.72,3.62,1.75,.4,2.98,.86,5.95,1.3,8.93,.8,5.42,.34,6.29-4.63,8.79-3.24,1.63-3.75,3.5-1.75,6.48,.5,.75,1.26,1.44,1.48,2.27,1.01,3.83,2.55,7.71,2.46,11.55-.04,1.72-3.32,3.52-5.34,5-3.99,2.95-4.26,3.76-1.98,7.55-12.85,15.76-25.63,31.43-38.97,47.78,1.72,.09,2.25,.28,2.4,.11,13.19-14.8,26.35-29.62,39.8-44.76,1.62,5.13,3.2,10.13,4.78,15.14,1-1.72,1.17-3.36,1.41-4.99,.14-.98,.07-2.51,.64-2.84,5.16-2.99,10.44-5.77,15.69-8.61,.53,.66,1.05,1.31,1.58,1.97-4.49,4.16-8.97,8.32-13.46,12.48l.51,.58,10.59-8.25c.25,.3,.5,.6,.75,.9-2.92,4.34-5.84,8.68-8.75,13.02l.55,.35c.96-.49,1.92-.99,3.74-1.92-3.54,6.99-6.69,13.12-9.75,19.29-3.01,6.06-5.94,12.16-8.91,18.24l1.46,.77c1.28-2.04,2.73-3.99,3.82-6.13,7.56-14.81,14.99-29.69,22.59-44.47,4.31-8.38,10.44-14.95,19.62-18.13,5.19-1.8,10.29-3.94,15.59-5.3,6.82-1.75,13.22-4.04,20.9-.56,7.54,3.42,16.24,3.97,23.63,8.75,5.88,3.8,12.66,6.22,19.06,9.2,1.16,.54,2.44,.84,3.68,1.18,1.73,.48,3.85,.41,5.16,1.41,13.07,10.05,26.01,20.28,39,30.44,1.12,.87,2.32,1.63,3.49,2.45l1.02-1.11c-1.3-1.61-2.47-3.34-3.93-4.8-12.08-12.1-25.68-22.29-39.85-31.8-4.99-3.35-9.65-7.1-15.37-9.28-5.08-1.93-10-4.27-14.99-6.41-.96-.41-2.04-1.17-2.92-1-2.28,.43-4.05,.28-6.06-1.3-3.31-2.6,.35-3.96,.57-5.9,.08-.75-.3-1.55-.27-2.31,.06-1.42,.31-2.84,.39-4.27,.04-.72,.06-1.55-.23-2.17-1.31-2.76-2.74-5.47-4.26-8.47,8.99-1.5,15.64-5.04,20.17-12.03,8.93-13.78,16.61-28.19,22.02-43.74,2.88-8.28,4.15-16.69,1.66-25.36-.26-.91,.07-1.98,.02-2.96-.07-1.44-.07-2.92-.4-4.31-.3-1.27-1.01-2.45-1.69-4.01,2.15-.28,3.74-.34,5.23-.74,.85-.23,1.56-1.02,2.33-1.55-.59-.75-1.12-2.08-1.78-2.16-4.43-.47-6.58-2.57-7.39-7.16-.5-2.8-.31-4.56,1.77-6.63,2.56,3.97,4.9,7.58,7.22,11.21,1.09,1.72,2.04,2.36,3.38,.12,.85-1.42,2.08-2.61,3.62-4.5,1.26,3.99-.49,7.98,3.1,10.22,1.94-6.59,3.37-12.85,5.62-18.79,4.06-10.7,4.05-22.7,10.55-32.6,.26-.39,.1-1.03,.21-1.54,2.23-10.77-1.86-19.53-8.82-27.28-3.93-4.37-8.16-8.45-12.2-12.72-.54-.57-.8-1.42-1.14-2.17-.53-1.18-.69-2.91-1.59-3.49-10.95-7.13-21.74-14.55-33.1-20.97-10.17-5.75-20.98-10.34-31.85-15.61,6.98-2.61,14.29-2.4,19.81-7.27-6.43,1.22-12.75,2.78-19.07,4.37-3.5,.88-7.01,2.48-10.37-.48-.38-.34-1.27-.2-1.9-.14-5.18,.46-10.38,.8-15.53,1.48-4.66,.61-9.51,.87-13.38,3.93l.22,1.3c4.14-.77,8.28-1.53,12.42-2.3-1.07,1.32-2.35,1.86-3.59,2.5-5.68,2.94-11.43,5.78-16.99,8.93-1.6,.91-3.56,2.61-3.79,4.17-.45,3.05-2.4,2.69-4.24,2.78-2.58,.13-5.18,.03-7.05,.03,3.66-4.1,7.87-8.83,12.19-13.68,.05,.51,.03,1.11,.2,1.65,.17,.53,.54,1,.86,1.57,4.56-4.59,3.01-17.22-2.39-18.68,0,1.86-.42,3.75,.09,5.36,1.06,3.4,.09,6.18-1.8,8.84-1.44,2.02-2.73,4.27-4.57,5.85-1.51,1.29-3.8,2.58-5.63,2.42-6.61-.56-13.17-1.8-19.76-2.61-2.26-.28-4.57-.04-7.18-.04,1.97,3.07,3.38,5.26,5,7.78-6.14,2.37-12.06,4.66-17.98,6.95l-.86-1.22c.86-1.28,1.71-2.56,2.72-4.07-8.77,1.6-12.78,8.27-16.81,14.85-.33,.54-.29,1.8,.11,2.21,2.6,2.63-.02,3.66-1.4,5.11-.76,.79-1.76,1.51-2.14,2.47-4.75,12.16-9.57,24.3-14.04,36.57-4.05,11.14-7.64,22.45-11.58,33.63-.45,1.27-1.88,2.17-2.76,3.31-.5,.65-1.06,1.45-1.09,2.2-.02,.37,1.09,1.11,1.71,1.14,4.22,.21,3.79,2.5,2.07,4.92-3.77,5.32-7.79,10.47-11.62,15.75-.69,.95-.97,2.2-1.45,3.32,1.28,.27,2.55,.66,3.84,.76,.74,.06,1.51-.36,2.28-.55,5.14-1.29,10.29-2.59,15.05-3.78,1.54,3.19,2.56,6.22,4.31,8.73,3.54,5.09,7.51,9.88,11.22,14.86,.48,.64,.6,1.64,.67,2.49,.59,7.26-1.27,13.93-4.73,20.27-.55,1-.37,2.4-.52,3.62,1.25,.1,2.66,.61,3.73,.22,4.48-1.66,8.85-3.59,13.4-5.47,1.78,3.96,5.04,1.29,8.06,.78,.38,2.66,.61,5.11,1.14,7.5,.18,.84,1.02,2.07,1.67,2.14,.77,.08,1.85-.73,2.44-1.44,.82-1,1.31-2.27,1.95-3.43,.15,4.39-.65,8.47-1.24,12.57-.17,1.16,.28,2.41,.45,3.62,1.22-.25,2.63-.19,3.64-.8,2.88-1.75,5.59-3.77,9.15-6.22Zm-259.98,32.29l.77-.13c2.44,3.88,4.87,7.77,7.8,12.43,.41-1.64,.86-2.39,.65-2.76-3.58-6.35-7.16-12.7-11.04-18.87-.34-.54-3.64-.27-4.07,.47-3.16,5.52-5.95,11.24-8.83,16.92-.56,1.11-1.03,2.27-1.62,3.58,3.46,8.13,7.14,16.75,11.17,26.22,1.31-.91,3.82-1.88,5.13-3.71,3.74-5.2,6.91-10.8,10.47-16.13,1.53-2.28,1.26-4.03-1.65-6.85-1.98,2.89-3.93,5.75-5.83,8.51-1.1-7.29-2.03-13.49-2.97-19.69Zm-39.44,523.01c.42-.02,.84-.05,1.26-.07,.4-.88,.98-1.71,1.17-2.63,1.68-7.9,5.04-14.74,11.51-19.93,2.15-1.73,1.7-3.64-1.08-4.63-6.65-2.35-11.73-6.15-12.97-13.7-.12-.74-1.34-1.46-2.21-1.82-.32-.14-1.48,.68-1.58,1.2-1.45,7.27-6.43,11.69-12.15,15.64-2.23,1.54-1.56,3,.63,4.04,6.33,3.01,9.67,8.45,12.08,14.71,.95,2.47,2.23,4.8,3.35,7.2Zm-5.77,74.93l-.89-1.21c-.57,.22-1.21,.35-1.7,.69-11.05,7.64-23.62,11.36-36.47,14.62-24.5,6.21-43.12-4.9-51.45-23-3.35-7.28-5.29-15.27-7.31-23.08-1.07-4.14-.95-8.6-1.37-12.91-.37-.05-.73-.1-1.1-.15-.3,1.17-.87,2.35-.85,3.52,.28,17.18,5.51,32.68,16.56,45.91,7.21,8.64,17.04,13.75,28.03,13.93,16.41,.28,32.01-4.48,46.64-11.95,3.48-1.78,6.61-4.22,9.9-6.36Zm122.97-460.25c-.34,.1-.68,.2-1.03,.3,3.33,19-3.46,35.43-12.83,51.46,1.72-.71,3.36-1.55,4.24-2.9,8.39-12.83,12.89-26.82,11.76-42.28-.16-2.24-1.4-4.39-2.14-6.59Zm-244.25-105.19c-.52,.15-1.05,.29-1.57,.44-.12,1-.39,2-.34,2.99,.32,7.82,.59,15.64,1.12,23.45,.23,3.36,.9,6.71,1.65,10,.2,.86,1.48,1.46,2.27,2.18,.29-.99,.87-2,.8-2.97-.23-3.11-.81-6.2-1.05-9.31-.56-7.42-.93-14.85-1.53-22.26-.12-1.53-.88-3.01-1.35-4.51Zm161.53-68.83c-1.93,.13-3.94,.46-3.9,3.66,.06,4.85,1.62,7.54,4.8,7.68,3.1,.13,5.4-2.13,5.43-5.37,.04-3.37-2.44-5.87-6.34-5.97ZM85.36,735.17c-.09-1.83-1.24-3.22-3.89-3.07-2.75,.15-6.53,3.53-6.32,5.97,.22,2.55,.95,5.04,4.29,5,2.94-.03,5.99-3.82,5.92-7.89Zm192.89,112.28c-.25-.37-.49-.74-.74-1.11-7.04,5.03-14.09,10.07-21.44,15.32,8.69-3.23,16.53-7.09,22.17-14.21Zm-180.27-75.93c.17,3-1.05,5.95,2.52,7.14,.47,.16,1.98-1.16,2.11-1.95,.48-2.94-.62-4.95-4.63-5.2ZM726.92,497.75c.37-4.24-1.44-6.5-4.98-6.74,1.81,2.45,3.39,4.59,4.98,6.74ZM247.61,865.03l-7.32,4.25c.26,.45,.53,.89,.79,1.34,3.03-.42,4.95-2.72,6.53-5.59Z"/><path d="M138.36,373.62c-.39,1.56-.72,2.91-1.05,4.26l-.81,.07c-.48-4.63-.91-9.26-1.44-13.87-.52-4.59-1.14-9.18-1.72-13.76-.59-.13-1.18-.26-1.77-.39-.7,1.11-1.69,2.13-2.05,3.33-1.99,6.78-3.79,13.61-5.75,20.4-.94,3.26-2.11,6.46-4.03,9.52,2.19-10.05,4.39-20.09,6.64-30.44-6.29,.09-11.49,4.92-18.22,2.68-5.44-1.8-12.04,.79-18.07-4.22,2.74,.14,4.35,.22,6.13,.31-.65-5.15-1.27-10.02-2.02-15.92-1.55,2.17-2.64,3.7-3.95,5.54,2.1-10.38,5.49-19.84,10.93-28.66,2.53-4.1,5.84-6.22,10.49-7.79,.96,11.25,1.81,22.06,2.83,32.86,.33,3.5,1.19,6.95,1.6,10.44,.13,1.08-.45,2.24-.7,3.36-.83-.84-2.26-1.59-2.4-2.53-1.22-8.53-2.32-17.08-3.22-25.65-.48-4.54-.49-9.12-.71-13.69l-1.3-.43c-.64,1.77-2,3.63-1.8,5.31,1.37,11.44,2.99,22.85,4.7,34.24,.61,4.09,2.41,4.98,6.31,3.69,9.27-3.07,9.04-3.04,7.85-12.86-1.08-8.95-1.51-17.98-2.44-26.95-.14-1.39-1.13-3.21-2.28-3.9-11.54-6.96-21.82-15.26-30.26-25.92-3.38-4.26-8.15-7.39-11.79-11.48-6.19-6.95-9.7-15.05-9.24-24.65,.27-5.67,.05-11.37,.05-15.92-.85,2.16-2.18,5.5-3.51,8.84l-1.47-.48c1.11-4.64,2.05-9.32,3.35-13.9,3.93-13.8,7.39-27.78,12.2-41.28,4-11.22,9.65-21.86,14.58-32.75,10.27-22.7,22.08-44.56,36.85-64.65,5.94-8.08,13.16-15.21,19.67-22.88,1.07-1.26,1.5-3.07,2.16-4.65,.19-.45,0-1.16,.3-1.45,5.37-5.33,10.37-11.15,16.31-15.77,5.55-4.32,12.29-4.78,19.01-1.88,.92,.4,2.23,.39,3.19,.07,5.27-1.77,10.36-4.43,15.76-5.43,11.29-2.1,22.66-1.72,33.83,1.45,1.88,.53,3.85,1.12,5.76,1.07,9.07-.25,16.49,4.07,24.03,8.2,3.74,2.05,7.86,3.51,11.3,5.95,8.58,6.09,15.55,13.78,20.92,22.9,2,3.39,4.16,6.7,6.32,9.99,1.08,1.64,2.55,3.04,3.46,4.76,10.15,18.98,19.28,38.32,15.38,60.75-.8,4.59-3.55,8.84-5.41,13.24-1.65,3.92-3.29,7.83-5.1,12.14,4.15,.82,7.81,1.62,11.51,2.18,.55,.08,1.49-.81,1.86-1.46,.54-.94,.72-2.08,1.23-3.66,.68,.9,1.25,1.31,1.2,1.64-.64,4.84,2.76,5.5,6.25,6.44,4.54,1.23,8.99,2.8,13.45,4.28,1.06,.35,2.06,.91,4.2,1.88-3.08,2.72-5.17,5.92-8,6.83-11.94,3.83-21.41,11.95-32.24,17.66-6.3,3.32-12.78,6.27-19.15,9.45-.75,.38-1.59,1.09-1.85,1.84-2.13,5.94-6.78,9.28-12.25,11.45-4.94,1.96-9.61,5.36-15.59,3.66-.53-.15-2.74,2.97-2.92,4.71-.79,7.28-1.34,14.61-1.52,21.93-.14,5.34,.34,10.7,.7,16.04,.42,6.21,.83,12.43,1.59,18.6,.68,5.6,3.2,10.53,7.11,14.58,8.36,8.65,16.72,17.3,25.34,25.69,9.55,9.3,19.4,18.29,29.08,27.46,.73,.69,1.16,1.71,1.77,2.62,1.61-.11,3.2-.22,5.87-.41-1.44,1.63-2.14,2.41-2.91,3.29,9.08,11.97,18.19,23.98,27.3,35.99-.4,.37-.8,.74-1.21,1.11-1.02-.96-2.18-1.81-3.05-2.9-6-7.44-11.93-14.94-17.92-22.4-2.53-3.15-5.06-6.31-7.81-9.26-.61-.66-2.63-1.01-3.22-.54-6.47,5.19-12.79,10.57-19.18,15.93,2.97-.45,6.13-.93,9.29-1.41l.14,.49c-3.38,1.15-6.68,2.9-10.15,3.33-10.18,1.26-17.56,7.18-25.25,13.25-9.57,7.55-12.89,18.47-17.63,28.73-2.31,5-4.56,10.03-6.84,15.04l-.89-.36c3.8-9.98,7.59-19.96,11.47-30.16-1.52,.76-2.84,1.42-4.17,2.08l-.36-.46c6.45-7.42,12.91-14.84,19.8-22.75-9.49,1.77-18.29,3.82-27.2,4.98-15.29,2-30.71,5.11-45.98,4.66-16.48-.48-32.85-4.51-49.27-6.98-10.87-1.64-16.15-9.1-19.46-18.62-.85-2.46-1.63-4.94-2.53-7.69Zm93.24-113.93c2.69-.27,2.63,1.6,2.46,3.34-.26,2.69-.69,5.37-1.05,8.05l.85,.16c1.04-3.86,2.07-7.71,3.11-11.57l.91,.07c.46,.98,.93,1.97,1.55,3.29,2.25-3.9,4.26-7.38,6.69-11.58-5.24,3.03-9.83,5.69-14.42,8.35-2.81,1.26-5.61,2.52-7.88,3.54v9.78c1.1-4.01,1.93-6.99,2.75-9.97l1.84,.29c.53,5.63-1.69,11.14-1.55,16.82,2.86-6.56,3.49-13.63,4.74-20.56Zm-95.46-74.76c-2.12-.81-4.24-1.63-6.84-2.62-5.23,19.7-11.21,39.29-7.86,60.31,2.61,16.39,8.4,31.68,14.58,46.93,1.72,4.24,4.08,6.79,8.7,6.99,1.5-5.64,6.78-2.37,10.57-4.65-5.3-.63-10.02-1.19-14.74-1.75v-1.25c2.51-.19,5.08-.83,7.5-.47,10.22,1.52,20.56,1.9,30.66,4.75,5.59,1.58,11.83,.85,18.1,1.17-.11-1.47-.16-3.01-.35-4.53-.5-4.01-1.74-8.06-1.46-12.01,.49-6.9-1.66-9.32-8.74-8.83-5.56,.39-10.48,.1-15.41-4.29-16.81-14.95-30.53-31.48-34.15-54.58-.39-2.51-2.47-4.91-2.39-7.31,.19-5.97,1.17-11.92,1.84-17.87,.26-5.1,.51-10.21,.82-16.18-3.01,4.74-7.11,8.39-1.86,13.32,.66,.62,.71,1.9,1.04,2.88Zm120.71-96.6c1.66,3.96,3.11,8.03,5.04,11.85,1.83,3.61,6.88,5.12,6.68,10.34-1.73-.82-3.56-1.78-4.36-3.28-2.52-4.7-8.69-4.94-11.38-9.58-.39-.68-4.35,.31-6.38,1.18-.78,.33-1.05,2.47-1.08,3.79-.07,2.86,1.28,4.99,3.98,6.18,2.15,.95,4.23,2.06,6.43,2.89,10.39,3.9,19.93,9.18,27.97,16.95,.51,.49,1.23,.78,2.56,1.61,0-1.96,.34-3.38-.05-4.56-2.62-7.88-5-15.88-8.22-23.52-3.86-9.18-10.51-14.85-21.28-13.73-.09-2.32,1.12-3.59,3.34-3.24,3.17,.5,6.94,.52,9.28,2.29,4.17,3.15,8.13,7.03,11,11.38,6.24,9.43,8.4,20.48,10.95,31.33,.7,2.98,1.87,5.93,3.26,8.67,2.16,4.26,1.83,5.26-2.72,5.96,.26,.97,.79,1.96,.75,2.92-.23,5.97-.62,11.94-.87,17.91-.03,.84,.27,1.79,.69,2.52,1.84,3.17,4.91,3.41,8.21,3.43-1.06-4.31-2.06-8.4-3.06-12.5l1.16-.28c1.29,3.68,2.59,7.35,3.88,11.03,.83-1.59,.75-3.03,.63-4.47-.51-6.09-2.02-12.29-1.32-18.23,.92-7.68-.1-14.5-4.32-20.78-1.11-1.65-3.25-2.62-5.23-4.15,3.36-1.76,5.65-.22,7.15,1.77,1.86,2.45,3.86,5.29,4.34,8.2,1.59,9.59,2.78,19.26,3.58,28.95,.34,4.09-.69,8.3-1.14,12.83,3.34-.04,3.92-3.34,4.57-5.48,.74-2.46,.44-5.37,0-7.99-.42-2.52-1.6-4.92-2.61-7.85,4.63,.95,4.13,4.9,6.06,7.63,7.1-19.58,4.96-38.13-4.52-56.7,1.73,.33,2.54,.48,4.58,.87-2.32-3.26-3.96-5.55-6.12-8.58-.44,3.95-.75,6.67-1.05,9.4l-.64-.08c-.18-.61-.36-1.21-.38-1.28-1.11,4.7-2.3,9.72-3.49,14.75l-1.1-.25c.46-6.39,1.15-12.77,1.3-19.16,.14-5.9,.85-12.16-5.42-16.44l3.23-1.38c-1.67-2.06-3.09-3.82-3.84-4.75-.28-2.3-.05-3.86-.68-4.88-1.13-1.83-3.31-3.13-4.11-5.04-1.48-3.54-4.06-5.15-7.72-3.85-8.11,2.9-15.45,7.08-21.55,13.26-.93,.94-2.01,1.71-3.03,2.57,3.95-10.16,12.4-15.08,21.54-19.2q-4.3-5.43-8.12-3.94c.73,1.45,1.47,2.89,2.2,4.33l-.86,.54c-1.04-.93-2.03-1.93-3.15-2.75-1-.74-2.17-1.84-3.23-1.8-9.35,.35-18.36,2.14-26.43,7.25-1.01,.64-2.13,1.08-3.21,1.61-.24-.43-.47-.86-.71-1.29,6.11-7.83,17.1-7.5,24.64-14.2-4.5-2.16-8.85-5.42-13.61-6.23-5.67-.95-11.69,.1-17.55,.5-2.79,.19-4.71-.69-6.14-3.35l2.53-1.67c-3.08,0-6.26,.66-9.01-.13-6.38-1.84-18.36,1.27-22.66,6.47,.81,2.5,2.31,2.47,4.55,1.69,8.15-2.83,15.08-.42,19.37,6.53,2.29,3.72,4.5,7.48,6.56,10.91,2.46,0,4.71-.31,6.84,.06,7.78,1.32,13.1,6.23,17.12,12.64,2.34,3.73,4.26,7.73,6.36,11.61Zm63.26,274.95c-3.51,2.44-6.82,5.27-10.59,7.23-6.84,3.55-13.84,6.83-20.96,9.78-22.71,9.43-45.71,17.96-70.29,21.22-.48,.06-.91,.51-1.36,.78l.24,1.08c11.24-1.12,22.5-2.01,33.7-3.46,6.3-.81,12.45-2.85,18.75-3.76,5.7-.82,10.71-5.09,17.11-2.99,1.53,.5,4.03-1.41,5.88-2.54,8.7-5.32,17.25-10.87,25.99-16.11,8.2-4.91,8.27-4.78,1.46-11.2-3.7-4.41-8.58-7.42-12.86-11.06-9.92-8.45-18.75-18.2-27.91-27.53-3.26-3.32-6.21-6.96-9.26-10.42-12.08,9.07-24.55,16.35-38.07,19.73-1.41,2.06-2.42,3.54-3.44,5.03l-2.97-4.41c-.42-.27-1.53-.97-3.29-2.08l6.22-1.34c-3.33-7.08-6.45-13.7-9.57-20.32,5.81,3.58,8.05,9.45,10.76,15.44,.77-1.81,1.45-3.21,1.97-4.68,1.55-4.35,4.95-8.1,4.35-13.16,5.15-4.75,8.35-10.57,9.17-17.86,3.7,3.52,2.11,8.55-5.12,18.07,2.15,3.32,4.26,6.56,6.59,10.15,2.97-5.96,4.55-12.58,10.38-16.06l1.2,.69c-3.21,6.11-6.43,12.21-9.64,18.32l1.17,.77c6.01-3.84,12.02-7.69,17.72-11.33-1.72-5.18-3.24-9.74-4.74-14.26-1.06,1.84-2.06,3.56-3.05,5.29-.6-.28-1.2-.55-1.8-.83,1.32-3.25,3.28-6.4,3.77-9.77,.5-3.43-.46-7.07-.83-11.17-9.42,6.04-18.88,10.25-29.17,11.88-7.17,1.14-14.24,1.7-17.88,9.32-.18,.38-.66,.63-1.54,1.44l3.28,1.72-.03,1.39c-6.61-2.35-9.1,2.5-12.5,5.72,1.26,2.7,2.42,5.17,3.58,7.65-.39,.25-.79,.5-1.18,.75-1.63-2.02-3.27-4.04-4.9-6.06q-8.65,3.17-10.39,7.26c-2.42,.75-4.16,.97-5.53,1.79-3.24,1.96-6.11,4.63-9.49,6.25-5.1,2.44-7.41,5.98-7.05,11.66,.15,2.39-.5,4.91-1.23,7.24-.74,2.38-2.27,4.51-3.01,6.89-.9,2.86-1.28,5.88-1.99,8.8-.9,3.68-8.29,9.98-12.03,10.22-.61,.04-1.26-.5-2.05-.83,1.43-1.06,2.81-1.69,3.62-2.76,1.93-2.53,3.63-5.26,5.35-7.95,.37-.58,.74-1.38,.65-2.02-.92-6.66-1.94-13.32-3-20.47-2.32,1.1-3.56,1.89-4.91,2.29-3.92,1.14-4.81,3.55-4.02,7.42,.54,2.6,.1,5.4,.1,8.11l-.45-.04c-.92-3.39-1.84-6.77-2.76-10.16l-1.08,.28c1.11,12.75,3.17,25.28,9.01,37.53v-9.42c.99,2.86,1.77,4.68,2.24,6.57,.68,2.74,2.09,4.67,4.88,5.5,10.61,3.16,21.14,6.6,31.84,9.42,8.78,2.32,17.76,3.54,26.44,.64-7.74-.55-15.76-1.13-23.79-1.7,.78-.95,1.53-1.05,2.26-1.01,1.17,.06,2.34,.21,3.51,.34,14.18,1.65,28.12,2.22,42.26-1.81,27.78-7.91,54.11-19.29,80.29-31.11Zm1.06-173.02l.33,1.04c-6.22,1.59-12.43,3.17-18.65,4.76l.05,.47,17.82,1.09c-.89,1.14-1.89,2.02-2.87,2-4.7-.12-9.41-.45-14.1-.78-.87-.06-2.36-.36-2.46-.79-.69-3.07-2.51-1.21-3.54-.72-2.46,1.17-4.85,2.57-7.08,4.14-2.28,1.6-4.34,3.52-6.52,5.31,3.99,4.38,3.97,4.47-.42,7.38-.87,.58-1.62,1.37-2.53,1.85-.97,.5-2.13,1.1-3.09,.93-.51-.09-.98-1.68-1.07-2.63-.36-3.59-.57-7.19-.83-10.79,.37,.18,.74,.35,1.11,.53,1.42-2.33,2.84-4.66,4.26-7-2.53,.08-4.17,.93-5.9,1.49-.95,.31-2.05,.14-3.08,.18,.53-.93,.85-2.18,1.65-2.72,1.49-1.01,3.21-1.78,4.93-2.36,5.7-1.9,11.42-3.7,17.16-5.46,5.15-1.58,8.5-5.14,11.8-10.04-1.78-.4-3-1.03-4.09-.86-4.71,.77-9.35,2.09-14.08,2.61-4.06,.45-8.22,.09-12.33,.09l-.07-.39c1.93-.5,3.87-1,5.8-1.5l-.09-.83c-9.95-3.18-19.9-6.35-29.84-9.53l-.57,1.47c2.76,1.24,5.51,2.47,8.62,3.87-.35,1.21-.95,3.29-1.45,5.01-1.67,.3-3.45,.61-5.22,.92l-.04,1.13c1.24,.57,2.43,1.48,3.72,1.65,3.85,.5,7.75,.68,11.62,1.07,.92,.09,1.8,.56,2.7,.85-.49,.81-.79,1.92-1.51,2.38-2.74,1.79-5.61,3.36-8.42,5.04-3.32,1.98-6.62,3.99-9.37,5.65,.51,1.82,1.19,2.88,.96,3.66-.7,2.37-1.75,4.63-2.72,7.07-.88-.11-2.68-.9-3.39-.33-6.54,5.3-13.74,2.21-20.62,1.63-2.21-.19-4.25-2.32-6.37-3.57-4.41-.08-13.54-4.73-14.53-9.45,2.75,1.18,5.05,2.18,7.35,3.15,1.89,.79,3.89,2.37,5.68,2.18,8.94-.95,17.85-2.2,26.71-3.72,3.83-.66,5.5-4.13,4.41-7.92-.45-1.56-1.24-3.02-2.2-5.29-3.83,5.82-8.18,8.77-14.81,7.25-7.08-1.62-8.84-6.87-9.55-13.01-9.82,1.28-15.24,8.51-21.23,14.93-.42-13.1,7.34-20.64,16.87-27.17-4.15,1.72-7.81,3.9-11.53,5.95-.83,.46-1.9,.48-2.86,.7-.19-1.07-.74-2.23-.51-3.21,1.34-5.85,2.46-12.02,10.67-11.6,.05,0,.1-.2,.2-.39-2.74-3.5-5.51-7.02-8.38-10.68-.74,1.02-1.32,1.8-2.03,2.78-2.64-4.83-5.44-9.41-7.67-14.24-1.41-3.04-2.33-6.42-2.84-9.75-.93-6.05-1.3-12.19-2.11-18.26-.17-1.29-.91-3.08-1.92-3.6-6.72-3.47-16.57-1.34-20.71,4.9-5.27,7.96-9.95,16.32-14.9,24.49-1.33,2.2-.47,3.17,1.74,3.99,3.42,1.27,6.75,2.8,10.05,4.38,9.54,4.57,10.91,13.66,12.29,22.68,.14,.9-.44,1.91-.81,3.35-.64-2.11-1.12-3.69-1.71-5.61-.79,1.11-1.43,2-2.45,3.44-1.42-1.92-2.58-3.49-3.75-5.06-.18,1.81,.22,3.29,.91,4.63,1.19,2.33,2.78,4.48,3.72,6.9,.39,1.01-.1,2.8-.86,3.66-.45,.51-2.18-.09-4.02-.26-3.25,2.22-6.87,2.8-9.64,.05-2.38-2.36-4.37-5.51-5.44-8.68-1.13-3.34-.98-7.13-1.38-10.67-8.55-.94-11.54,2.8-8.59,10.53,.51,1.34,1.27,2.6,1.72,3.95,.46,1.38,.68,2.84,1.01,4.27l-1.23,.8c-1.15-1.15-2.25-2.37-3.48-3.44-.62-.54-1.48-.82-2.22-1.21-.37,.75-1.04,1.5-1.07,2.27-.12,3.3-.05,6.6-.05,10.27,6.6-2.22-.66-5.93,2.07-8.58,1.25,1.64,2.43,3.17,3.56,4.66,.69-1.26,1.08-2.83,1.71-2.93,.92-.14,2.2,.55,2.98,1.27,1.24,1.14,2.04,2.76,3.29,3.87,1.4,1.23,2.97,2.53,4.7,3.08,4.44,1.42,8.52,2.81,13.58-.04,2.88-1.63,5.14-2.18,4.67-6.18,3,3.23,1.76,13.82-1.82,15.39,.28-2.36,.54-4.47,.81-6.75-4.4,.63-7.06,4.14-11.41,5.12-6.22,1.39-10.92,.35-15.03-3.73-2.64-2.62-5.04-4.06-8.82-2.35,0,3.78-.17,7.7,.03,11.6,.54,10.08,.68,20.47,6.53,29.15,5.47,8.13,10.1,16.97,18.12,23.23,5.36,4.18,10.16,9.07,15.47,13.32,1.54,1.24,4,2.02,5.97,1.89,4.8-.31,9.61-1.02,14.33-2,14.34-3,28.86-5.8,40.4-15.79,10.16-8.79,20-17.94,30.01-26.9,.57-.51,1.42-.71,2.95-1.43-1.32,5.42,2.13,5.02,4.68,4.65,2.86-.41,5.71-1.45,8.35-2.68,3.03-1.41,5.74-3.5,8.74-4.99,8.02-3.99,16.23-7.61,24.15-11.77,6.24-3.28,11.95-7.63,18.32-10.6,3.7-1.73,8.33-1.56,8.87-7.51-3.73-1.61-7.61-3.71-11.74-4.96-4.6-1.4-9.52-1.72-14.14-3.07-6.52-1.89-10.76,.43-13.57,6.24,3.83-.58,7.69-1.63,11.55-1.64,5.82-.02,11.66,.54,17.46,1.19,1.4,.16,2.66,1.62,4.23,2.63-7.13-.32-13.51-1.33-19.74-.73-11.62,1.12-22.77,4.38-33.66,8.85-5.17,2.12-4.99,6.15-6.18,10.16,11.2-10.81,25.63-12.17,39.55-14.94Zm-205.92,54.39h-.82c1.03-12.08,2.06-24.15,3.19-37.4-3.3,8.39-6.16,15.69-9.03,22.99-.44-.16-.88-.31-1.31-.47,3.85-11.9,7.47-23.88,11.63-35.67,4.19-11.87,8.9-23.56,13.47-35.54-3.01-3-6.2-6.2-9.39-9.39l1.11-1.24c1.25,.77,2.42,1.72,3.75,2.27,2.81,1.15,6.4,3.62,8.49,.35,2.38-3.73,5.14-7.82,4.59-12.61l-5.87-3.01,.03-1.59c2.22-.52,4.65-1.85,6.63-1.37,3.61,.88,4.69-.86,6.16-3.47,5.23-9.29,10.74-18.42,16.07-27.66,1.37-2.38,2.46-4.92,3.94-7.94,5.38-1.66,7.6-7.44,10.55-12.41,4.13,1.71,8.03,3.33,11.93,4.95l.44-1.05c.82,1.13,1.64,2.27,2.47,3.4l1.12-.61c-.4-1.05-.69-2.17-1.23-3.14-.69-1.25-2.25-2.39-2.25-3.58-.01-4.35-3.08-5.9-6.21-7.17-4.88-1.98-9.5-5.1-15.25-4.01-.62,.12-1.44-.85-2.18-1.31-2.7-1.69-5.4-3.38-8.1-5.07l-.46,.88,1.64,3.15-.8,.94c-1.61-.7-3.22-1.41-5.48-2.4-4.72,5.45-9.85,10.86-14.42,16.71-18.26,23.37-32.11,49.37-44.23,76.26-5.79,12.84-10.92,26.12-14.81,39.64-3.11,10.82-3.77,22.34-5.73,33.5-3.38,19.26,3.29,35.23,17.59,47.36,13.65,11.57,28.81,21.32,44.96,29.29,.99,.49,2.08,.76,4,1.45-2.59-4.67-4.63-8.57-6.88-12.35-2.86-4.79-6.94-9.14-8.64-14.29-3.47-10.5-5.84-21.38-8.36-32.17-.91-3.9-.96-8.01-1.4-12.02l-.52,.03-.42,5.76ZM199.91,101.63c-.36,1.27-1.18,2.74-1.12,4.17,.46,10.28,3.14,20,9.21,28.36,8.79,12.12,19.68,20.58,35.85,20.51,5.66-.02,11.35,2.44,17,3.87,2.21,.56,4.35,1.38,6.52,2.08-3.68-4.75-7.81-8.35-11.43-12.41-12.73-14.28-19.35-31.47-22.72-49.99-.75-4.12-2.16-5.92-6.41-6.36-5.52-.57-10.97-1.91-16.43-2.98-3.48-.69-6.04-2.69-5.47-6.42,.51-3.3,2.04-6.44,3.21-9.88l-6.06,.31c-.86,3.03-1.67,5.87-2.54,8.94,1.58-.84,2.81-1.5,4.03-2.15l.82,.68c-4.4,6.45-6.26,13.3-4.47,21.27Zm22.98,188.68c10.58,.1,29.97-6.86,36.8-12.99,1.04-.93,1.57-2.86,1.64-4.36,.43-9.25,.63-18.52,.98-27.78,.09-2.28,.44-4.55,.78-7.9-12.94,11.69-19.72,26.13-27.85,39.8-5.6,2.3-7.32,8.62-12.34,13.23Zm5.13-222.77c.57,1.02,.82,1.8,1.33,2.31,1.94,1.91,4.07,3.63,5.91,5.62,.66,.72,.71,2.01,1.04,3.04-1.06,.01-2.17,.22-3.17-.03-.83-.21-1.51-1.37-2.29-1.41-2.39-.11-4.89-4.13-7.13,.32-.79-.57-1.46-.96-2.02-1.47-6.25-5.6-10.65-2.26-13.41,3.93-1.5,3.36,.02,6.1,3.68,5.97,5.53-.19,10.52,1.85,15.79,2.67,3.34,.52,6.67,1.11,9.96,1.84,5.72,1.27,11.42,2.67,17.53,4.11-7.78-20.03-16.23-28.45-27.23-26.91Zm-17.48-.32c-.51,.46-1.02,.92-1.53,1.37-1.2-1.42-2.43-2.83-3.6-4.28-3.92-4.9-8.17-9.52-14.95-9.63-1.88-.03-4.66,1.6-5.46,3.23-.92,1.89-1.09,4.8,1.92,6.39,1.09,.58,1.65,2.3,2.29,3.58,.6,1.2,.97,2.51,1.64,4.3,1.62-1.51,2.71-2.53,3-2.81,10.77-.24,20.95-2.58,30.85,1.66-2.34-4.97-4.99-9.3-7.52-13.69-1.07-1.85-1.47-4.28-2.93-5.66-4.5-4.29-12.38-3.58-16.8,1.24,5.72,3.59,10.33,8.15,13.06,14.29Zm79.35,87.35c-.65-6.1-1.22-11.77-1.89-17.43-.07-.58-.53-1.24-1-1.62-3.14-2.55-6.23-5.19-9.57-7.43-.83-.55-3.01-.25-3.79,.49-3.22,3.06-2.35,7.1-1.31,10.62,2.49,8.42,9.03,12.63,17.55,15.38Zm-51.26-54.59c.9,2.85,1.51,5.16,2.36,7.39,1.64,4.32,4.52,7.66,7.7,11.07,4.77,5.12,8.34,11.35,12.68,16.9,1.82,2.33,4.32,4.13,6.32,5.99v-19.72l-1.45-.16c-.3,1.93-.61,3.86-.95,6.03-3.81-2.14-2.1-5.29-1.63-8.43-4.99-2.18-10.02-4.32-14.98-6.6-1.53-.7-3.33-1.45-4.26-2.73-2.01-2.76-3.55-5.87-5.8-9.75Zm-97.66,200.56c2.09,2.81,3.53,4.79,5.02,6.73,1.35,1.76,4.07,3.62,3.89,5.17-.6,5.3,3.94,4.25,6.11,5.08,2.87,1.1,6.36,.6,9.82,.8,.55-3.59,1.1-7.27,1.69-11.13-8.55-2.15-16.93-4.25-26.54-6.66Zm-35.9,46.98l-.48,.95c-.84-.94-2.11-1.75-2.43-2.85-.85-2.86-1.41-5.83-1.84-8.79-.61-4.15-1-8.32-1.49-12.49-1.48,1.74-2.69,3.58-2.59,5.35,.26,4.79,1.05,9.56,1.68,14.33q1.09,8.29,9.49,8.29c.37,0,.73-.16,.57-.12-1.81-11.72-3.61-23.34-5.4-34.96l-.76,.1,3.26,30.19Zm76.59-26.36c-.8-7.58-1.47-14.41-2.3-21.21-.11-.91-1.02-1.73-1.56-2.59l-1.34,.79c1.28,6.53,2.6,13.05,3.82,19.59,.14,.77-.22,1.63-.35,2.45-.86-.37-2.03-.51-2.52-1.16-.67-.89-1-2.14-1.19-3.28-.85-5.28-1.84-10.56-2.3-15.89-.34-3.94-2.1-4.47-5.6-3.33,2.56,9.53,5.07,18.88,7.71,28.7,2.56-1.85,4.55-3.28,5.62-4.05Zm-56.38-8.93c1.03,10.48,2.03,20.76,3.04,31.03l1.2,.05c.68-3.52,1.87-7.03,1.91-10.56,.06-5.19-.94-10.38-1.01-15.58-.04-3.13-1.19-4.57-5.13-4.94Zm153.96-152.01c-9.59-9.32-19.18-18.65-28.77-27.97,2.59,8.77,8.58,14.5,15.86,19.14,1.53,.98,4.02,1.81,4.33,3.12,1.13,4.85,5.53,4.18,8.58,5.71Zm-33.26,164.29c-2.53-4.07-4.66-7.48-7.27-11.69-2.71,6.34-4.99,11.69-7.27,17.04l.89,.6c4.37-1.9,8.74-3.81,13.65-5.94ZM194.17,49.92c-7.98-11.93-22.13-10.29-30.6,.96,5.51-1.9,10.45-3.88,15.56-5.26,3.7-1,7.37-.94,10.23,2.71,.87,1.11,3.17,1.09,4.82,1.59Zm35.13,126.19c-1.33,4.76,.11,8.17,3.75,10.26,3.66,2.1,7.7,.85,12.24-4.16-5.46-2.08-10.69-4.08-15.99-6.11Zm-83.97,164.78c1.94-.78,3.45-1.21,4.77-1.98,.87-.51,2.15-1.62,2.05-2.27-.62-3.98-1.46-7.95-2.53-11.83-.23-.84-1.73-1.32-2.64-1.97-.55,.78-1.55,1.55-1.58,2.35-.15,5.07-.07,10.14-.07,15.7ZM178.65,59.24c1.48-2.04,2.98-4.1,4.83-6.64-7.47-2.3-13.41-.68-20.12,3.22,3.51,1.25,7.85,3.56,8.4,2.86,2.84-3.59,4.51-.18,6.9,.55Zm28.56,230.33l.76-.08c-.44-7.11-.88-14.21-1.34-21.63-3.39,.61-6.38,1.15-9.25,1.67,1.4,9.86,2.75,19.4,4.11,28.94l1.69-.22c-1.07-8.24-4.76-16.21-3.5-25.61,1.32,1.16,2.04,1.79,2.62,2.3,.6-.84,1.2-1.7,1.8-2.56l1.09,.15c.68,5.68,1.35,11.37,2.03,17.05Zm-48.63-131.74l-.91,.61c.78,4.85,1.58,9.71,5.1,13.55,1.43,1.56,3.09,3.06,5.34,1.2,2.28-1.88,1.72-3.78-.09-5.64-3.15-3.24-6.3-6.48-9.44-9.72Zm21.23,241.96c-8.48-3.11-16.49-6.13-24.58-8.93-1.46-.5-3.25-.07-4.88-.07l-.11,1.32c8.98,5.31,19.1,6.29,29.58,7.68Zm30.93-116.12c.45-5.66,.84-10.69,1.24-15.71h2.18l.35,23c.45-.03,.9-.05,1.35-.08,0-4.27-.11-8.54,.03-12.81,.14-4.23,.55-8.44,.87-13.13-2.67,.8-4.76,1.42-7.07,2.11,.35,5.48,.68,10.8,1.05,16.62Zm-28.97,14.52c1.1,7.11,2.09,13.51,3.07,19.9l1.63-.16v-18.7c-1.2-.27-2.56-.57-4.71-1.05Zm-15.9,4.47c1.56-8.88-5.68-5.37-9.24-6.66-1.21-.44-3.15,1.18-4.76,1.85l.39,1.38c4.55,1.15,9.11,2.29,13.62,3.43Zm6.54-147.77c-.33-7.01-8.18-13.44-18.25-15.24,5.69,4.75,12.06,10.07,18.25,15.24Zm56.2,.38c-6.21-4.37-12.48-8.78-18.75-13.2,3.07,4.07,6.6,7.8,10.03,11.62,2.65,2.95,5.61,3.34,8.72,1.58Zm-.78,4.41c8.86,3.1,16.54-2.17,24.34-.6-4.65-2.85-16.58-2.64-24.34,.6Zm-18.57,8.37c4.72-1.75,9.14-3.39,13.76-5.1-5.91-4.96-12.31-2.45-13.76,5.1Zm71.66-.2c-7.4-4.94-9.48-5.24-19.57-3.68,6.1,1.15,12.84,2.42,19.57,3.68Zm-2.22,64.35c4.05-2.36,7.88-4.59,11.7-6.82-3.5,.11-6.52,1.38-9.66,1.78-4.37,.55-4.68,.77-2.04,5.04Zm-26.14-59.75l.46-1.45c-2.78-1.1-5.52-2.36-8.38-3.2-.91-.26-2.15,.61-3.24,.97,.9,.93,1.66,2.43,2.72,2.67,2.74,.63,5.62,.71,8.44,1.01Zm5.06-11.22l-.22-1.25c-5.52,.33-11.04,.66-16.56,.98,2.76,1.09,5.55,1.98,8.31,1.92,2.83-.06,5.64-1.06,8.46-1.65Zm31.92,4.59l.96-.26c-.16-1.74-.12-3.54-.54-5.21-.29-1.17-1-2.82-1.9-3.12-1.24-.42-2.83,.23-4.94,.51,2.59,3.26,4.51,5.67,6.43,8.09Zm-120.48,163.52c5.55-2.44,5.73-4.7,.9-11.14-.31,3.91-.6,7.43-.9,11.14Zm50.35-48.36c.92-5.8,1.85-11.59,2.77-17.39l-1.48-.2c-2.57,5.57-1,11.71-1.29,17.59Zm-29.03,32.63l1.2,.25v-13.74l-1.53-.24c.02,4.57,.09,9.14,.34,13.73Zm33.56-145.73c.1,.57,.19,1.15,.29,1.72l11.56-1.95-.27-1.55c-3.86,.59-7.72,1.19-11.57,1.78Zm-37.52-69.84c-2.72-1.17-4.67-2-6.7-2.88-1,1.82-1.8,3.25-2.82,5.1,3.22-.75,5.94-1.39,9.52-2.23Zm-52.49,226.58c3.63-7.37,3.56-7.87-.87-8.86,.3,3.02,.58,5.94,.87,8.86ZM319.17,110.64l-1.12,.22c.86,4.42,1.73,8.84,2.59,13.27l1.11-.22c-.86-4.42-1.72-8.85-2.58-13.27Zm-163.44,77.62l-.29,1.81,7.85,1.19c.08-.53,.17-1.06,.25-1.59-2.6-.47-5.21-.94-7.81-1.41Zm90.7,17.27l-.1-1.69-8.18,1.12c.07,.51,.15,1.02,.22,1.52,2.69-.32,5.37-.63,8.06-.95Z"/><path d="M284.37,275.56c.93,6.2,1.87,12.4,2.97,19.69,1.89-2.76,3.85-5.62,5.83-8.51,2.91,2.81,3.17,4.57,1.65,6.85-3.57,5.33-6.74,10.93-10.47,16.13-1.31,1.83-3.82,2.8-5.13,3.71-4.04-9.47-7.71-18.09-11.17-26.22,.59-1.31,1.05-2.47,1.62-3.58,2.88-5.67,5.67-11.4,8.83-16.92,.43-.75,3.73-1.01,4.07-.47,3.88,6.16,7.46,12.52,11.04,18.87,.21,.37-.24,1.12-.65,2.76-2.92-4.66-5.36-8.55-7.8-12.43l-.77,.13Zm-2.62,20.55l1.71-.39c-1-8.14-2-16.28-3-24.41l-1.02-.18c-2.21,5.23-4.46,10.45-6.56,15.72-.25,.63,.03,1.9,.53,2.35,2.7,2.4,5.55,4.63,8.34,6.92Zm-7.03-1.32c1.52,3.83,2.72,6.86,4.04,10.2,3.4-5.22,.23-7.5-4.04-10.2Z"/><path d="M117.88,308.06c.47,1.5,1.22,2.98,1.35,4.51,.59,7.41,.97,14.85,1.53,22.26,.23,3.11,.82,6.2,1.05,9.31,.07,.96-.52,1.98-.8,2.97-.79-.72-2.07-1.33-2.27-2.18-.76-3.29-1.43-6.64-1.65-10-.53-7.81-.8-15.63-1.12-23.45-.04-.99,.22-1.99,.34-2.99,.52-.15,1.05-.29,1.57-.44Z"/><path d="M279.41,239.23c3.9,.1,6.37,2.61,6.34,5.97-.03,3.23-2.33,5.5-5.43,5.37-3.18-.14-4.74-2.83-4.8-7.68-.04-3.2,1.97-3.54,3.9-3.66Z"/><path class="cls-1" d="M321.17,190.25c-13.92,2.77-28.35,4.14-39.55,14.94,1.19-4.01,1.02-8.04,6.18-10.16,10.88-4.47,22.03-7.73,33.66-8.85,6.22-.6,12.6,.41,19.74,.73-1.57-1.02-2.83-2.48-4.23-2.63-5.8-.65-11.64-1.21-17.46-1.19-3.86,.01-7.71,1.06-11.55,1.64,2.81-5.81,7.05-8.13,13.57-6.24,4.62,1.34,9.54,1.67,14.14,3.07,4.13,1.25,8.01,3.35,11.74,4.96-.54,5.96-5.17,5.78-8.87,7.51-6.36,2.98-12.08,7.32-18.32,10.6-7.92,4.17-16.13,7.78-24.15,11.77-3,1.49-5.71,3.58-8.74,4.99-2.64,1.23-5.49,2.27-8.35,2.68-2.55,.36-6,.76-4.68-4.65-1.53,.73-2.38,.92-2.95,1.43-10.01,8.96-19.85,18.12-30.01,26.9-11.55,9.98-26.06,12.79-40.4,15.79-4.72,.99-9.53,1.7-14.33,2-1.97,.13-4.43-.66-5.97-1.89-5.31-4.25-10.11-9.14-15.47-13.32-8.02-6.26-12.65-15.11-18.12-23.23-5.84-8.68-5.99-19.07-6.53-29.15-.21-3.9-.03-7.82-.03-11.6,3.78-1.71,6.18-.27,8.82,2.35,4.1,4.08,8.81,5.12,15.03,3.73,4.36-.97,7.01-4.49,11.41-5.12-.27,2.27-.53,4.38-.81,6.75,3.58-1.57,4.82-12.15,1.82-15.39,.47,4-1.78,4.56-4.67,6.18-5.06,2.85-9.14,1.47-13.58,.04-1.73-.55-3.3-1.85-4.7-3.08-1.26-1.11-2.06-2.73-3.29-3.87-.78-.72-2.06-1.42-2.98-1.27-.63,.1-1.02,1.67-1.71,2.93-1.14-1.49-2.31-3.03-3.56-4.66-2.73,2.65,4.53,6.36-2.07,8.58,0-3.67-.07-6.97,.05-10.27,.03-.77,.7-1.51,1.07-2.27,.75,.39,1.6,.67,2.22,1.21,1.23,1.07,2.33,2.28,3.48,3.44l1.23-.8c-.33-1.43-.55-2.89-1.01-4.27-.45-1.36-1.21-2.61-1.72-3.95-2.95-7.73,.04-11.47,8.59-10.53,.4,3.54,.25,7.32,1.38,10.67,1.07,3.17,3.07,6.31,5.44,8.68,2.77,2.75,6.39,2.17,9.64-.05,1.85,.17,3.58,.77,4.02,.26,.75-.86,1.25-2.65,.86-3.66-.94-2.42-2.53-4.57-3.72-6.9-.68-1.34-1.09-2.82-.91-4.63,1.16,1.57,2.32,3.14,3.75,5.06,1.02-1.44,1.66-2.33,2.45-3.44,.58,1.91,1.06,3.5,1.71,5.61,.37-1.44,.95-2.45,.81-3.35-1.38-9.02-2.74-18.1-12.29-22.68-3.29-1.58-6.63-3.11-10.05-4.38-2.21-.82-3.08-1.79-1.74-3.99,4.95-8.18,9.63-16.53,14.9-24.49,4.14-6.25,13.98-8.38,20.71-4.9,1.01,.52,1.75,2.31,1.92,3.6,.81,6.07,1.18,12.21,2.11,18.26,.51,3.32,1.43,6.7,2.84,9.75,2.24,4.84,5.03,9.41,7.67,14.24,.71-.97,1.28-1.76,2.03-2.78,2.87,3.66,5.64,7.19,8.38,10.68-.09,.19-.15,.39-.2,.39-8.21-.42-9.33,5.75-10.67,11.6-.22,.98,.32,2.13,.51,3.21,.96-.22,2.03-.24,2.86-.7,3.73-2.05,7.39-4.22,11.53-5.95-9.53,6.53-17.29,14.07-16.87,27.17,5.99-6.42,11.41-13.65,21.23-14.93,.71,6.14,2.47,11.39,9.55,13.01,6.63,1.52,10.98-1.43,14.81-7.25,.96,2.28,1.75,3.74,2.2,5.29,1.09,3.79-.59,7.27-4.41,7.92-8.86,1.52-17.77,2.77-26.71,3.72-1.8,.19-3.79-1.38-5.68-2.18-2.31-.97-4.6-1.97-7.35-3.15,.99,4.72,10.12,9.37,14.53,9.45,2.12,1.24,4.16,3.38,6.37,3.57,6.88,.58,14.08,3.67,20.62-1.63,.7-.57,2.51,.22,3.39,.33,.97-2.43,2.02-4.7,2.72-7.07,.23-.79-.45-1.84-.96-3.66,2.75-1.66,6.05-3.67,9.37-5.65,2.81-1.68,5.69-3.25,8.42-5.04,.72-.47,1.02-1.57,1.51-2.38-.9-.29-1.78-.76-2.7-.85-3.87-.4-7.77-.57-11.62-1.07-1.29-.17-2.48-1.08-3.72-1.65l.04-1.13c1.77-.31,3.55-.63,5.22-.92,.5-1.73,1.1-3.81,1.45-5.01-3.11-1.39-5.86-2.63-8.62-3.87l.57-1.47c9.95,3.18,19.9,6.35,29.84,9.53l.09,.83c-1.93,.5-3.87,1-5.8,1.5l.07,.39c4.11,0,8.27,.36,12.33-.09,4.73-.52,9.37-1.84,14.08-2.61,1.09-.18,2.31,.46,4.09,.86-3.29,4.89-6.65,8.46-11.8,10.04-5.74,1.76-11.47,3.56-17.16,5.46-1.72,.57-3.44,1.34-4.93,2.36-.8,.54-1.11,1.79-1.65,2.72,1.03-.05,2.13,.12,3.08-.18,1.73-.56,3.36-1.41,5.9-1.49-1.42,2.33-2.84,4.66-4.26,7-.37-.18-.74-.35-1.11-.53,.26,3.6,.47,7.2,.83,10.79,.1,.95,.57,2.55,1.07,2.63,.96,.16,2.12-.44,3.09-.93,.92-.47,1.66-1.27,2.53-1.85,4.39-2.91,4.4-3,.42-7.38,2.17-1.79,4.23-3.71,6.52-5.31,2.23-1.57,4.62-2.97,7.08-4.14,1.03-.49,2.85-2.35,3.54,.72,.1,.43,1.59,.73,2.46,.79,4.7,.34,9.4,.66,14.1,.78,.97,.02,1.97-.85,2.87-2l-17.82-1.09-.05-.47c6.22-1.59,12.43-3.17,18.65-4.76l-.33-1.04Zm-146.95,7.94c-2.7,6.72-5.07,12.63-7.67,19.09,4.43-1.7,6.48-4.8,7.3-8.73,.65-3.11,2.63-6.27,.37-10.36Zm-3.71,43.8c1.71,4.89,13.09,10.16,16.1,7.67-5.52-2.57-10.1-6.59-16.1-7.67Zm-3.17-21.11c-.59,.42-1.17,.83-1.76,1.25,1.46,2.29,2.92,4.58,4.38,6.87,.58-.38,1.17-.76,1.75-1.14-1.46-2.33-2.91-4.65-4.37-6.98Z"/><path class="cls-1" d="M320.14,363.26c-26.2,11.84-52.54,23.22-80.32,31.12-14.15,4.03-28.08,3.46-42.26,1.81-1.17-.14-2.34-.28-3.51-.34-.74-.04-1.48,.06-2.26,1.01,8.03,.57,16.05,1.15,23.79,1.7-8.68,2.91-17.66,1.68-26.44-.64-10.7-2.83-21.23-6.27-31.84-9.42-2.79-.83-4.2-2.76-4.88-5.5-.47-1.9-1.25-3.72-2.24-6.57v9.42c-5.84-12.25-7.9-24.78-9.01-37.53l1.08-.28c.92,3.39,1.84,6.77,2.76,10.16l.45,.04c0-2.71,.43-5.51-.1-8.11-.8-3.87,.1-6.27,4.02-7.42,1.35-.39,2.59-1.19,4.91-2.29,1.06,7.16,2.08,13.81,3,20.47,.09,.64-.28,1.43-.65,2.02-1.72,2.69-3.42,5.41-5.35,7.95-.82,1.07-2.2,1.71-3.62,2.76,.79,.34,1.44,.87,2.05,.83,3.74-.25,11.14-6.54,12.03-10.22,.71-2.92,1.09-5.94,1.99-8.8,.75-2.38,2.27-4.51,3.01-6.89,.73-2.33,1.38-4.85,1.23-7.24-.36-5.68,1.96-9.21,7.05-11.66,3.38-1.62,6.25-4.29,9.49-6.25,1.37-.83,3.11-1.04,5.53-1.79q1.74-4.09,10.39-7.27c1.63,2.02,3.27,4.04,4.9,6.06,.39-.25,.79-.5,1.18-.75-1.16-2.48-2.32-4.95-3.58-7.65,3.4-3.22,5.89-8.07,12.5-5.72l.03-1.39-3.28-1.72c.88-.81,1.35-1.05,1.54-1.44,3.64-7.62,10.71-8.18,17.88-9.32,10.3-1.63,19.76-5.84,29.17-11.88,.37,4.1,1.33,7.74,.83,11.17-.49,3.37-2.45,6.52-3.77,9.77,.6,.28,1.2,.55,1.8,.83,1-1.73,1.99-3.45,3.05-5.29,1.5,4.51,3.02,9.07,4.74,14.26-5.69,3.64-11.7,7.49-17.72,11.33l-1.17-.77c3.21-6.11,6.43-12.21,9.64-18.32l-1.2-.69c-5.83,3.48-7.41,10.11-10.38,16.06-2.33-3.59-4.43-6.83-6.59-10.15,7.22-9.52,8.82-14.55,5.12-18.07-.82,7.28-4.02,13.1-9.17,17.86,.6,5.06-2.79,8.81-4.35,13.16-.52,1.46-1.2,2.87-1.97,4.68-2.71-5.99-4.95-11.86-10.76-15.44,3.12,6.62,6.24,13.24,9.57,20.32l-6.22,1.34c1.76,1.11,2.86,1.81,3.29,2.08l2.97,4.41c1.02-1.48,2.03-2.97,3.44-5.03,13.52-3.38,25.99-10.66,38.07-19.73,3.06,3.46,6,7.1,9.26,10.42,9.16,9.33,17.99,19.08,27.91,27.53,4.28,3.65,9.17,6.66,12.86,11.06l.1-.05Zm-112.26-38.74c.74-.54,1.93-.94,2.13-1.63,1.2-4.08,2.17-8.23,3.21-12.36,.28-1.11,.53-2.22,.94-3.91-5.74,3.33-8.3,11.58-6.18,17.93-2.58-2.03-5.16-4.05-8.45-6.63,3.38,7.58,12.42,14.36,16.18,13.13-2.52-2.11-5.17-4.32-7.82-6.54Zm18-27.89l-8.6,9.18,.55,1c2.83-1.63,5.66-3.26,8.56-4.93,5.99,4.19,7.46,4.57,9.33,2.82-3.53-2.9-7.1-5.83-9.84-8.07Zm22.5-2.91c.25,5.33,3.79,8.39,7.86,7.46-2.49-2.37-4.87-4.63-7.86-7.46Z"/><path class="cls-1" d="M115.25,244.65l.42-5.76,.52-.03c.44,4.01,.49,8.12,1.4,12.02,2.52,10.79,4.89,21.67,8.36,32.17,1.7,5.15,5.78,9.49,8.64,14.29,2.25,3.77,4.29,7.68,6.88,12.35-1.92-.69-3.01-.96-4-1.45-16.15-7.97-31.32-17.71-44.96-29.29-14.3-12.13-20.97-28.1-17.59-47.36,1.96-11.17,2.62-22.68,5.73-33.5,3.89-13.52,9.02-26.8,14.81-39.64,12.12-26.9,25.97-52.9,44.23-76.26,4.57-5.85,9.69-11.26,14.42-16.71,2.25,.99,3.87,1.69,5.48,2.4l.8-.94-1.64-3.15,.46-.88c2.7,1.69,5.4,3.38,8.1,5.07,.73,.46,1.56,1.43,2.18,1.31,5.75-1.09,10.37,2.03,15.25,4.01,3.13,1.27,6.2,2.82,6.21,7.17,0,1.19,1.56,2.33,2.25,3.58,.54,.98,.83,2.09,1.23,3.14l-1.12,.61c-.82-1.13-1.64-2.27-2.47-3.4l-.44,1.05c-3.9-1.62-7.8-3.23-11.93-4.95-2.96,4.96-5.18,10.75-10.55,12.41-1.49,3.02-2.57,5.56-3.94,7.94-5.33,9.24-10.84,18.37-16.07,27.66-1.47,2.61-2.55,4.36-6.16,3.47-1.98-.48-4.4,.85-6.63,1.37l-.03,1.59,5.87,3.01c.55,4.79-2.21,8.88-4.59,12.61-2.08,3.27-5.68,.8-8.49-.35-1.34-.55-2.51-1.5-3.75-2.27l-1.11,1.24c3.19,3.19,6.39,6.38,9.39,9.39-4.56,11.97-9.28,23.66-13.47,35.54-4.16,11.79-7.78,23.77-11.63,35.67,.44,.16,.88,.31,1.31,.47,2.86-7.3,5.73-14.59,9.03-22.99-1.13,13.25-2.16,25.32-3.19,37.4h.82Z"/><path class="cls-1" d="M256.85,88.32c-2.11-3.88-4.02-7.88-6.36-11.61-4.02-6.41-9.34-11.32-17.12-12.64-2.13-.36-4.38-.06-6.84-.06-2.06-3.43-4.27-7.2-6.56-10.91-4.3-6.95-11.22-9.36-19.37-6.53-2.24,.78-3.74,.81-4.55-1.69,4.3-5.21,16.28-8.31,22.66-6.47,2.75,.8,5.93,.13,9.01,.13l-2.53,1.67c1.43,2.66,3.35,3.54,6.14,3.35,5.86-.4,11.89-1.45,17.55-.5,4.77,.8,9.12,4.07,13.61,6.23-7.54,6.71-18.53,6.37-24.64,14.2,.24,.43,.47,.86,.71,1.29,1.07-.53,2.2-.97,3.21-1.61,8.08-5.11,17.08-6.9,26.43-7.25,1.06-.04,2.23,1.07,3.23,1.8,1.12,.82,2.11,1.83,3.15,2.75l.86-.54c-.73-1.44-1.46-2.89-2.2-4.33q3.82-1.5,8.12,3.94c-9.14,4.12-17.59,9.04-21.54,19.2,1.01-.85,2.1-1.63,3.03-2.57,6.1-6.19,13.44-10.36,21.55-13.26,3.66-1.31,6.24,.31,7.72,3.85,.8,1.91,2.98,3.21,4.11,5.04,.63,1.02,.4,2.58,.68,4.88,.75,.93,2.17,2.69,3.84,4.75l-3.23,1.38c6.27,4.28,5.56,10.54,5.42,16.44-.15,6.39-.85,12.77-1.3,19.16l1.1,.25c1.19-5.03,2.38-10.06,3.49-14.75,.02,.07,.2,.67,.38,1.28l.64,.08c.3-2.72,.61-5.45,1.05-9.4,2.16,3.03,3.79,5.32,6.12,8.58-2.04-.39-2.85-.54-4.58-.87,9.48,18.56,11.61,37.12,4.52,56.7-1.93-2.73-1.43-6.68-6.06-7.63,1.01,2.93,2.19,5.32,2.61,7.85,.44,2.62,.74,5.54,0,7.99-.64,2.14-1.22,5.44-4.57,5.48,.45-4.53,1.48-8.74,1.14-12.83-.8-9.69-1.99-19.36-3.58-28.95-.48-2.91-2.48-5.75-4.34-8.2-1.51-1.99-3.8-3.53-7.15-1.77,1.99,1.53,4.12,2.5,5.23,4.15,4.22,6.28,5.24,13.1,4.32,20.78-.71,5.94,.8,12.14,1.32,18.23,.12,1.44,.2,2.88-.63,4.47-1.29-3.68-2.59-7.35-3.88-11.03l-1.16,.28c1,4.09,2.01,8.19,3.06,12.5-3.3-.02-6.37-.26-8.21-3.43-.43-.73-.73-1.69-.69-2.52,.25-5.97,.64-11.94,.87-17.91,.04-.97-.49-1.95-.75-2.92,4.55-.7,4.88-1.7,2.72-5.96-1.39-2.74-2.56-5.68-3.26-8.67-2.55-10.85-4.72-21.9-10.95-31.33-2.88-4.35-6.83-8.23-11-11.38-2.34-1.77-6.11-1.78-9.28-2.29-2.22-.35-3.42,.92-3.34,3.24l.1-.1Zm57.99,40.68c-1.98,3.88-3.6,7.06-5.54,10.87,5.13-2.14,7.29-6.24,5.54-10.87Z"/><path class="cls-1" d="M136.14,184.92c-.67,5.96-1.65,11.9-1.84,17.87-.08,2.4,2,4.8,2.39,7.31,3.62,23.1,17.34,39.63,34.15,54.58,4.94,4.39,9.85,4.68,15.41,4.29,7.08-.49,9.23,1.93,8.74,8.83-.28,3.95,.96,8,1.46,12.01,.19,1.52,.24,3.06,.35,4.53-6.27-.33-12.51,.41-18.1-1.17-10.1-2.85-20.44-3.23-30.66-4.75-2.42-.36-4.99,.29-7.49,.47v1.25c4.7,.56,9.42,1.12,14.72,1.75-3.79,2.29-9.07-.99-10.57,4.66-4.62-.2-6.98-2.76-8.7-7-6.18-15.25-11.97-30.54-14.58-46.93-3.35-21.02,2.64-40.61,7.86-60.31,2.6,1,4.72,1.81,6.84,2.62h0Z"/><path class="cls-1" d="M199.91,101.63c-1.79-7.97,.07-14.82,4.47-21.27l-.82-.68c-1.23,.65-2.45,1.31-4.03,2.15,.87-3.07,1.68-5.91,2.54-8.94l6.06-.31c-1.16,3.45-2.7,6.59-3.21,9.88-.57,3.72,1.99,5.73,5.47,6.42,5.46,1.08,10.91,2.41,16.43,2.98,4.24,.44,5.66,2.24,6.41,6.36,3.37,18.52,9.99,35.71,22.72,49.99,3.62,4.06,7.75,7.66,11.43,12.41-2.17-.7-4.31-1.52-6.52-2.08-5.65-1.43-11.34-3.89-17-3.87-16.17,.06-27.06-8.4-35.85-20.51-6.07-8.36-8.75-18.08-9.21-28.36-.06-1.43,.76-2.9,1.12-4.17Z"/><path class="cls-1" d="M222.89,290.31c5.03-4.6,6.74-10.93,12.34-13.23,8.13-13.67,14.91-28.11,27.85-39.8-.34,3.35-.69,5.62-.78,7.9-.35,9.26-.55,18.52-.98,27.78-.07,1.5-.6,3.43-1.64,4.36-6.82,6.13-26.22,13.09-36.8,12.99Z"/><path class="cls-1" d="M320.03,363.31c6.81,6.42,6.73,6.29-1.46,11.2-8.74,5.24-17.3,10.79-25.99,16.11-1.85,1.13-4.35,3.04-5.88,2.54-6.4-2.09-11.41,2.17-17.11,2.99-6.3,.9-12.44,2.94-18.75,3.76-11.19,1.44-22.46,2.33-33.7,3.46l-.24-1.08c.45-.27,.88-.71,1.36-.78,24.58-3.26,47.58-11.79,70.29-21.22,7.12-2.96,14.12-6.23,20.96-9.78,3.77-1.96,7.07-4.79,10.6-7.24,.01,0-.09,.05-.09,.05Z"/><path class="cls-1" d="M256.76,88.42c10.76-1.11,17.42,4.55,21.28,13.73,3.21,7.64,5.6,15.64,8.22,23.52,.39,1.18,.05,2.6,.05,4.56-1.33-.83-2.04-1.11-2.56-1.61-8.05-7.76-17.58-13.04-27.97-16.95-2.19-.82-4.28-1.94-6.43-2.89-2.7-1.19-4.04-3.32-3.98-6.18,.03-1.32,.31-3.46,1.08-3.79,2.03-.86,5.99-1.86,6.38-1.18,2.69,4.64,8.85,4.88,11.38,9.58,.8,1.5,2.63,2.45,4.36,3.28,.2-5.22-4.84-6.73-6.68-10.34-1.94-3.82-3.38-7.89-5.04-11.85l-.1,.1Z"/><path class="cls-1" d="M228.02,67.55c11-1.54,19.46,6.88,27.23,26.91-6.11-1.44-11.8-2.84-17.53-4.11-3.3-.73-6.63-1.32-9.96-1.84-5.26-.82-10.26-2.85-15.79-2.67-3.66,.12-5.18-2.62-3.68-5.97,2.76-6.2,7.15-9.54,13.41-3.93,.56,.51,1.23,.9,2.02,1.47,2.24-4.45,4.74-.44,7.13-.32,.78,.04,1.45,1.2,2.29,1.41,.99,.25,2.1,.04,3.17,.03-.33-1.03-.38-2.32-1.04-3.04-1.84-1.99-3.97-3.71-5.91-5.62-.52-.51-.76-1.29-1.33-2.31Z"/><path class="cls-1" d="M210.53,67.23c-2.74-6.14-7.34-10.7-13.06-14.29,4.42-4.82,12.31-5.52,16.8-1.24,1.45,1.38,1.86,3.82,2.93,5.66,2.53,4.39,5.17,8.72,7.52,13.69-9.9-4.24-20.08-1.9-30.85-1.66-.29,.27-1.39,1.3-3,2.81-.67-1.79-1.05-3.1-1.64-4.3-.64-1.28-1.2-3-2.29-3.58-3.01-1.6-2.85-4.51-1.92-6.39,.8-1.63,3.58-3.26,5.46-3.23,6.77,.11,11.03,4.73,14.95,9.63,1.16,1.45,2.4,2.85,3.6,4.28,.51-.46,1.02-.92,1.53-1.37Z"/><path class="cls-1" d="M289.89,154.58c-8.52-2.75-15.06-6.96-17.55-15.38-1.04-3.51-1.91-7.56,1.31-10.62,.78-.74,2.96-1.04,3.79-.49,3.35,2.25,6.44,4.88,9.57,7.43,.47,.38,.93,1.04,1,1.62,.66,5.66,1.24,11.33,1.89,17.43Z"/><path class="cls-1" d="M238.63,99.99c2.26,3.87,3.79,6.98,5.8,9.75,.93,1.27,2.72,2.03,4.26,2.73,4.97,2.27,9.99,4.41,14.98,6.6-.47,3.14-2.18,6.29,1.63,8.43,.34-2.17,.64-4.1,.95-6.03l1.45,.16v19.72c-2-1.86-4.5-3.67-6.32-5.99-4.34-5.55-7.91-11.78-12.68-16.9-3.18-3.41-6.06-6.75-7.7-11.07-.85-2.23-1.46-4.55-2.36-7.39Z"/><path class="cls-1" d="M140.97,300.55c9.61,2.41,17.99,4.52,26.54,6.66-.59,3.86-1.14,7.53-1.69,11.13-3.46-.2-6.95,.3-9.82-.8-2.17-.84-6.72,.21-6.11-5.08,.18-1.55-2.55-3.42-3.89-5.17-1.49-1.94-2.93-3.92-5.02-6.73Z"/><path class="cls-1" d="M105.07,347.53l-3.26-30.19,.76-.1c1.8,11.62,3.59,23.24,5.4,34.96,.16-.04-.2,.12-.57,.12q-8.38,0-9.49-8.29c-.63-4.77-1.42-9.54-1.68-14.33-.1-1.77,1.11-3.61,2.59-5.35,.48,4.16,.88,8.34,1.49,12.49,.44,2.96,1,5.93,1.84,8.79,.32,1.09,1.59,1.91,2.43,2.85l.48-.95Z"/><path class="cls-1" d="M181.66,321.17c-1.07,.77-3.06,2.21-5.62,4.05-2.64-9.82-5.15-19.17-7.71-28.7,3.5-1.14,5.26-.6,5.6,3.33,.46,5.32,1.45,10.6,2.3,15.89,.18,1.14,.51,2.39,1.19,3.28,.49,.65,1.65,.79,2.52,1.16,.13-.82,.49-1.68,.35-2.45-1.22-6.54-2.53-13.06-3.82-19.59l1.34-.79c.54,.86,1.44,1.68,1.56,2.59,.83,6.81,1.5,13.63,2.3,21.21Z"/><path class="cls-1" d="M125.28,312.23c3.94,.37,5.09,1.82,5.13,4.94,.07,5.2,1.07,10.39,1.01,15.58-.04,3.53-1.23,7.04-1.91,10.56l-1.2-.05c-1.01-10.27-2.01-20.55-3.04-31.03Z"/><path class="cls-1" d="M279.24,160.23c-3.06-1.53-7.45-.86-8.58-5.71-.3-1.31-2.79-2.14-4.33-3.12-7.27-4.64-13.27-10.37-15.86-19.14,9.59,9.32,19.18,18.65,28.77,27.97Z"/><path class="cls-1" d="M245.98,324.52c-4.91,2.14-9.28,4.04-13.65,5.94l-.89-.6c2.28-5.35,4.56-10.7,7.27-17.04,2.62,4.2,4.74,7.62,7.27,11.69Z"/><path class="cls-1" d="M194.17,49.92c-1.65-.5-3.95-.48-4.82-1.59-2.86-3.65-6.53-3.72-10.23-2.71-5.11,1.39-10.05,3.37-15.56,5.26,8.47-11.25,22.62-12.89,30.6-.96Z"/><path class="cls-1" d="M229.29,176.12c5.3,2.03,10.54,4.02,15.99,6.11-4.54,5-8.58,6.26-12.24,4.16-3.64-2.09-5.08-5.5-3.75-10.26Z"/><path class="cls-1" d="M145.32,340.9c0-5.56-.07-10.64,.07-15.7,.02-.8,1.03-1.57,1.58-2.35,.91,.65,2.41,1.13,2.64,1.97,1.07,3.88,1.91,7.85,2.53,11.83,.1,.65-1.18,1.76-2.05,2.27-1.32,.77-2.83,1.2-4.77,1.98Z"/><path class="cls-1" d="M178.65,59.24c-2.38-.74-4.06-4.14-6.9-.55-.55,.69-4.89-1.61-8.4-2.86,6.71-3.91,12.65-5.53,20.12-3.22-1.85,2.54-3.35,4.61-4.83,6.64Z"/><path class="cls-1" d="M207.21,289.57c-.68-5.68-1.35-11.37-2.03-17.05l-1.09-.15c-.6,.86-1.21,1.71-1.8,2.56-.58-.51-1.29-1.13-2.62-2.3-1.26,9.4,2.43,17.37,3.5,25.61l-1.69,.22c-1.35-9.54-2.71-19.08-4.11-28.94,2.88-.52,5.86-1.05,9.25-1.67,.46,7.41,.9,14.52,1.34,21.63l-.76,.08Z"/><path class="cls-1" d="M158.58,157.83c3.15,3.24,6.29,6.48,9.44,9.72,1.81,1.86,2.37,3.75,.09,5.64-2.25,1.86-3.92,.36-5.34-1.2-3.52-3.84-4.32-8.71-5.1-13.55l.91-.61Z"/><path class="cls-1" d="M179.81,399.8c-10.47-1.39-20.6-2.37-29.58-7.68l.11-1.32c1.64,0,3.42-.43,4.88,.07,8.09,2.79,16.1,5.82,24.58,8.93Z"/><path class="cls-1" d="M210.74,283.68c-.37-5.82-.71-11.13-1.05-16.62,2.32-.69,4.4-1.31,7.07-2.11-.32,4.69-.73,8.9-.87,13.13-.15,4.27-.03,8.54-.03,12.81-.45,.03-.9,.05-1.35,.08l-.35-22.99h-2.18c-.4,5.01-.79,10.03-1.24,15.7Z"/><path class="cls-1" d="M181.77,298.2c2.14,.48,3.51,.78,4.71,1.05v18.7l-1.63,.16c-.99-6.4-1.98-12.79-3.07-19.9Z"/><path class="cls-1" d="M231.71,259.8c4.59-2.66,9.19-5.32,14.42-8.35-2.43,4.2-4.44,7.68-6.69,11.58-.62-1.32-1.09-2.3-1.55-3.29l-.91-.07c-1.04,3.86-2.07,7.71-3.11,11.57l-.85-.16c.36-2.68,.79-5.36,1.05-8.05,.17-1.74,.23-3.61-2.46-3.34l.11,.11Z"/><path class="cls-1" d="M165.87,302.67c-4.51-1.13-9.06-2.28-13.62-3.43l-.39-1.38c1.61-.68,3.56-2.29,4.76-1.85,3.57,1.29,10.8-2.22,9.24,6.66Z"/><path class="cls-1" d="M172.41,154.9c-6.19-5.17-12.56-10.49-18.25-15.24,10.07,1.81,17.92,8.23,18.25,15.24Z"/><path class="cls-1" d="M228.61,155.29c-3.11,1.76-6.07,1.37-8.72-1.58-3.43-3.82-6.96-7.55-10.03-11.62,6.27,4.41,12.54,8.83,18.75,13.2Z"/><path class="cls-1" d="M231.61,259.69c-1.25,6.93-1.88,14.01-4.74,20.56-.14-5.68,2.08-11.19,1.55-16.82l-1.84-.29c-.82,2.98-1.64,5.96-2.75,9.97v-9.78c2.27-1.02,5.08-2.28,7.88-3.54l-.11-.11Z"/><path class="cls-1" d="M227.84,159.7c7.76-3.24,19.69-3.45,24.34-.6-7.8-1.57-15.48,3.71-24.34,.6Z"/><path class="cls-1" d="M209.26,168.07c1.45-7.56,7.85-10.06,13.76-5.1-4.62,1.71-9.04,3.35-13.76,5.1Z"/><path class="cls-1" d="M280.93,167.87c-6.73-1.27-13.47-2.53-19.57-3.68,10.09-1.55,12.18-1.26,19.57,3.68Z"/><path class="cls-1" d="M136.14,184.93c-.33-.97-.38-2.25-1.04-2.88-5.25-4.93-1.15-8.58,1.86-13.32-.3,5.98-.56,11.08-.82,16.19h0Z"/><path class="cls-1" d="M278.7,232.22c-2.64-4.27-2.32-4.49,2.04-5.04,3.13-.4,6.16-1.67,9.66-1.78-3.82,2.23-7.65,4.46-11.7,6.82Z"/><path class="cls-1" d="M252.57,172.46c-2.82-.3-5.69-.38-8.44-1.01-1.05-.24-1.82-1.74-2.72-2.67,1.09-.35,2.33-1.23,3.24-.97,2.86,.84,5.6,2.1,8.38,3.2l-.46,1.45Z"/><path class="cls-1" d="M257.62,161.25c-2.82,.59-5.63,1.58-8.46,1.65-2.77,.06-5.56-.83-8.31-1.92,5.52-.33,11.04-.66,16.56-.98l.22,1.25Z"/><path class="cls-1" d="M289.54,165.84c-1.92-2.41-3.84-4.83-6.43-8.09,2.11-.28,3.71-.93,4.94-.51,.9,.31,1.61,1.95,1.9,3.12,.42,1.68,.38,3.47,.54,5.21l-.96,.26Z"/><path class="cls-1" d="M169.06,329.36c.3-3.71,.58-7.23,.9-11.14,4.83,6.45,4.66,8.7-.9,11.14Z"/><path class="cls-1" d="M219.41,280.99c.29-5.88-1.28-12.02,1.29-17.59l1.48,.2c-.92,5.8-1.85,11.59-2.77,17.39Z"/><path class="cls-1" d="M190.38,313.62c-.24-4.59-.32-9.16-.34-13.73l1.53,.24v13.74l-1.2-.25Z"/><path class="cls-1" d="M223.94,167.9c3.86-.59,7.72-1.19,11.57-1.78l.27,1.55-11.56,1.95c-.09-.57-.19-1.15-.29-1.72Z"/><path class="cls-1" d="M186.42,98.06c-3.58,.84-6.3,1.47-9.52,2.23,1.02-1.85,1.82-3.29,2.82-5.1,2.03,.87,3.98,1.71,6.7,2.88Z"/><path class="cls-1" d="M133.93,324.64c-.29-2.92-.58-5.85-.87-8.86,4.44,.99,4.5,1.49,.87,8.86Z"/><path class="cls-1" d="M319.17,110.64c.86,4.42,1.72,8.85,2.58,13.27l-1.11,.22c-.86-4.42-1.73-8.84-2.59-13.27l1.12-.22Z"/><path class="cls-1" d="M155.73,188.26c2.6,.47,5.21,.94,7.81,1.41-.08,.53-.17,1.06-.25,1.59l-7.85-1.19,.29-1.81Z"/><path class="cls-1" d="M246.43,205.53c-2.69,.32-5.37,.63-8.06,.95-.07-.51-.15-1.02-.22-1.52l8.18-1.12,.1,1.69Z"/><path class="cls-1" d="M281.75,296.11c-2.8-2.29-5.64-4.52-8.34-6.92-.5-.45-.78-1.71-.53-2.35,2.1-5.27,4.35-10.49,6.56-15.72l1.02,.18c1,8.14,2,16.28,3,24.41l-1.71,.39Z"/><path class="cls-1" d="M274.72,294.79c4.27,2.7,7.44,4.98,4.04,10.2-1.32-3.34-2.53-6.37-4.04-10.2Z"/><path d="M174.23,198.19c2.26,4.09,.27,7.26-.37,10.36-.82,3.93-2.87,7.03-7.3,8.73,2.6-6.47,4.97-12.38,7.67-19.09Z"/><path d="M170.52,241.99c6,1.09,10.57,5.1,16.1,7.67-3.01,2.49-14.39-2.78-16.1-7.67Z"/><path d="M167.35,220.89c1.46,2.33,2.91,4.65,4.37,6.98-.58,.38-1.17,.76-1.75,1.14-1.46-2.29-2.92-4.58-4.38-6.87,.59-.42,1.17-.83,1.76-1.25Z"/><path d="M225.87,296.63c2.74,2.25,6.31,5.18,9.84,8.07-1.87,1.76-3.34,1.38-9.33-2.82-2.89,1.67-5.72,3.3-8.56,4.93l-.55-1,8.6-9.18Z"/><path d="M207.97,324.56c-2.12-6.35,.44-14.61,6.18-17.93-.41,1.69-.66,2.8-.94,3.91-1.04,4.13-2.01,8.28-3.21,12.36-.2,.69-1.4,1.09-2.13,1.63l.09,.04Z"/><path d="M207.97,324.56l-.09-.04c2.65,2.22,5.3,4.43,7.82,6.54-3.76,1.23-12.79-5.55-16.18-13.13,3.29,2.58,5.87,4.61,8.45,6.63Z"/><path d="M248.37,293.72c2.98,2.83,5.37,5.1,7.86,7.46-4.06,.93-7.61-2.13-7.86-7.46Z"/><path d="M314.84,129c1.75,4.62-.41,8.73-5.54,10.87,1.94-3.81,3.56-6.99,5.54-10.87Z"/></g></g></g></g></svg>